<?xml version="1.0" encoding="UTF-8" standalone="no"?>
<!-- Created with Inkscape (http://www.inkscape.org/) -->

<svg
   xmlns:dc="http://purl.org/dc/elements/1.1/"
   xmlns:cc="http://creativecommons.org/ns#"
   xmlns:rdf="http://www.w3.org/1999/02/22-rdf-syntax-ns#"
   xmlns:svg="http://www.w3.org/2000/svg"
   xmlns="http://www.w3.org/2000/svg"
   xmlns:sodipodi="http://sodipodi.sourceforge.net/DTD/sodipodi-0.dtd"
   xmlns:inkscape="http://www.inkscape.org/namespaces/inkscape"
   version="1.1"
   id="svg2"
   xml:space="preserve"
   width="200"
   height="40"
   viewBox="0 0 200 40"
   sodipodi:docname="logo-sama-prestashop.svg"
   inkscape:version="0.92.4 (5da689c313, 2019-01-14)"><metadata
     id="metadata8"><rdf:RDF><cc:Work
         rdf:about=""><dc:format>image/svg+xml</dc:format><dc:type
           rdf:resource="http://purl.org/dc/dcmitype/StillImage" /><dc:title></dc:title></cc:Work></rdf:RDF></metadata><defs
     id="defs6"><clipPath
       clipPathUnits="userSpaceOnUse"
       id="clipPath18"><path
         d="M 0,595.28 H 841.89 V 0 H 0 Z"
         id="path16"
         inkscape:connector-curvature="0" /></clipPath></defs><sodipodi:namedview
     pagecolor="#ffffff"
     bordercolor="#666666"
     borderopacity="1"
     objecttolerance="10"
     gridtolerance="10"
     guidetolerance="10"
     inkscape:pageopacity="0"
     inkscape:pageshadow="2"
     inkscape:window-width="1600"
     inkscape:window-height="900"
     id="namedview4"
     showgrid="false"
     showguides="true"
     inkscape:guide-bbox="true"
     inkscape:zoom="3.3640075"
     inkscape:cx="177.39711"
     inkscape:cy="14.98293"
     inkscape:window-x="0"
     inkscape:window-y="0"
     inkscape:window-maximized="1"
     inkscape:current-layer="g10"><sodipodi:guide
       position="549.87728,1733.711"
       orientation="0,1"
       id="guide4766"
       inkscape:locked="false" /><sodipodi:guide
       position="-149.66079,1696.7162"
       orientation="1,0"
       id="guide4768"
       inkscape:locked="false" /><sodipodi:guide
       position="-58.855367,1373.8524"
       orientation="1,0"
       id="guide4770"
       inkscape:locked="false" /><sodipodi:guide
       position="-38.676383,1617.6818"
       orientation="1,0"
       id="guide4772"
       inkscape:locked="false" /><sodipodi:guide
       position="788.66192,1759.7755"
       orientation="1,0"
       id="guide4774"
       inkscape:locked="false" /><sodipodi:guide
       position="778.57241,1079.5756"
       orientation="1,0"
       id="guide4776"
       inkscape:locked="false" /><sodipodi:guide
       position="53.81062,1518.4685"
       orientation="1,0"
       id="guide4778"
       inkscape:locked="false" /><sodipodi:guide
       position="77.352767,1505.0158"
       orientation="1,0"
       id="guide4780"
       inkscape:locked="false" /><sodipodi:guide
       position="166.47661,1414.2104"
       orientation="1,0"
       id="guide4782"
       inkscape:locked="false" /><sodipodi:guide
       position="188.33717,1454.5684"
       orientation="1,0"
       id="guide4784"
       inkscape:locked="false" /><sodipodi:guide
       position="317.81898,1493.2448"
       orientation="1,0"
       id="guide4786"
       inkscape:locked="false" /><sodipodi:guide
       position="341.36112,1419.2551"
       orientation="1,0"
       id="guide4788"
       inkscape:locked="false" /><sodipodi:guide
       position="371.6296,1468.021"
       orientation="1,0"
       id="guide4790"
       inkscape:locked="false" /><sodipodi:guide
       position="395.17174,1442.7973"
       orientation="1,0"
       id="guide4792"
       inkscape:locked="false" /><sodipodi:guide
       position="507.83773,1498.2895"
       orientation="1,0"
       id="guide4794"
       inkscape:locked="false" /><sodipodi:guide
       position="529.6983,1331.8129"
       orientation="1,0"
       id="guide4796"
       inkscape:locked="false" /><sodipodi:guide
       position="559.96677,1589.0949"
       orientation="1,0"
       id="guide4798"
       inkscape:locked="false" /><sodipodi:guide
       position="581.82733,1553.7817"
       orientation="1,0"
       id="guide4800"
       inkscape:locked="false" /><sodipodi:guide
       position="674.88158,1577.5081"
       orientation="1,0"
       id="guide4802"
       inkscape:locked="false" /><sodipodi:guide
       position="696.1749,1733.711"
       orientation="1,0"
       id="guide4804"
       inkscape:locked="false" /><sodipodi:guide
       position="778.57241,1476.4289"
       orientation="1,0"
       id="guide4806"
       inkscape:locked="false" /><sodipodi:guide
       position="808.84089,1469.7026"
       orientation="1,0"
       id="guide4808"
       inkscape:locked="false" /><sodipodi:guide
       position="901.32789,1550.4185"
       orientation="1,0"
       id="guide4810"
       inkscape:locked="false" /><sodipodi:guide
       position="923.18846,1590.7765"
       orientation="1,0"
       id="guide4812"
       inkscape:locked="false" /><sodipodi:guide
       position="1015.6755,1592.4581"
       orientation="1,0"
       id="guide4814"
       inkscape:locked="false" /><sodipodi:guide
       position="1039.2176,1521.8316"
       orientation="1,0"
       id="guide4816"
       inkscape:locked="false" /><sodipodi:guide
       position="647.40903,1526.8764"
       orientation="0,1"
       id="guide4818"
       inkscape:locked="false" /><sodipodi:guide
       position="778.5724,1627.7713"
       orientation="1,0"
       id="guide4820"
       inkscape:locked="false" /><sodipodi:guide
       position="1131.7046,1873.2823"
       orientation="1,0"
       id="guide4822"
       inkscape:locked="false" /><sodipodi:guide
       position="1200.6495,1832.9243"
       orientation="1,0"
       id="guide4824"
       inkscape:locked="false" /></sodipodi:namedview><g
     id="g10"
     inkscape:groupmode="layer"
     inkscape:label="loso_subministres_sama2"
     transform="matrix(1.3333333,0,0,-1.3333333,0,40.000005)"><g
       id="g20"
       transform="matrix(0.24228518,0,0,0.28832238,7.538569,16.270969)"><path
         d="m 0,0 c 0.061,-4.331 -1.061,-8.039 -3.374,-11.112 -1.516,-2.082 -3.666,-3.552 -6.434,-4.403 -1.496,-0.468 -3.231,-0.699 -5.216,-0.699 -3.673,0 -6.714,0.91 -9.129,2.727 -2.02,1.482 -3.604,3.516 -4.782,6.074 -1.176,2.557 -1.863,5.496 -2.054,8.809 l 8.918,0.638 c 0.401,-3.619 1.354,-6.251 2.884,-7.883 1.122,-1.217 2.414,-1.802 3.863,-1.734 2.047,0.068 3.686,1.075 4.918,3.027 0.618,0.958 0.939,2.326 0.939,4.115 0,2.584 -1.171,5.147 -3.524,7.699 -1.85,1.748 -4.632,4.387 -8.325,7.89 -3.122,3.013 -5.319,5.714 -6.598,8.094 -1.401,2.68 -2.088,5.591 -2.088,8.739 0,5.654 1.898,9.938 5.699,12.856 2.347,1.747 5.259,2.633 8.734,2.633 3.339,0 6.196,-0.748 8.577,-2.238 1.857,-1.157 3.346,-2.782 4.496,-4.864 1.136,-2.081 1.823,-4.475 2.06,-7.188 l -8.991,-1.64 c -0.259,2.544 -0.979,4.536 -2.177,5.951 -0.857,1.035 -2.101,1.544 -3.72,1.544 -1.72,0 -3.027,-0.755 -3.918,-2.285 -0.728,-1.217 -1.095,-2.741 -1.095,-4.564 0,-2.842 1.224,-5.734 3.673,-8.68 0.925,-1.121 2.312,-2.441 4.176,-3.965 2.176,-1.822 3.612,-3.081 4.305,-3.822 2.32,-2.312 4.101,-4.597 5.367,-6.842 C -2.224,7.815 -1.742,6.85 -1.388,5.959 -0.489,3.736 -0.027,1.748 0,0"
         style="fill:#ffce00;fill-opacity:1;fill-rule:nonzero;stroke:none"
         id="path22"
         inkscape:connector-curvature="0" /></g><g
       id="g24"
       transform="matrix(0.25279421,0,0,0.29211088,12.735232,11.595965)"><path
         d="m 0,0 c -4.135,0 -7.638,1.436 -10.522,4.319 -2.864,2.863 -4.312,6.367 -4.312,10.461 v 48.054 h 9.175 V 14.883 c 0,-1.485 0.531,-2.756 1.592,-3.802 1.061,-1.035 2.326,-1.56 3.809,-1.56 1.489,0 2.761,0.525 3.808,1.56 1.027,1.046 1.552,2.317 1.552,3.802 v 47.951 h 9.767 V 14.78 c 0,-4.169 -1.455,-7.665 -4.36,-10.509 C 7.604,1.43 4.094,0 0,0"
         style="fill:#ffce00;fill-opacity:1;fill-rule:nonzero;stroke:none"
         id="path26"
         inkscape:connector-curvature="0" /></g><g
       id="g28"
       transform="matrix(0.23101076,0,0,0.2937173,20.683656,14.407831)"><path
         d="m 0,0 h 3.924 c 3.17,0 5.373,1.64 6.597,4.911 0.429,1.121 0.64,2.414 0.64,3.862 0,3.476 -0.666,5.999 -1.986,7.592 -1.184,1.455 -2.938,2.189 -5.251,2.189 H 0 Z m 0,27.525 h 3.924 c 2.911,0 4.863,1.422 5.849,4.258 0.361,1.063 0.545,2.374 0.545,3.925 0,2.578 -0.626,4.53 -1.877,5.857 -1.164,1.217 -2.667,1.822 -4.517,1.822 H 0 Z M -10.114,-9.271 V 52.917 H 3.924 c 3.701,0 7.033,-0.973 10.013,-2.925 2.542,-1.652 4.366,-4.21 5.454,-7.693 0.599,-1.85 0.899,-4.047 0.899,-6.591 0,-4.17 -1.11,-7.503 -3.32,-10.024 -0.925,-1.055 -2.027,-1.864 -3.279,-2.423 2.082,-0.796 3.851,-2.373 5.306,-4.707 0.966,-1.591 1.673,-3.645 2.136,-6.161 0.224,-1.28 0.354,-2.728 0.354,-4.307 0,-3.938 -0.749,-7.277 -2.238,-10.019 -1.164,-2.162 -2.795,-3.877 -4.911,-5.169 -2.38,-1.44 -4.748,-2.169 -7.095,-2.169 z"
         style="fill:#ffce00;fill-opacity:1;fill-rule:nonzero;stroke:none"
         id="path30"
         inkscape:connector-curvature="0" /></g><g
       id="g32"
       transform="matrix(0.24139665,0,0,0.29371717,29.564712,11.684772)"><path
         d="M 0,0 H -9.373 V 62.188 H 4.074 l 8.74,-44.681 8.38,44.681 H 34.117 V 0 H 24.744 V 39.074 L 16.61,0 H 9.08 L 0,38.972 Z"
         style="fill:#ffce00;fill-opacity:1;fill-rule:nonzero;stroke:none"
         id="path34"
         inkscape:connector-curvature="0" /></g><path
       d="m 42.082376,11.684772 h -2.433394 v 18.265692 h 2.433394 z"
       style="fill:#ffce00;fill-opacity:1;fill-rule:nonzero;stroke:none;stroke-width:0.27626339"
       id="path36"
       inkscape:connector-curvature="0" /><g
       id="g38"
       transform="matrix(0.2795295,0,0,0.29371727,46.933638,29.950464)"><path
         d="M 0,0 12.434,-41.804 V 0 h 9.372 V -62.188 H 11.747 l -12.903,39.817 v -39.817 h -9.372 V 0 Z"
         style="fill:#ffce00;fill-opacity:1;fill-rule:nonzero;stroke:none"
         id="path40"
         inkscape:connector-curvature="0" /></g><path
       d="m 57.278546,11.684772 h -2.433391 v 18.265692 h 2.433391 z"
       style="display:inline;fill:#ffce00;fill-opacity:1;fill-rule:nonzero;stroke:none;stroke-width:0.27627835"
       id="path42"
       inkscape:connector-curvature="0" /><g
       id="g44"
       transform="matrix(0.24229301,0,0,0.28657198,66.559418,16.363291)"><path
         d="m 0,0 c 0.061,-4.331 -1.062,-8.039 -3.374,-11.112 -1.523,-2.082 -3.673,-3.552 -6.44,-4.403 -1.497,-0.468 -3.231,-0.699 -5.21,-0.699 -3.667,0 -6.713,0.91 -9.129,2.727 -2.013,1.482 -3.604,3.516 -4.782,6.074 -1.175,2.557 -1.863,5.496 -2.053,8.809 l 8.925,0.638 c 0.393,-3.619 1.353,-6.251 2.876,-7.883 1.115,-1.217 2.415,-1.802 3.87,-1.734 2.048,0.068 3.679,1.075 4.912,3.027 0.618,0.958 0.937,2.326 0.937,4.115 0,2.584 -1.177,5.147 -3.523,7.699 -1.85,1.748 -4.631,4.387 -8.325,7.89 -3.121,3.013 -5.319,5.714 -6.605,8.094 -1.393,2.68 -2.081,5.591 -2.081,8.739 0,5.654 1.898,9.938 5.708,12.856 2.338,1.747 5.25,2.633 8.719,2.633 3.346,0 6.203,-0.748 8.583,-2.238 1.857,-1.157 3.347,-2.782 4.483,-4.864 1.15,-2.081 1.829,-4.475 2.068,-7.188 l -8.986,-1.64 c -0.258,2.544 -0.978,4.536 -2.177,5.951 -0.863,1.035 -2.101,1.544 -3.713,1.544 -1.727,0 -3.034,-0.755 -3.917,-2.285 -0.736,-1.217 -1.103,-2.741 -1.103,-4.564 0,-2.842 1.225,-5.734 3.673,-8.68 0.926,-1.121 2.313,-2.441 4.163,-3.965 2.183,-1.822 3.625,-3.081 4.313,-3.822 2.311,-2.312 4.106,-4.597 5.365,-6.842 C -2.23,7.815 -1.754,6.85 -1.388,5.959 -0.496,3.736 -0.026,1.748 0,0"
         style="fill:#ffce00;fill-opacity:1;fill-rule:nonzero;stroke:none"
         id="path46"
         inkscape:connector-curvature="0" /></g><g
       id="g48"
       transform="matrix(0.25662157,0,0,0.29397725,70.836261,27.1809)"><path
         d="m 0,0 h -9.971 v 9.421 h 29.26 V 0 H 9.371 V -52.712 H 0 Z"
         style="fill:#ffce00;fill-opacity:1;fill-rule:nonzero;stroke:none"
         id="path50"
         inkscape:connector-curvature="0" /></g><g
       id="g52"
       transform="matrix(0.23884303,0,0,0.29397735,82.236627,25.549617)"><path
         d="m 0,0 c 0,3.604 -1.788,5.407 -5.359,5.407 h -5.651 v -19.895 h 5.651 c 1.483,0 2.748,0.531 3.797,1.584 1.04,1.062 1.562,2.341 1.562,3.823 z m -5.61,14.97 c 5.223,0 9.067,-1.435 11.508,-4.306 C 8.048,8.147 9.123,4.645 9.123,0.136 v -9.021 c 0,-4.392 -1.674,-8.12 -5.007,-11.162 l 6.938,-27.116 H 0.918 l -5.678,23.405 h -0.85 -5.4 v -23.405 h -9.374 V 14.97 Z"
         style="fill:#ffce00;fill-opacity:1;fill-rule:nonzero;stroke:none"
         id="path54"
         inkscape:connector-curvature="0" /></g><g
       id="g56"
       transform="translate(269.05052,660.4655)"
       inkscape:groupmode="layer"><path
         d="m -182.45622,-648.78072 v 18.26569 h 7.50875 v -2.76917 h -4.87555 v -4.98233 h 3.56232 v -2.76711 h -3.56232 v -4.98027 h 4.87555 v -2.76681 z"
         style="fill:#ffce00;fill-opacity:1;fill-rule:nonzero;stroke:none;stroke-width:0.28748482"
         id="path58"
         inkscape:connector-curvature="0" /></g><g
       id="g60"
       transform="matrix(0.24222224,0,0,0.28773789,103.46414,16.335749)"><path
         d="m 0,0 c 0.074,-4.331 -1.056,-8.039 -3.368,-11.112 -1.524,-2.082 -3.665,-3.552 -6.446,-4.403 -1.485,-0.468 -3.225,-0.699 -5.211,-0.699 -3.674,0 -6.707,0.91 -9.128,2.727 -2.015,1.482 -3.606,3.516 -4.783,6.074 -1.175,2.557 -1.863,5.496 -2.06,8.809 l 8.925,0.638 c 0.407,-3.619 1.359,-6.251 2.882,-7.883 1.123,-1.217 2.421,-1.802 3.871,-1.734 2.047,0.068 3.686,1.075 4.904,3.027 0.632,0.958 0.944,2.326 0.944,4.115 0,2.584 -1.176,5.147 -3.515,7.699 -1.858,1.748 -4.625,4.387 -8.34,7.89 -3.109,3.013 -5.305,5.714 -6.584,8.094 -1.394,2.68 -2.08,5.591 -2.08,8.739 0,5.654 1.891,9.938 5.699,12.856 2.34,1.747 5.252,2.633 8.72,2.633 3.347,0 6.21,-0.748 8.584,-2.238 1.849,-1.157 3.353,-2.782 4.489,-4.864 1.136,-2.081 1.823,-4.475 2.054,-7.188 l -8.979,-1.64 c -0.266,2.544 -0.992,4.536 -2.176,5.951 -0.863,1.035 -2.101,1.544 -3.72,1.544 -1.728,0 -3.034,-0.755 -3.925,-2.285 -0.721,-1.217 -1.088,-2.741 -1.088,-4.564 0,-2.842 1.217,-5.734 3.673,-8.68 0.926,-1.121 2.312,-2.441 4.169,-3.965 2.184,-1.822 3.619,-3.081 4.319,-3.822 2.313,-2.312 4.094,-4.597 5.353,-6.842 C -2.226,7.815 -1.748,6.85 -1.382,5.959 -0.498,3.736 -0.022,1.748 0,0"
         style="fill:#ffce00;fill-opacity:1;fill-rule:nonzero;stroke:none"
         id="path62"
         inkscape:connector-curvature="0" /></g><g
       id="g64"
       transform="matrix(0.22716339,0,0,0.11774747,130.98639,-0.06893519)"><path
         d="m 0,0 h -492.795 l 0.51,89.728 H 0.788 Z"
         style="fill:#231f20;fill-opacity:1;fill-rule:nonzero;stroke:none"
         id="path66"
         inkscape:connector-curvature="0" /></g><g
       id="g68"
       transform="matrix(0.22713355,0,0,0.11774747,149.11278,10.799818)"><path
         d="m 0,0 h -652.635 c -2.156,0 -3.904,-1.414 -3.904,-3.157 0,-1.74 1.748,-3.148 3.904,-3.148 H 0 c 2.149,0 3.897,1.408 3.897,3.148 C 3.897,-1.414 2.149,0 0,0"
         style="fill:#231f20;fill-opacity:1;fill-rule:nonzero;stroke:none"
         id="path70"
         inkscape:connector-curvature="0" /></g><g
       id="g72"
       transform="matrix(0.09502035,0,0,0.11053063,116.65174,16.310846)"><path
         d="m 0,0 c 0.164,-11.291 -2.768,-20.929 -8.774,-28.935 -3.972,-5.42 -9.563,-9.263 -16.8,-11.494 -3.87,-1.204 -8.393,-1.809 -13.563,-1.809 -9.556,0 -17.48,2.366 -23.764,7.107 -5.252,3.877 -9.401,9.141 -12.461,15.815 -3.047,6.671 -4.843,14.316 -5.36,22.928 l 23.248,1.673 c 1.035,-9.434 3.537,-16.263 7.496,-20.5 2.925,-3.204 6.285,-4.721 10.08,-4.551 5.332,0.177 9.59,2.803 12.78,7.89 1.626,2.49 2.442,6.074 2.442,10.72 0,6.726 -3.054,13.406 -9.156,20.038 -4.828,4.563 -12.065,11.42 -21.696,20.554 -8.102,7.842 -13.828,14.861 -17.181,21.079 -3.619,6.978 -5.429,14.555 -5.429,22.745 0,14.732 4.946,25.886 14.849,33.477 6.121,4.564 13.691,6.849 22.731,6.849 8.699,0 16.154,-1.938 22.35,-5.808 4.816,-3.021 8.727,-7.237 11.686,-12.665 2.965,-5.421 4.754,-11.658 5.359,-18.732 L -24.547,82.13 c -0.68,6.632 -2.571,11.787 -5.68,15.495 -2.237,2.666 -5.468,4.005 -9.671,4.005 -4.483,0 -7.891,-1.979 -10.216,-5.944 -1.898,-3.177 -2.844,-7.148 -2.844,-11.876 0,-7.414 3.184,-14.943 9.556,-22.602 2.416,-2.924 6.034,-6.373 10.857,-10.338 5.685,-4.734 9.42,-8.04 11.236,-9.93 6.033,-6.041 10.672,-11.979 13.95,-17.828 1.55,-2.761 2.789,-5.292 3.74,-7.625 C -1.292,9.719 -0.095,4.564 0,0"
         style="fill:#ffce00;fill-opacity:1;fill-rule:nonzero;stroke:none"
         id="path74"
         inkscape:connector-curvature="0" /></g><g
       id="g76"
       transform="matrix(0.09483572,0,0,0.11287655,122.82092,25.76759)"><path
         d="M 0,0 -9.033,-63.799 H 9.039 Z m -12.821,-87.571 -5.931,-37.192 h -25.412 l 27.507,161.82 h 33.58 l 27.124,-161.82 H 18.371 l -5.7,37.192 z"
         style="fill:#ffce00;fill-opacity:1;fill-rule:nonzero;stroke:none"
         id="path78"
         inkscape:connector-curvature="0" /></g><g
       id="g80"
       transform="matrix(0.0946818,0,0,0.11288061,131.25628,11.684772)"><path
         d="M 0,0 H -24.405 V 161.948 H 10.617 L 33.368,45.605 55.216,161.948 H 88.869 V 0 H 64.445 V 101.759 L 43.271,0 H 23.643 L 0,101.508 Z"
         style="fill:#ffce00;fill-opacity:1;fill-rule:nonzero;stroke:none"
         id="path82"
         inkscape:connector-curvature="0" /></g><g
       id="g84"
       transform="matrix(0.09483572,0,0,0.11287655,145.80959,25.76759)"><path
         d="M 0,0 -9.032,-63.799 H 9.033 Z m -12.828,-87.571 -5.918,-37.192 H -44.17 l 27.506,161.82 h 33.587 l 27.119,-161.82 H 18.378 l -5.714,37.192 z"
         style="fill:#ffce00;fill-opacity:1;fill-rule:nonzero;stroke:none"
         id="path86"
         inkscape:connector-curvature="0" /></g><g
       id="g88"
       transform="matrix(0.22716339,0,0,0.11774747,35.559999,2.6308629)"><path
         d="m 0,0 c -3.176,0 -5.87,1.115 -8.087,3.332 -2.224,2.218 -3.333,4.904 -3.333,8.054 v 26.043 c 0,3.171 1.116,5.877 3.347,8.088 2.23,2.216 4.924,3.325 8.073,3.325 3.176,0 5.856,-1.109 8.067,-3.346 2.21,-2.238 3.312,-4.918 3.312,-8.067 V 31.98 H 3.917 v 5.592 c 0,1.15 -0.401,2.121 -1.217,2.938 -0.817,0.817 -1.789,1.211 -2.924,1.211 -1.15,0 -2.122,-0.394 -2.919,-1.211 -0.795,-0.817 -1.196,-1.788 -1.196,-2.938 V 11.46 c 0,-1.142 0.401,-2.115 1.196,-2.911 0.797,-0.802 1.769,-1.203 2.919,-1.203 1.135,0 2.107,0.401 2.924,1.203 0.816,0.796 1.217,1.769 1.217,2.911 v 6.584 h 7.462 V 11.386 C 11.379,8.217 10.264,5.522 8.033,3.319 5.795,1.102 3.122,0 0,0"
         style="fill:#ffffff;fill-opacity:1;fill-rule:nonzero;stroke:none"
         id="path90"
         inkscape:connector-curvature="0" /></g><g
       id="g92"
       transform="matrix(0.22716339,0,0,0.11774747,42.936265,7.0645581)"><path
         d="M 0,0 C 0,1.149 -0.394,2.107 -1.198,2.917 -1.993,3.713 -2.973,4.108 -4.108,4.108 -5.251,4.108 -6.231,3.713 -7.04,2.917 -7.856,2.107 -8.264,1.149 -8.264,0 v -26.111 c 0,-1.151 0.408,-2.117 1.224,-2.912 0.809,-0.81 1.789,-1.205 2.932,-1.205 1.135,0 2.115,0.395 2.91,1.205 0.804,0.795 1.198,1.761 1.198,2.912 z m -3.917,11.271 c 3.169,0 5.869,-1.124 8.086,-3.355 2.218,-2.238 3.333,-4.923 3.333,-8.067 v -26.043 c 0,-3.176 -1.115,-5.869 -3.353,-8.086 -2.238,-2.219 -4.918,-3.334 -8.066,-3.334 -3.177,0 -5.871,1.115 -8.074,3.346 -2.204,2.239 -3.313,4.924 -3.313,8.074 v 26.043 c 0,3.171 1.116,5.871 3.353,8.088 2.232,2.224 4.911,3.334 8.034,3.334"
         style="fill:#ffffff;fill-opacity:1;fill-rule:nonzero;stroke:none"
         id="path94"
         inkscape:connector-curvature="0" /></g><g
       id="g96"
       transform="matrix(0.22716339,0,0,0.11774747,47.911463,8.323449)"><path
         d="M 0,0 9.542,-32.077 V 0 h 7.197 V -47.734 H 9.012 l -9.897,30.566 V -47.734 H -8.081 V 0 Z"
         style="fill:#ffffff;fill-opacity:1;fill-rule:nonzero;stroke:none"
         id="path98"
         inkscape:connector-curvature="0" /></g><g
       id="g100"
       transform="matrix(0.22716339,0,0,0.11774747,58.485987,4.1010945)"><path
         d="m 0,0 c 0.048,-3.318 -0.81,-6.161 -2.584,-8.521 -1.17,-1.606 -2.823,-2.727 -4.952,-3.387 -1.143,-0.361 -2.469,-0.538 -3.992,-0.538 -2.824,0 -5.156,0.694 -7.013,2.09 -1.544,1.147 -2.768,2.698 -3.667,4.665 -0.903,1.972 -1.428,4.217 -1.584,6.767 l 6.85,0.489 c 0.298,-2.782 1.041,-4.794 2.217,-6.053 0.856,-0.939 1.85,-1.388 2.965,-1.333 1.578,0.047 2.83,0.823 3.768,2.32 0.477,0.74 0.721,1.795 0.721,3.169 0,1.978 -0.897,3.944 -2.7,5.896 -1.422,1.355 -3.558,3.382 -6.401,6.068 -2.379,2.306 -4.066,4.381 -5.06,6.211 -1.061,2.06 -1.598,4.292 -1.598,6.706 0,4.346 1.455,7.63 4.373,9.869 1.809,1.347 4.04,2.02 6.707,2.02 2.564,0 4.761,-0.579 6.584,-1.714 1.421,-0.891 2.571,-2.136 3.441,-3.735 0.878,-1.592 1.408,-3.434 1.585,-5.516 l -6.89,-1.259 c -0.204,1.961 -0.762,3.483 -1.68,4.572 -0.659,0.781 -1.611,1.176 -2.85,1.176 -1.319,0 -2.326,-0.584 -3.006,-1.754 -0.565,-0.933 -0.843,-2.102 -0.843,-3.496 0,-2.184 0.938,-4.407 2.816,-6.666 0.713,-0.857 1.781,-1.87 3.203,-3.041 1.673,-1.401 2.782,-2.372 3.312,-2.937 1.776,-1.769 3.15,-3.517 4.109,-5.252 0.462,-0.815 0.83,-1.557 1.108,-2.245 C -0.374,2.87 -0.02,1.348 0,0"
         style="fill:#ffffff;fill-opacity:1;fill-rule:nonzero;stroke:none"
         id="path102"
         inkscape:connector-curvature="0" /></g><g
       id="g104"
       transform="matrix(0.22716339,0,0,0.11774747,61.349154,7.4680479)"><path
         d="M 0,0 H -7.652 V 7.237 H 14.813 V 0 H 7.196 V -40.47 H 0 Z"
         style="fill:#ffffff;fill-opacity:1;fill-rule:nonzero;stroke:none"
         id="path106"
         inkscape:connector-curvature="0" /></g><g
       id="g108"
       transform="matrix(0.22716339,0,0,0.11774747,69.581259,6.9668161)"><path
         d="m 0,0 c 0,2.761 -1.374,4.142 -4.108,4.142 h -4.339 v -15.263 h 4.339 c 1.143,0 2.109,0.401 2.911,1.211 C -0.394,-9.094 0,-8.115 0,-6.979 Z m -4.298,11.494 c 4.012,0 6.951,-1.108 8.828,-3.318 C 6.177,6.243 7.007,3.557 7.007,0.108 V -6.83 c 0,-3.366 -1.279,-6.223 -3.843,-8.562 L 8.489,-36.213 H 0.708 l -4.36,17.971 h -0.646 -4.149 v -17.971 h -7.197 v 47.707 z"
         style="fill:#ffffff;fill-opacity:1;fill-rule:nonzero;stroke:none"
         id="path110"
         inkscape:connector-curvature="0" /></g><g
       id="g112"
       transform="matrix(0.22716339,0,0,0.11774747,75.22109,2.6395995)"><path
         d="m 0,0 c -3.177,0 -5.864,1.109 -8.074,3.313 -2.211,2.218 -3.312,4.89 -3.312,8.04 V 48.244 H -4.34 V 11.42 c 0,-1.135 0.401,-2.114 1.217,-2.91 0.81,-0.797 1.789,-1.198 2.933,-1.198 1.141,0 2.107,0.401 2.91,1.198 0.803,0.796 1.197,1.775 1.197,2.91 v 36.824 h 7.496 V 11.353 C 11.413,8.155 10.296,5.462 8.067,3.278 5.835,1.096 3.142,0 0,0"
         style="fill:#ffffff;fill-opacity:1;fill-rule:nonzero;stroke:none"
         id="path114"
         inkscape:connector-curvature="0" /></g><path
       d="m 80.902107,2.7027896 h -1.634442 v 5.6173791 h 1.634442 z"
       style="fill:#ffffff;fill-opacity:1;fill-rule:nonzero;stroke:none;stroke-width:0.1635479"
       id="path116"
       inkscape:connector-curvature="0" /><g
       id="g118"
       transform="matrix(0.22716339,0,0,0.11774747,83.997053,2.702837)"><path
         d="M 0,0 H -7.197 V 47.734 H 3.128 l 6.708,-34.287 6.44,34.287 h 9.923 V 0 H 18.997 V 30.002 L 12.759,0 H 6.972 L 0,29.921 Z"
         style="fill:#ffffff;fill-opacity:1;fill-rule:nonzero;stroke:none"
         id="path120"
         inkscape:connector-curvature="0" /></g><g
       id="g122"
       transform="matrix(0.22716339,0,0,0.11774747,97.773026,2.702837)"><path
         d="m 0,0 h -19.603 v 47.707 h 7.197 V 7.156 H 0 Z"
         style="fill:#ffffff;fill-opacity:1;fill-rule:nonzero;stroke:none"
         id="path124"
         inkscape:connector-curvature="0" /></g><g
       id="g126"
       transform="matrix(0.22716339,0,0,0.11774747,103.3541,2.702837)"><path
         d="m 0,0 h -19.616 v 47.707 h 7.196 V 7.156 H 0 Z"
         style="fill:#ffffff;fill-opacity:1;fill-rule:nonzero;stroke:none"
         id="path128"
         inkscape:connector-curvature="0" /></g><g
       id="g130"
       transform="matrix(0.22716339,0,0,0.11774747,107.43463,7.0324743)"><path
         d="M 0,0 -2.666,-18.8 H 2.66 Z m -3.781,-25.807 -1.756,-10.964 h -7.488 l 8.107,47.708 h 9.897 l 7.992,-47.708 H 5.407 l -1.674,10.964 z"
         style="fill:#ffffff;fill-opacity:1;fill-rule:nonzero;stroke:none"
         id="path132"
         inkscape:connector-curvature="0" /></g><g
       id="g134"
       transform="matrix(0.22716339,0,0,0.11774747,115.31299,6.9668161)"><path
         d="m 0,0 c 0,2.761 -1.374,4.142 -4.115,4.142 h -4.334 v -15.263 h 4.334 c 1.142,0 2.122,0.401 2.917,1.211 C -0.396,-9.094 0,-8.115 0,-6.979 Z m -4.298,11.494 c 4.012,0 6.944,-1.108 8.828,-3.318 C 6.184,6.243 7.005,3.557 7.005,0.108 V -6.83 c 0,-3.366 -1.285,-6.223 -3.849,-8.562 L 8.489,-36.213 H 0.708 l -4.361,17.971 h -0.645 -4.151 v -17.971 h -7.209 v 47.707 z"
         style="fill:#ffffff;fill-opacity:1;fill-rule:nonzero;stroke:none"
         id="path136"
         inkscape:connector-curvature="0" /></g></g></svg>