<?xml version="1.0" encoding="UTF-8" standalone="no"?>
<!-- Created with Inkscape (http://www.inkscape.org/) -->

<svg
   xmlns:dc="http://purl.org/dc/elements/1.1/"
   xmlns:cc="http://creativecommons.org/ns#"
   xmlns:rdf="http://www.w3.org/1999/02/22-rdf-syntax-ns#"
   xmlns:svg="http://www.w3.org/2000/svg"
   xmlns="http://www.w3.org/2000/svg"
   xmlns:sodipodi="http://sodipodi.sourceforge.net/DTD/sodipodi-0.dtd"
   xmlns:inkscape="http://www.inkscape.org/namespaces/inkscape"
   width="297mm"
   height="210mm"
   viewBox="0 0 1052.3622 744.09448"
   id="svg2"
   version="1.1"
   inkscape:version="0.92.4 (5da689c313, 2019-01-14)"
   sodipodi:docname="Logo  equipación Vista alegre.svg">
  <defs
     id="defs4">
    <clipPath
       id="clipPath4150"
       clipPathUnits="userSpaceOnUse">
      <path
         inkscape:connector-curvature="0"
         id="path4152"
         d="m 0,841.89 595.28,0 L 595.28,0 0,0 0,841.89 Z" />
    </clipPath>
    <clipPath
       id="clipPath4158"
       clipPathUnits="userSpaceOnUse">
      <path
         inkscape:connector-curvature="0"
         id="path4160"
         d="m 136.844,181.595 323.079,0 0,-39.69 -323.079,0 0,39.69 z" />
    </clipPath>
    <clipPath
       id="clipPath4239"
       clipPathUnits="userSpaceOnUse">
      <path
         inkscape:connector-curvature="0"
         id="path4241"
         d="m 0,595.28 841.89,0 L 841.89,0 0,0 0,595.28 Z" />
    </clipPath>
  </defs>
  <sodipodi:namedview
     id="base"
     pagecolor="#ffffff"
     bordercolor="#666666"
     borderopacity="1.0"
     inkscape:pageopacity="0.0"
     inkscape:pageshadow="2"
     inkscape:zoom="0.49497474"
     inkscape:cx="381.50993"
     inkscape:cy="324.67427"
     inkscape:document-units="px"
     inkscape:current-layer="layer1"
     showgrid="false"
     showguides="true"
     inkscape:guide-bbox="true"
     inkscape:window-width="1600"
     inkscape:window-height="837"
     inkscape:window-x="-8"
     inkscape:window-y="-8"
     inkscape:window-maximized="1">
    <sodipodi:guide
       position="662.66009,865.71428"
       orientation="0,1"
       id="guide4467"
       inkscape:locked="false" />
    <sodipodi:guide
       position="775.79717,865.71428"
       orientation="0,1"
       id="guide4469"
       inkscape:locked="false" />
    <sodipodi:guide
       position="135.36045,638.41642"
       orientation="1,0"
       id="guide4297"
       inkscape:locked="false" />
    <sodipodi:guide
       position="654.57887,359.61431"
       orientation="1,0"
       id="guide4299"
       inkscape:locked="false" />
    <sodipodi:guide
       position="899.66714,770.87264"
       orientation="1,0"
       id="guide1149"
       inkscape:locked="false" />
  </sodipodi:namedview>
  <metadata
     id="metadata7">
    <rdf:RDF>
      <cc:Work
         rdf:about="">
        <dc:format>image/svg+xml</dc:format>
        <dc:type
           rdf:resource="http://purl.org/dc/dcmitype/StillImage" />
        <dc:title></dc:title>
      </cc:Work>
    </rdf:RDF>
  </metadata>
  <g
     inkscape:label="Capa 1"
     inkscape:groupmode="layer"
     id="layer1"
     transform="translate(0,-308.26772)">
    <g
       id="g1183">
      <g
         style="fill:#ffcc00"
         transform="matrix(1.821625,0,0,-1.9521083,184.86218,502.86281)"
         id="g4243">
        <path
           inkscape:connector-curvature="0"
           id="path4245"
           style="fill:#ffcc00;fill-opacity:1;fill-rule:nonzero;stroke:none"
           d="m 0,0 c 0.061,-4.331 -1.061,-8.039 -3.374,-11.112 -1.516,-2.082 -3.666,-3.552 -6.434,-4.403 -1.496,-0.468 -3.231,-0.699 -5.216,-0.699 -3.673,0 -6.714,0.91 -9.129,2.727 -2.02,1.482 -3.604,3.516 -4.782,6.074 -1.176,2.557 -1.863,5.496 -2.054,8.809 l 8.918,0.638 c 0.401,-3.619 1.354,-6.251 2.884,-7.883 1.122,-1.217 2.414,-1.802 3.863,-1.734 2.047,0.068 3.686,1.075 4.918,3.027 0.618,0.958 0.939,2.326 0.939,4.115 0,2.584 -1.171,5.147 -3.524,7.699 -1.85,1.748 -4.632,4.387 -8.325,7.89 -3.122,3.013 -5.319,5.714 -6.598,8.094 -1.401,2.68 -2.088,5.591 -2.088,8.739 0,5.654 1.898,9.938 5.699,12.856 2.347,1.747 5.259,2.633 8.734,2.633 3.339,0 6.196,-0.748 8.577,-2.238 1.857,-1.157 3.346,-2.782 4.496,-4.864 1.136,-2.081 1.823,-4.475 2.06,-7.188 l -8.991,-1.64 c -0.259,2.544 -0.979,4.536 -2.177,5.951 -0.857,1.035 -2.101,1.544 -3.72,1.544 -1.72,0 -3.027,-0.755 -3.918,-2.285 -0.728,-1.217 -1.095,-2.741 -1.095,-4.564 0,-2.842 1.224,-5.734 3.673,-8.68 0.925,-1.121 2.312,-2.441 4.176,-3.965 2.176,-1.822 3.612,-3.081 4.305,-3.822 2.32,-2.312 4.101,-4.597 5.367,-6.842 C -2.224,7.815 -1.742,6.85 -1.388,5.959 -0.489,3.736 -0.027,1.748 0,0" />
      </g>
      <g
         style="fill:#ffcc00"
         transform="matrix(1.821625,0,0,-1.9521083,225.97216,534.42259)"
         id="g4247">
        <path
           inkscape:connector-curvature="0"
           id="path4249"
           style="fill:#ffcc00;fill-opacity:1;fill-rule:nonzero;stroke:none"
           d="m 0,0 c -4.135,0 -7.638,1.436 -10.522,4.319 -2.864,2.863 -4.312,6.367 -4.312,10.461 v 48.054 h 9.175 V 14.883 c 0,-1.485 0.531,-2.756 1.592,-3.802 1.061,-1.035 2.326,-1.56 3.809,-1.56 1.489,0 2.761,0.525 3.808,1.56 1.027,1.046 1.552,2.317 1.552,3.802 v 47.951 h 9.767 V 14.78 c 0,-4.169 -1.455,-7.665 -4.36,-10.509 C 7.604,1.43 4.094,0 0,0" />
      </g>
      <g
         style="fill:#ffcc00"
         transform="matrix(1.821625,0,0,-1.9521083,286.67207,514.95676)"
         id="g4251">
        <path
           inkscape:connector-curvature="0"
           id="path4253"
           style="fill:#ffcc00;fill-opacity:1;fill-rule:nonzero;stroke:none"
           d="m 0,0 h 3.924 c 3.17,0 5.373,1.64 6.597,4.911 0.429,1.121 0.64,2.414 0.64,3.862 0,3.476 -0.666,5.999 -1.986,7.592 -1.184,1.455 -2.938,2.189 -5.251,2.189 H 0 Z m 0,27.525 h 3.924 c 2.911,0 4.863,1.422 5.849,4.258 0.361,1.063 0.545,2.374 0.545,3.925 0,2.578 -0.626,4.53 -1.877,5.857 -1.164,1.217 -2.667,1.822 -4.517,1.822 H 0 Z M -10.114,-9.271 V 52.917 H 3.924 c 3.701,0 7.033,-0.973 10.013,-2.925 2.542,-1.652 4.366,-4.21 5.454,-7.693 0.599,-1.85 0.899,-4.047 0.899,-6.591 0,-4.17 -1.11,-7.503 -3.32,-10.024 -0.925,-1.055 -2.027,-1.864 -3.279,-2.423 2.082,-0.796 3.851,-2.373 5.306,-4.707 0.966,-1.591 1.673,-3.645 2.136,-6.161 0.224,-1.28 0.354,-2.728 0.354,-4.307 0,-3.938 -0.749,-7.277 -2.238,-10.019 -1.164,-2.162 -2.795,-3.877 -4.911,-5.169 -2.38,-1.44 -4.748,-2.169 -7.095,-2.169 z" />
      </g>
      <g
         style="fill:#ffcc00"
         transform="matrix(1.821625,0,0,-1.9521083,357.60521,533.05376)"
         id="g4255">
        <path
           inkscape:connector-curvature="0"
           id="path4257"
           style="fill:#ffcc00;fill-opacity:1;fill-rule:nonzero;stroke:none"
           d="M 0,0 H -9.373 V 62.188 H 4.074 l 8.74,-44.681 8.38,44.681 H 34.117 V 0 H 24.744 V 39.074 L 16.61,0 H 9.08 L 0,38.972 Z" />
      </g>
      <path
         inkscape:connector-curvature="0"
         id="path4259"
         style="fill:#ffcc00;fill-opacity:1;fill-rule:nonzero;stroke:none;stroke-width:1.40262556"
         d="M 452.09121,533.05392 H 435.01714 V 411.76366 h 17.07407 z" />
      <g
         style="fill:#ffcc00"
         transform="matrix(1.821625,0,0,-1.9521083,486.53587,411.65707)"
         id="g4261">
        <path
           inkscape:connector-curvature="0"
           id="path4263"
           style="fill:#ffcc00;fill-opacity:1;fill-rule:nonzero;stroke:none"
           d="M 0,0 12.434,-41.804 V 0 h 9.372 V -62.188 H 11.747 l -12.903,39.817 v -39.817 h -9.372 V 0 Z" />
      </g>
      <path
         inkscape:connector-curvature="0"
         id="path4265"
         style="fill:#ffcc00;fill-opacity:1;fill-rule:nonzero;stroke:none;stroke-width:1.40262556"
         d="M 558.61989,533.05392 H 541.5476 V 411.76366 h 17.07229 z" />
      <g
         style="fill:#ffcc00"
         transform="matrix(1.821625,0,0,-1.9521083,629.34311,502.86281)"
         id="g4267">
        <path
           inkscape:connector-curvature="0"
           id="path4269"
           style="fill:#ffcc00;fill-opacity:1;fill-rule:nonzero;stroke:none"
           d="m 0,0 c 0.061,-4.331 -1.062,-8.039 -3.374,-11.112 -1.523,-2.082 -3.673,-3.552 -6.44,-4.403 -1.497,-0.468 -3.231,-0.699 -5.21,-0.699 -3.667,0 -6.713,0.91 -9.129,2.727 -2.013,1.482 -3.604,3.516 -4.782,6.074 -1.175,2.557 -1.863,5.496 -2.053,8.809 l 8.925,0.638 c 0.393,-3.619 1.353,-6.251 2.876,-7.883 1.115,-1.217 2.415,-1.802 3.87,-1.734 2.048,0.068 3.679,1.075 4.912,3.027 0.618,0.958 0.937,2.326 0.937,4.115 0,2.584 -1.177,5.147 -3.523,7.699 -1.85,1.748 -4.631,4.387 -8.325,7.89 -3.121,3.013 -5.319,5.714 -6.605,8.094 -1.393,2.68 -2.081,5.591 -2.081,8.739 0,5.654 1.898,9.938 5.708,12.856 2.338,1.747 5.25,2.633 8.719,2.633 3.346,0 6.203,-0.748 8.583,-2.238 1.857,-1.157 3.347,-2.782 4.483,-4.864 1.15,-2.081 1.829,-4.475 2.068,-7.188 l -8.986,-1.64 c -0.258,2.544 -0.978,4.536 -2.177,5.951 -0.863,1.035 -2.101,1.544 -3.713,1.544 -1.727,0 -3.034,-0.755 -3.917,-2.285 -0.736,-1.217 -1.103,-2.741 -1.103,-4.564 0,-2.842 1.225,-5.734 3.673,-8.68 0.926,-1.121 2.313,-2.441 4.163,-3.965 2.183,-1.822 3.625,-3.081 4.313,-3.822 2.311,-2.312 4.106,-4.597 5.365,-6.842 C -2.23,7.815 -1.754,6.85 -1.388,5.959 -0.496,3.736 -0.026,1.748 0,0" />
      </g>
      <g
         style="fill:#ffcc00"
         transform="matrix(1.821625,0,0,-1.9521083,659.25394,430.15443)"
         id="g4271">
        <path
           inkscape:connector-curvature="0"
           id="path4273"
           style="fill:#ffcc00;fill-opacity:1;fill-rule:nonzero;stroke:none"
           d="m 0,0 h -9.971 v 9.421 h 29.26 V 0 H 9.371 V -52.712 H 0 Z" />
      </g>
      <g
         style="fill:#ffcc00"
         transform="matrix(1.821625,0,0,-1.9521083,745.25095,440.9863)"
         id="g4275">
        <path
           inkscape:connector-curvature="0"
           id="path4277"
           style="fill:#ffcc00;fill-opacity:1;fill-rule:nonzero;stroke:none"
           d="m 0,0 c 0,3.604 -1.788,5.407 -5.359,5.407 h -5.651 v -19.895 h 5.651 c 1.483,0 2.748,0.531 3.797,1.584 1.04,1.062 1.562,2.341 1.562,3.823 z m -5.61,14.97 c 5.223,0 9.067,-1.435 11.508,-4.306 C 8.048,8.147 9.123,4.645 9.123,0.136 v -9.021 c 0,-4.392 -1.674,-8.12 -5.007,-11.162 l 6.938,-27.116 H 0.918 l -5.678,23.405 h -0.85 -5.4 v -23.405 h -9.374 V 14.97 Z" />
      </g>
      <g
         style="fill:#ffcc00"
         transform="matrix(1.821625,0,0,-1.9521083,780.03085,533.05376)"
         id="g4279">
        <path
           inkscape:connector-curvature="0"
           id="path4281"
           style="fill:#ffcc00;fill-opacity:1;fill-rule:nonzero;stroke:none"
           d="M 0,0 V 62.188 H 26.685 V 52.76 H 9.358 V 35.797 h 12.66 V 26.376 H 9.358 V 9.42 H 26.685 V 0 Z" />
      </g>
      <g
         style="fill:#ffcc00"
         transform="matrix(1.821625,0,0,-1.9521083,896.83545,502.86281)"
         id="g4283">
        <path
           inkscape:connector-curvature="0"
           id="path4285"
           style="fill:#ffcc00;fill-opacity:1;fill-rule:nonzero;stroke:none"
           d="m 0,0 c 0.074,-4.331 -1.056,-8.039 -3.368,-11.112 -1.524,-2.082 -3.665,-3.552 -6.446,-4.403 -1.485,-0.468 -3.225,-0.699 -5.211,-0.699 -3.674,0 -6.707,0.91 -9.128,2.727 -2.015,1.482 -3.606,3.516 -4.783,6.074 -1.175,2.557 -1.863,5.496 -2.06,8.809 l 8.925,0.638 c 0.407,-3.619 1.359,-6.251 2.882,-7.883 1.123,-1.217 2.421,-1.802 3.871,-1.734 2.047,0.068 3.686,1.075 4.904,3.027 0.632,0.958 0.944,2.326 0.944,4.115 0,2.584 -1.176,5.147 -3.515,7.699 -1.858,1.748 -4.625,4.387 -8.34,7.89 -3.109,3.013 -5.305,5.714 -6.584,8.094 -1.394,2.68 -2.08,5.591 -2.08,8.739 0,5.654 1.891,9.938 5.699,12.856 2.34,1.747 5.252,2.633 8.72,2.633 3.347,0 6.21,-0.748 8.584,-2.238 1.849,-1.157 3.353,-2.782 4.489,-4.864 1.136,-2.081 1.823,-4.475 2.054,-7.188 l -8.979,-1.64 c -0.266,2.544 -0.992,4.536 -2.176,5.951 -0.863,1.035 -2.101,1.544 -3.72,1.544 -1.728,0 -3.034,-0.755 -3.925,-2.285 -0.721,-1.217 -1.088,-2.741 -1.088,-4.564 0,-2.842 1.217,-5.734 3.673,-8.68 0.926,-1.121 2.312,-2.441 4.169,-3.965 2.184,-1.822 3.619,-3.081 4.319,-3.822 2.313,-2.312 4.094,-4.597 5.353,-6.842 C -2.226,7.815 -1.748,6.85 -1.382,5.959 -0.498,3.736 -0.022,1.748 0,0" />
      </g>
      <g
         style="fill:#ffcc00"
         transform="matrix(1.7934851,0,0,-1.7821514,274.96653,802.27739)"
         id="g4295">
        <path
           inkscape:connector-curvature="0"
           id="path4297"
           style="fill:#ffcc00;fill-opacity:1;fill-rule:nonzero;stroke:none"
           d="m 0,0 c 0.164,-11.291 -2.768,-20.929 -8.774,-28.935 -3.972,-5.42 -9.563,-9.263 -16.8,-11.494 -3.87,-1.204 -8.393,-1.809 -13.563,-1.809 -9.556,0 -17.48,2.366 -23.764,7.107 -5.252,3.877 -9.401,9.141 -12.461,15.815 -3.047,6.671 -4.843,14.316 -5.36,22.928 l 23.248,1.673 c 1.035,-9.434 3.537,-16.263 7.496,-20.5 2.925,-3.204 6.285,-4.721 10.08,-4.551 5.332,0.177 9.59,2.803 12.78,7.89 1.626,2.49 2.442,6.074 2.442,10.72 0,6.726 -3.054,13.406 -9.156,20.038 -4.828,4.563 -12.065,11.42 -21.696,20.554 -8.102,7.842 -13.828,14.861 -17.181,21.079 -3.619,6.978 -5.429,14.555 -5.429,22.745 0,14.732 4.946,25.886 14.849,33.477 6.121,4.564 13.691,6.849 22.731,6.849 8.699,0 16.154,-1.938 22.35,-5.808 4.816,-3.021 8.727,-7.237 11.686,-12.665 2.965,-5.421 4.754,-11.658 5.359,-18.732 L -24.547,82.13 c -0.68,6.632 -2.571,11.787 -5.68,15.495 -2.237,2.666 -5.468,4.005 -9.671,4.005 -4.483,0 -7.891,-1.979 -10.216,-5.944 -1.898,-3.177 -2.844,-7.148 -2.844,-11.876 0,-7.414 3.184,-14.943 9.556,-22.602 2.416,-2.924 6.034,-6.373 10.857,-10.338 5.685,-4.734 9.42,-8.04 11.236,-9.93 6.033,-6.041 10.672,-11.979 13.95,-17.828 1.55,-2.761 2.789,-5.292 3.74,-7.625 C -1.292,9.719 -0.095,4.564 0,0" />
      </g>
      <g
         style="fill:#ffcc00"
         transform="matrix(1.7934851,0,0,-1.7821514,379.40042,651.75183)"
         id="g4299">
        <path
           inkscape:connector-curvature="0"
           id="path4301"
           style="fill:#ffcc00;fill-opacity:1;fill-rule:nonzero;stroke:none"
           d="M 0,0 -9.033,-63.799 H 9.039 Z m -12.821,-87.571 -5.931,-37.192 h -25.412 l 27.507,161.82 h 33.58 l 27.124,-161.82 H 18.371 l -5.7,37.192 z" />
      </g>
      <g
         style="fill:#ffcc00"
         transform="matrix(1.7934851,0,0,-1.7821514,538.99772,874.09784)"
         id="g4303">
        <path
           inkscape:connector-curvature="0"
           id="path4305"
           style="fill:#ffcc00;fill-opacity:1;fill-rule:nonzero;stroke:none"
           d="M 0,0 H -24.405 V 161.948 H 10.617 L 33.368,45.605 55.216,161.948 H 88.869 V 0 H 64.445 V 101.759 L 43.271,0 H 23.643 L 0,101.508 Z" />
      </g>
      <g
         style="fill:#ffcc00"
         transform="matrix(1.7934851,0,0,-1.7821514,814.15072,651.75183)"
         id="g4307">
        <path
           inkscape:connector-curvature="0"
           id="path4309"
           style="fill:#ffcc00;fill-opacity:1;fill-rule:nonzero;stroke:none"
           d="M 0,0 -9.032,-63.799 H 9.033 Z m -12.828,-87.571 -5.918,-37.192 H -44.17 l 27.506,161.82 h 33.587 l 27.119,-161.82 H 18.378 l -5.714,37.192 z" />
      </g>
      <text
         transform="scale(0.8132394,1.2296502)"
         id="text4293"
         y="804.65814"
         x="159.22079"
         style="font-style:normal;font-variant:normal;font-weight:normal;font-stretch:normal;font-size:16.4175415px;line-height:0%;font-family:'Arial Narrow';-inkscape-font-specification:'Arial Narrow';letter-spacing:0px;word-spacing:0px;fill:#231f20;fill-opacity:1;stroke:none;stroke-width:1.3681283px;stroke-linecap:butt;stroke-linejoin:miter;stroke-opacity:1"
         xml:space="preserve"><tspan
           style="font-style:normal;font-variant:normal;font-weight:bold;font-stretch:normal;font-size:82.08769989px;line-height:1.25;font-family:'Arial Narrow';-inkscape-font-specification:'Arial Narrow Bold';fill:#231f20;fill-opacity:1;stroke-width:1.3681283px"
           y="804.65814"
           x="159.22079"
           id="tspan4295"
           sodipodi:role="line">Materials per a la construcció </tspan></text>
    </g>
  </g>
</svg>
