<?xml version="1.0" encoding="UTF-8" standalone="no"?>
<!-- Created with Inkscape (http://www.inkscape.org/) -->

<svg
   xmlns:dc="http://purl.org/dc/elements/1.1/"
   xmlns:cc="http://creativecommons.org/ns#"
   xmlns:rdf="http://www.w3.org/1999/02/22-rdf-syntax-ns#"
   xmlns:svg="http://www.w3.org/2000/svg"
   xmlns="http://www.w3.org/2000/svg"
   xmlns:sodipodi="http://sodipodi.sourceforge.net/DTD/sodipodi-0.dtd"
   xmlns:inkscape="http://www.inkscape.org/namespaces/inkscape"
   width="297mm"
   height="210mm"
   viewBox="0 0 1052.3622 744.09448"
   id="svg2"
   version="1.1"
   inkscape:version="0.91 r13725"
   sodipodi:docname="Logo Padel.svg">
  <defs
     id="defs4">
    <clipPath
       id="clipPath4150"
       clipPathUnits="userSpaceOnUse">
      <path
         inkscape:connector-curvature="0"
         id="path4152"
         d="m 0,841.89 595.28,0 L 595.28,0 0,0 0,841.89 Z" />
    </clipPath>
    <clipPath
       id="clipPath4158"
       clipPathUnits="userSpaceOnUse">
      <path
         inkscape:connector-curvature="0"
         id="path4160"
         d="m 136.844,181.595 323.079,0 0,-39.69 -323.079,0 0,39.69 z" />
    </clipPath>
    <clipPath
       id="clipPath4239"
       clipPathUnits="userSpaceOnUse">
      <path
         inkscape:connector-curvature="0"
         id="path4241"
         d="m 0,595.28 841.89,0 L 841.89,0 0,0 0,595.28 Z" />
    </clipPath>
  </defs>
  <sodipodi:namedview
     id="base"
     pagecolor="#ffffff"
     bordercolor="#666666"
     borderopacity="1.0"
     inkscape:pageopacity="0.0"
     inkscape:pageshadow="2"
     inkscape:zoom="0.6397037"
     inkscape:cx="363.59116"
     inkscape:cy="338.9069"
     inkscape:document-units="px"
     inkscape:current-layer="layer1"
     showgrid="false"
     showguides="true"
     inkscape:guide-bbox="true"
     inkscape:window-width="1366"
     inkscape:window-height="705"
     inkscape:window-x="-8"
     inkscape:window-y="-8"
     inkscape:window-maximized="1">
    <sodipodi:guide
       position="134.28572,865.7143"
       orientation="0,1"
       id="guide4467" />
    <sodipodi:guide
       position="775.79717,865.71428"
       orientation="0,1"
       id="guide4469" />
    <sodipodi:guide
       position="171.33175,525.04889"
       orientation="1,0"
       id="guide4289" />
    <sodipodi:guide
       position="621.21575,418.93375"
       orientation="1,0"
       id="guide4291" />
    <sodipodi:guide
       position="757.17578,593.58159"
       orientation="0,1"
       id="guide4293" />
    <sodipodi:guide
       position="753.85969,132.64393"
       orientation="0,1"
       id="guide4295" />
  </sodipodi:namedview>
  <metadata
     id="metadata7">
    <rdf:RDF>
      <cc:Work
         rdf:about="">
        <dc:format>image/svg+xml</dc:format>
        <dc:type
           rdf:resource="http://purl.org/dc/dcmitype/StillImage" />
        <dc:title></dc:title>
      </cc:Work>
    </rdf:RDF>
  </metadata>
  <g
     inkscape:label="Capa 1"
     inkscape:groupmode="layer"
     id="layer1"
     transform="translate(0,-308.26772)">
    <rect
       style="opacity:0.90499998;fill:#0000ff;fill-opacity:1;fill-rule:nonzero;stroke:none;stroke-width:3;stroke-miterlimit:4;stroke-dasharray:none;stroke-opacity:1"
       id="rect4471"
       width="1057.1428"
       height="751.42859"
       x="-2613.0913"
       y="251.26285"
       ry="64.151802" />
    <g
       id="g4170"
       transform="matrix(1.0507762,0,0,-0.98062484,991.30334,700.8159)"
       style="fill:#ffcc00">
      <path
         d="m 0,0 c 0.468,-31.899 -7.812,-59.175 -24.827,-81.804 -11.217,-15.351 -27.036,-26.166 -47.479,-32.498 -10.966,-3.405 -23.739,-5.124 -38.359,-5.124 -27.025,0 -49.437,6.702 -67.203,20.084 -14.84,10.967 -26.579,25.872 -35.229,44.748 -8.649,18.855 -13.697,40.461 -15.144,64.821 l 65.713,4.733 c 2.938,-26.666 9.987,-46 21.204,-57.989 8.258,-9.052 17.778,-13.338 28.483,-12.849 15.087,0.49 27.142,7.92 36.151,22.304 4.602,7.06 6.919,17.168 6.919,30.321 0,19.007 -8.649,37.894 -25.916,56.65 -13.642,12.925 -34.083,32.294 -61.336,58.127 -22.913,22.173 -39.09,42.039 -48.567,59.578 -10.237,19.746 -15.351,41.179 -15.351,64.331 0,41.664 13.981,73.214 41.985,94.664 17.298,12.914 38.721,19.376 64.277,19.376 24.596,0 45.658,-5.483 63.175,-16.428 13.643,-8.541 24.664,-20.465 33.064,-35.794 8.398,-15.34 13.447,-32.998 15.144,-52.962 l -66.116,-12.044 c -1.926,18.74 -7.278,33.357 -16.059,43.823 -6.342,7.539 -15.459,11.326 -27.37,11.326 -12.664,0 -22.281,-5.614 -28.874,-16.809 -5.353,-8.998 -8.029,-20.214 -8.029,-33.585 0,-20.955 9.008,-42.252 27.025,-63.913 6.81,-8.285 17.045,-18.022 30.689,-29.217 16.069,-13.393 26.633,-22.766 31.768,-28.124 17.048,-17.043 30.191,-33.836 39.45,-50.392 4.373,-7.8 7.898,-14.959 10.575,-21.531 C -3.655,27.504 -0.25,12.903 0,0"
         style="fill:#ffcc00;fill-opacity:1;fill-rule:nonzero;stroke:none"
         id="path4172"
         inkscape:connector-curvature="0" />
    </g>
    <g
       id="g4174"
       transform="matrix(0.89581369,0,0,-0.94054964,959.7057,649.00445)">
      <path
         d="m 0,0 -234.747,0 0.239,92.692 234.889,0 L 0,0 Z"
         style="fill:#231f20;fill-opacity:1;fill-rule:nonzero;stroke:none"
         id="path4176"
         inkscape:connector-curvature="0" />
    </g>
    <g
       id="g4178"
       transform="matrix(0.89581369,0,0,-0.94054964,996.68256,559.32069)">
      <path
         d="m 0,0 -310.894,0 c -1.034,0 -1.86,-1.458 -1.86,-3.259 0,-1.8 0.826,-3.253 1.86,-3.253 L 0,-6.512 c 1.033,0 1.86,1.453 1.86,3.253 C 1.86,-1.458 1.033,0 0,0"
         style="fill:#231f20;fill-opacity:1;fill-rule:nonzero;stroke:none"
         id="path4180"
         inkscape:connector-curvature="0" />
    </g>
    <g
       id="g4182"
       transform="matrix(0.89581369,0,0,-0.94054964,808.78913,618.68649)">
      <path
         d="m 0,0 c 0.065,-4.385 -1.066,-8.127 -3.405,-11.239 -1.545,-2.111 -3.721,-3.601 -6.528,-4.466 -1.502,-0.468 -3.264,-0.702 -5.266,-0.702 -3.72,0 -6.8,0.92 -9.237,2.759 -2.045,1.506 -3.655,3.551 -4.841,6.146 -1.186,2.595 -1.882,5.565 -2.078,8.905 l 9.03,0.653 c 0.403,-3.666 1.371,-6.321 2.916,-7.964 1.132,-1.245 2.437,-1.839 3.906,-1.768 2.078,0.071 3.732,1.088 4.972,3.063 0.631,0.968 0.946,2.361 0.946,4.167 0,2.611 -1.186,5.211 -3.558,7.79 -1.871,1.773 -4.689,4.433 -8.431,7.985 -3.144,3.046 -5.375,5.777 -6.669,8.187 -1.415,2.714 -2.111,5.652 -2.111,8.84 0,5.723 1.915,10.058 5.766,13.006 2.383,1.774 5.32,2.66 8.835,2.66 3.383,0 6.277,-0.751 8.681,-2.251 1.872,-1.175 3.395,-2.818 4.537,-4.923 1.153,-2.106 1.849,-4.532 2.089,-7.279 L -9.53,31.915 c -0.272,2.573 -1.001,4.586 -2.209,6.022 -0.87,1.034 -2.121,1.556 -3.764,1.556 -1.741,0 -3.058,-0.772 -3.96,-2.306 -0.74,-1.241 -1.11,-2.78 -1.11,-4.619 0,-2.878 1.24,-5.804 3.71,-8.78 0.946,-1.137 2.35,-2.475 4.221,-4.02 2.208,-1.838 3.656,-3.122 4.363,-3.862 2.35,-2.34 4.145,-4.646 5.428,-6.92 C -2.252,7.909 -1.773,6.93 -1.403,6.021 -0.5,3.78 -0.032,1.773 0,0"
         style="fill:#ffffff;fill-opacity:1;fill-rule:nonzero;stroke:none"
         id="path4184"
         inkscape:connector-curvature="0" />
    </g>
    <g
       id="g4186"
       transform="matrix(0.89581369,0,0,-0.94054964,829.06122,587.81408)">
      <path
         d="m 0,0 -3.514,-24.794 7.028,0 L 0,0 Z m -4.983,-34.032 -2.307,-14.448 -9.867,0 10.683,62.874 13.045,0 10.543,-62.874 -9.977,0 -2.208,14.448 -9.912,0 z"
         style="fill:#ffffff;fill-opacity:1;fill-rule:nonzero;stroke:none"
         id="path4188"
         inkscape:connector-curvature="0" />
    </g>
    <g
       id="g4190"
       transform="matrix(0.89581369,0,0,-0.94054964,860.03416,633.41192)">
      <path
         d="m 0,0 -9.476,0 0,62.928 13.6,0 8.842,-45.205 8.486,45.205 13.077,0 0,-62.928 -9.486,0 0,39.542 L 16.817,0 9.18,0 0,39.444 0,0 Z"
         style="fill:#ffffff;fill-opacity:1;fill-rule:nonzero;stroke:none"
         id="path4192"
         inkscape:connector-curvature="0" />
    </g>
    <g
       id="g4194"
       transform="matrix(0.89581369,0,0,-0.94054964,913.43137,587.81408)">
      <path
         d="m 0,0 -3.504,-24.794 7.018,0 L 0,0 Z m -4.983,-34.032 -2.296,-14.448 -9.878,0 10.683,62.874 13.056,0 10.531,-62.874 -9.976,0 -2.209,14.448 -9.911,0 z"
         style="fill:#ffffff;fill-opacity:1;fill-rule:nonzero;stroke:none"
         id="path4196"
         inkscape:connector-curvature="0" />
    </g>
    <g
       id="g4243"
       transform="matrix(1.2132928,0,0,-1.3611735,171.05239,423.98537)"
       style="fill:#ffcc00">
      <path
         d="m 0,0 c 0.061,-4.331 -1.061,-8.039 -3.374,-11.112 -1.516,-2.082 -3.666,-3.552 -6.434,-4.403 -1.496,-0.468 -3.231,-0.699 -5.216,-0.699 -3.673,0 -6.714,0.91 -9.129,2.727 -2.02,1.482 -3.604,3.516 -4.782,6.074 -1.176,2.557 -1.863,5.496 -2.054,8.809 l 8.918,0.638 c 0.401,-3.619 1.354,-6.251 2.884,-7.883 1.122,-1.217 2.414,-1.802 3.863,-1.734 2.047,0.068 3.686,1.075 4.918,3.027 0.618,0.958 0.939,2.326 0.939,4.115 0,2.584 -1.171,5.147 -3.524,7.699 -1.85,1.748 -4.632,4.387 -8.325,7.89 -3.122,3.013 -5.319,5.714 -6.598,8.094 -1.401,2.68 -2.088,5.591 -2.088,8.739 0,5.654 1.898,9.938 5.699,12.856 2.347,1.747 5.259,2.633 8.734,2.633 3.339,0 6.196,-0.748 8.577,-2.238 1.857,-1.157 3.346,-2.782 4.496,-4.864 1.136,-2.081 1.823,-4.475 2.06,-7.188 l -8.991,-1.64 c -0.259,2.544 -0.979,4.536 -2.177,5.951 -0.857,1.035 -2.101,1.544 -3.72,1.544 -1.72,0 -3.027,-0.755 -3.918,-2.285 -0.728,-1.217 -1.095,-2.741 -1.095,-4.564 0,-2.842 1.224,-5.734 3.673,-8.68 0.925,-1.121 2.312,-2.441 4.176,-3.965 2.176,-1.822 3.612,-3.081 4.305,-3.822 2.32,-2.312 4.101,-4.597 5.367,-6.842 C -2.224,7.815 -1.742,6.85 -1.388,5.959 -0.489,3.736 -0.027,1.748 0,0"
         style="fill:#ffcc00;fill-opacity:1;fill-rule:nonzero;stroke:none"
         id="path4245"
         inkscape:connector-curvature="0" />
    </g>
    <g
       id="g4247"
       transform="matrix(1.2132928,0,0,-1.3611735,198.43373,445.99147)"
       style="fill:#ffcc00">
      <path
         d="m 0,0 c -4.135,0 -7.638,1.436 -10.522,4.319 -2.864,2.863 -4.312,6.367 -4.312,10.461 l 0,48.054 9.175,0 0,-47.951 c 0,-1.485 0.531,-2.756 1.592,-3.802 1.061,-1.035 2.326,-1.56 3.809,-1.56 1.489,0 2.761,0.525 3.808,1.56 1.027,1.046 1.552,2.317 1.552,3.802 l 0,47.951 9.767,0 0,-48.054 c 0,-4.169 -1.455,-7.665 -4.36,-10.509 C 7.604,1.43 4.094,0 0,0"
         style="fill:#ffcc00;fill-opacity:1;fill-rule:nonzero;stroke:none"
         id="path4249"
         inkscape:connector-curvature="0" />
    </g>
    <g
       id="g4251"
       transform="matrix(1.2132928,0,0,-1.3611735,238.86283,432.41825)"
       style="fill:#ffcc00">
      <path
         d="m 0,0 3.924,0 c 3.17,0 5.373,1.64 6.597,4.911 0.429,1.121 0.64,2.414 0.64,3.862 0,3.476 -0.666,5.999 -1.986,7.592 -1.184,1.455 -2.938,2.189 -5.251,2.189 L 0,18.554 0,0 Z m 0,27.525 3.924,0 c 2.911,0 4.863,1.422 5.849,4.258 0.361,1.063 0.545,2.374 0.545,3.925 0,2.578 -0.626,4.53 -1.877,5.857 -1.164,1.217 -2.667,1.822 -4.517,1.822 L 0,43.387 0,27.525 Z m -10.114,-36.796 0,62.188 14.038,0 c 3.701,0 7.033,-0.973 10.013,-2.925 2.542,-1.652 4.366,-4.21 5.454,-7.693 0.599,-1.85 0.899,-4.047 0.899,-6.591 0,-4.17 -1.11,-7.503 -3.32,-10.024 -0.925,-1.055 -2.027,-1.864 -3.279,-2.423 2.082,-0.796 3.851,-2.373 5.306,-4.707 0.966,-1.591 1.673,-3.645 2.136,-6.161 0.224,-1.28 0.354,-2.728 0.354,-4.307 0,-3.938 -0.749,-7.277 -2.238,-10.019 -1.164,-2.162 -2.795,-3.877 -4.911,-5.169 -2.38,-1.44 -4.748,-2.169 -7.095,-2.169 l -17.357,0 z"
         style="fill:#ffcc00;fill-opacity:1;fill-rule:nonzero;stroke:none"
         id="path4253"
         inkscape:connector-curvature="0" />
    </g>
    <g
       id="g4255"
       transform="matrix(1.2132928,0,0,-1.3611735,286.10785,445.03701)"
       style="fill:#ffcc00">
      <path
         d="m 0,0 -9.373,0 0,62.188 13.447,0 8.74,-44.681 8.38,44.681 12.923,0 0,-62.188 -9.373,0 0,39.074 L 16.61,0 9.08,0 0,38.972 0,0 Z"
         style="fill:#ffcc00;fill-opacity:1;fill-rule:nonzero;stroke:none"
         id="path4257"
         inkscape:connector-curvature="0" />
    </g>
    <path
       d="m 349.04025,445.03715 -11.37219,0 0,-84.57379 11.37219,0 0,84.57379 z"
       style="fill:#ffcc00;fill-opacity:1;fill-rule:nonzero;stroke:none"
       id="path4259"
       inkscape:connector-curvature="0" />
    <g
       id="g4261"
       transform="matrix(1.2132928,0,0,-1.3611735,371.98204,360.38904)"
       style="fill:#ffcc00">
      <path
         d="m 0,0 12.434,-41.804 0,41.804 9.372,0 0,-62.188 -10.059,0 -12.903,39.817 0,-39.817 -9.372,0 0,62.188 L 0,0 Z"
         style="fill:#ffcc00;fill-opacity:1;fill-rule:nonzero;stroke:none"
         id="path4263"
         inkscape:connector-curvature="0" />
    </g>
    <path
       d="m 419.9936,445.03715 -11.37097,0 0,-84.57379 11.37097,0 0,84.57379 z"
       style="fill:#ffcc00;fill-opacity:1;fill-rule:nonzero;stroke:none"
       id="path4265"
       inkscape:connector-curvature="0" />
    <g
       id="g4267"
       transform="matrix(1.2132928,0,0,-1.3611735,467.09873,423.98537)"
       style="fill:#ffcc00">
      <path
         d="m 0,0 c 0.061,-4.331 -1.062,-8.039 -3.374,-11.112 -1.523,-2.082 -3.673,-3.552 -6.44,-4.403 -1.497,-0.468 -3.231,-0.699 -5.21,-0.699 -3.667,0 -6.713,0.91 -9.129,2.727 -2.013,1.482 -3.604,3.516 -4.782,6.074 -1.175,2.557 -1.863,5.496 -2.053,8.809 l 8.925,0.638 c 0.393,-3.619 1.353,-6.251 2.876,-7.883 1.115,-1.217 2.415,-1.802 3.87,-1.734 2.048,0.068 3.679,1.075 4.912,3.027 0.618,0.958 0.937,2.326 0.937,4.115 0,2.584 -1.177,5.147 -3.523,7.699 -1.85,1.748 -4.631,4.387 -8.325,7.89 -3.121,3.013 -5.319,5.714 -6.605,8.094 -1.393,2.68 -2.081,5.591 -2.081,8.739 0,5.654 1.898,9.938 5.708,12.856 2.338,1.747 5.25,2.633 8.719,2.633 3.346,0 6.203,-0.748 8.583,-2.238 1.857,-1.157 3.347,-2.782 4.483,-4.864 1.15,-2.081 1.829,-4.475 2.068,-7.188 l -8.986,-1.64 c -0.258,2.544 -0.978,4.536 -2.177,5.951 -0.863,1.035 -2.101,1.544 -3.713,1.544 -1.727,0 -3.034,-0.755 -3.917,-2.285 -0.736,-1.217 -1.103,-2.741 -1.103,-4.564 0,-2.842 1.225,-5.734 3.673,-8.68 0.926,-1.121 2.313,-2.441 4.163,-3.965 2.183,-1.822 3.625,-3.081 4.313,-3.822 2.311,-2.312 4.106,-4.597 5.365,-6.842 C -2.23,7.815 -1.754,6.85 -1.388,5.959 -0.496,3.736 -0.026,1.748 0,0"
         style="fill:#ffcc00;fill-opacity:1;fill-rule:nonzero;stroke:none"
         id="path4269"
         inkscape:connector-curvature="0" />
    </g>
    <g
       id="g4271"
       transform="matrix(1.2132928,0,0,-1.3611735,487.02089,373.28697)"
       style="fill:#ffcc00">
      <path
         d="m 0,0 -9.971,0 0,9.421 29.26,0 0,-9.421 -9.918,0 0,-52.712 -9.371,0 L 0,0 Z"
         style="fill:#ffcc00;fill-opacity:1;fill-rule:nonzero;stroke:none"
         id="path4273"
         inkscape:connector-curvature="0" />
    </g>
    <g
       id="g4275"
       transform="matrix(1.2132928,0,0,-1.3611735,544.29922,380.83984)"
       style="fill:#ffcc00">
      <path
         d="m 0,0 c 0,3.604 -1.788,5.407 -5.359,5.407 l -5.651,0 0,-19.895 5.651,0 c 1.483,0 2.748,0.531 3.797,1.584 1.04,1.062 1.562,2.341 1.562,3.823 L 0,0 Z m -5.61,14.97 c 5.223,0 9.067,-1.435 11.508,-4.306 C 8.048,8.147 9.123,4.645 9.123,0.136 l 0,-9.021 c 0,-4.392 -1.674,-8.12 -5.007,-11.162 l 6.938,-27.116 -10.136,0 -5.678,23.405 -0.85,0 -5.4,0 0,-23.405 -9.374,0 0,62.133 14.774,0 z"
         style="fill:#ffcc00;fill-opacity:1;fill-rule:nonzero;stroke:none"
         id="path4277"
         inkscape:connector-curvature="0" />
    </g>
    <g
       id="g4279"
       transform="matrix(1.2132928,0,0,-1.3611735,567.46437,445.03701)"
       style="fill:#ffcc00">
      <path
         d="m 0,0 0,62.188 26.685,0 0,-9.428 -17.327,0 0,-16.963 12.66,0 0,-9.421 -12.66,0 0,-16.956 17.327,0 0,-9.42 L 0,0 Z"
         style="fill:#ffcc00;fill-opacity:1;fill-rule:nonzero;stroke:none"
         id="path4281"
         inkscape:connector-curvature="0" />
    </g>
    <g
       id="g4283"
       transform="matrix(1.2132928,0,0,-1.3611735,645.26205,423.98537)"
       style="fill:#ffcc00">
      <path
         d="m 0,0 c 0.074,-4.331 -1.056,-8.039 -3.368,-11.112 -1.524,-2.082 -3.665,-3.552 -6.446,-4.403 -1.485,-0.468 -3.225,-0.699 -5.211,-0.699 -3.674,0 -6.707,0.91 -9.128,2.727 -2.015,1.482 -3.606,3.516 -4.783,6.074 -1.175,2.557 -1.863,5.496 -2.06,8.809 l 8.925,0.638 c 0.407,-3.619 1.359,-6.251 2.882,-7.883 1.123,-1.217 2.421,-1.802 3.871,-1.734 2.047,0.068 3.686,1.075 4.904,3.027 0.632,0.958 0.944,2.326 0.944,4.115 0,2.584 -1.176,5.147 -3.515,7.699 -1.858,1.748 -4.625,4.387 -8.34,7.89 -3.109,3.013 -5.305,5.714 -6.584,8.094 -1.394,2.68 -2.08,5.591 -2.08,8.739 0,5.654 1.891,9.938 5.699,12.856 2.34,1.747 5.252,2.633 8.72,2.633 3.347,0 6.21,-0.748 8.584,-2.238 1.849,-1.157 3.353,-2.782 4.489,-4.864 1.136,-2.081 1.823,-4.475 2.054,-7.188 l -8.979,-1.64 c -0.266,2.544 -0.992,4.536 -2.176,5.951 -0.863,1.035 -2.101,1.544 -3.72,1.544 -1.728,0 -3.034,-0.755 -3.925,-2.285 -0.721,-1.217 -1.088,-2.741 -1.088,-4.564 0,-2.842 1.217,-5.734 3.673,-8.68 0.926,-1.121 2.312,-2.441 4.169,-3.965 2.184,-1.822 3.619,-3.081 4.319,-3.822 2.313,-2.312 4.094,-4.597 5.353,-6.842 C -2.226,7.815 -1.748,6.85 -1.382,5.959 -0.498,3.736 -0.022,1.748 0,0"
         style="fill:#ffcc00;fill-opacity:1;fill-rule:nonzero;stroke:none"
         id="path4285"
         inkscape:connector-curvature="0" />
    </g>
    <g
       id="g4287"
       transform="matrix(1.0508305,0,0,-1.1886542,642.7609,819.61046)"
       style="display:inline">
      <path
         d="m 0,0 -492.795,0 0.51,89.728 493.073,0 L 0,0 Z"
         style="fill:#231f20;fill-opacity:1;fill-rule:nonzero;stroke:none"
         id="path4289"
         inkscape:connector-curvature="0" />
    </g>
    <g
       id="g4291"
       transform="matrix(1.0508305,0,0,-1.1886542,727.15783,709.89102)">
      <path
         d="m 0,0 -652.635,0 c -2.156,0 -3.904,-1.414 -3.904,-3.157 0,-1.74 1.748,-3.148 3.904,-3.148 L 0,-6.305 c 2.149,0 3.897,1.408 3.897,3.148 C 3.897,-1.414 2.149,0 0,0"
         style="fill:#231f20;fill-opacity:1;fill-rule:nonzero;stroke:none"
         id="path4293"
         inkscape:connector-curvature="0" />
    </g>
    <g
       id="g4295"
       transform="matrix(1.1954075,0,0,-1.2349428,230.76918,631.60207)"
       style="fill:#ffcc00">
      <path
         d="m 0,0 c 0.164,-11.291 -2.768,-20.929 -8.774,-28.935 -3.972,-5.42 -9.563,-9.263 -16.8,-11.494 -3.87,-1.204 -8.393,-1.809 -13.563,-1.809 -9.556,0 -17.48,2.366 -23.764,7.107 -5.252,3.877 -9.401,9.141 -12.461,15.815 -3.047,6.671 -4.843,14.316 -5.36,22.928 l 23.248,1.673 c 1.035,-9.434 3.537,-16.263 7.496,-20.5 2.925,-3.204 6.285,-4.721 10.08,-4.551 5.332,0.177 9.59,2.803 12.78,7.89 1.626,2.49 2.442,6.074 2.442,10.72 0,6.726 -3.054,13.406 -9.156,20.038 -4.828,4.563 -12.065,11.42 -21.696,20.554 -8.102,7.842 -13.828,14.861 -17.181,21.079 -3.619,6.978 -5.429,14.555 -5.429,22.745 0,14.732 4.946,25.886 14.849,33.477 6.121,4.564 13.691,6.849 22.731,6.849 8.699,0 16.154,-1.938 22.35,-5.808 4.816,-3.021 8.727,-7.237 11.686,-12.665 2.965,-5.421 4.754,-11.658 5.359,-18.732 L -24.547,82.13 c -0.68,6.632 -2.571,11.787 -5.68,15.495 -2.237,2.666 -5.468,4.005 -9.671,4.005 -4.483,0 -7.891,-1.979 -10.216,-5.944 -1.898,-3.177 -2.844,-7.148 -2.844,-11.876 0,-7.414 3.184,-14.943 9.556,-22.602 2.416,-2.924 6.034,-6.373 10.857,-10.338 5.685,-4.734 9.42,-8.04 11.236,-9.93 6.033,-6.041 10.672,-11.979 13.95,-17.828 1.55,-2.761 2.789,-5.292 3.74,-7.625 C -1.292,9.719 -0.095,4.564 0,0"
         style="fill:#ffcc00;fill-opacity:1;fill-rule:nonzero;stroke:none"
         id="path4297"
         inkscape:connector-curvature="0" />
    </g>
    <g
       id="g4299"
       transform="matrix(1.1954075,0,0,-1.2349428,300.37716,527.29522)"
       style="fill:#ffcc00">
      <path
         d="m 0,0 -9.033,-63.799 18.072,0 L 0,0 Z m -12.821,-87.571 -5.931,-37.192 -25.412,0 27.507,161.82 33.58,0 27.124,-161.82 -25.676,0 -5.7,37.192 -25.492,0 z"
         style="fill:#ffcc00;fill-opacity:1;fill-rule:nonzero;stroke:none"
         id="path4301"
         inkscape:connector-curvature="0" />
    </g>
    <g
       id="g4303"
       transform="matrix(1.1954075,0,0,-1.2349428,406.75325,681.37001)"
       style="fill:#ffcc00">
      <path
         d="m 0,0 -24.405,0 0,161.948 35.022,0 22.751,-116.343 21.848,116.343 33.653,0 0,-161.948 -24.424,0 0,101.759 L 43.271,0 23.643,0 0,101.508 0,0 Z"
         style="fill:#ffcc00;fill-opacity:1;fill-rule:nonzero;stroke:none"
         id="path4305"
         inkscape:connector-curvature="0" />
    </g>
    <g
       id="g4307"
       transform="matrix(1.1954075,0,0,-1.2349428,590.15028,527.29522)"
       style="fill:#ffcc00">
      <path
         d="m 0,0 -9.032,-63.799 18.065,0 L 0,0 Z m -12.828,-87.571 -5.918,-37.192 -25.424,0 27.506,161.82 33.587,0 27.119,-161.82 -25.664,0 -5.714,37.192 -25.492,0 z"
         style="fill:#ffcc00;fill-opacity:1;fill-rule:nonzero;stroke:none"
         id="path4309"
         inkscape:connector-curvature="0" />
    </g>
    <g
       id="g4311"
       transform="matrix(1.0508305,0,0,-1.1886542,201.33002,792.35617)">
      <path
         d="m 0,0 c -3.176,0 -5.87,1.115 -8.087,3.332 -2.224,2.218 -3.333,4.904 -3.333,8.054 l 0,26.043 c 0,3.171 1.116,5.877 3.347,8.088 2.23,2.216 4.924,3.325 8.073,3.325 3.176,0 5.856,-1.109 8.067,-3.346 2.21,-2.238 3.312,-4.918 3.312,-8.067 l 0,-5.449 -7.462,0 0,5.592 c 0,1.15 -0.401,2.121 -1.217,2.938 -0.817,0.817 -1.789,1.211 -2.924,1.211 -1.15,0 -2.122,-0.394 -2.919,-1.211 -0.795,-0.817 -1.196,-1.788 -1.196,-2.938 l 0,-26.112 c 0,-1.142 0.401,-2.115 1.196,-2.911 0.797,-0.802 1.769,-1.203 2.919,-1.203 1.135,0 2.107,0.401 2.924,1.203 0.816,0.796 1.217,1.769 1.217,2.911 l 0,6.584 7.462,0 0,-6.658 C 11.379,8.217 10.264,5.522 8.033,3.319 5.795,1.102 3.122,0 0,0"
         style="fill:#ffffff;fill-opacity:1;fill-rule:nonzero;stroke:none"
         id="path4313"
         inkscape:connector-curvature="0" />
    </g>
    <g
       id="g4315"
       transform="matrix(1.0508305,0,0,-1.1886542,235.45175,747.59822)">
      <path
         d="M 0,0 C 0,1.149 -0.394,2.107 -1.198,2.917 -1.993,3.713 -2.973,4.108 -4.108,4.108 -5.251,4.108 -6.231,3.713 -7.04,2.917 -7.856,2.107 -8.264,1.149 -8.264,0 l 0,-26.111 c 0,-1.151 0.408,-2.117 1.224,-2.912 0.809,-0.81 1.789,-1.205 2.932,-1.205 1.135,0 2.115,0.395 2.91,1.205 0.804,0.795 1.198,1.761 1.198,2.912 L 0,0 Z m -3.917,11.271 c 3.169,0 5.869,-1.124 8.086,-3.355 2.218,-2.238 3.333,-4.923 3.333,-8.067 l 0,-26.043 c 0,-3.176 -1.115,-5.869 -3.353,-8.086 -2.238,-2.219 -4.918,-3.334 -8.066,-3.334 -3.177,0 -5.871,1.115 -8.074,3.346 -2.204,2.239 -3.313,4.924 -3.313,8.074 l 0,26.043 c 0,3.171 1.116,5.871 3.353,8.088 2.232,2.224 4.911,3.334 8.034,3.334"
         style="fill:#ffffff;fill-opacity:1;fill-rule:nonzero;stroke:none"
         id="path4317"
         inkscape:connector-curvature="0" />
    </g>
    <g
       id="g4319"
       transform="matrix(1.0508305,0,0,-1.1886542,258.46641,734.88985)">
      <path
         d="m 0,0 9.542,-32.077 0,32.077 7.197,0 0,-47.734 -7.727,0 -9.897,30.566 0,-30.566 -7.196,0 L -8.081,0 0,0 Z"
         style="fill:#ffffff;fill-opacity:1;fill-rule:nonzero;stroke:none"
         id="path4321"
         inkscape:connector-curvature="0" />
    </g>
    <path
       inkscape:connector-curvature="0"
       id="path4325"
       style="fill:#ffffff;fill-opacity:1;fill-rule:nonzero;stroke:none"
       d="m 307.38288,777.51427 c 0.0504,3.94395 -0.85117,7.3233 -2.71535,10.12852 -1.22947,1.90898 -2.96649,3.24146 -5.20371,4.02597 -1.2011,0.42911 -2.5945,0.6395 -4.19491,0.6395 -2.96755,0 -5.41809,-0.82493 -7.36948,-2.48429 -1.62248,-1.36338 -2.9087,-3.20699 -3.85339,-5.54507 -0.9489,-2.34403 -1.50059,-5.01255 -1.66452,-8.04362 l 7.19819,-0.58125 c 0.31315,3.30683 1.09391,5.6984 2.32969,7.19492 0.89951,1.11615 1.94404,1.64985 3.11571,1.58448 1.65821,-0.0559 2.97385,-0.97827 3.95953,-2.75768 0.50125,-0.87961 0.75765,-2.13364 0.75765,-3.76685 0,-2.35115 -0.94259,-4.68805 -2.83724,-7.0083 -1.49428,-1.61063 -3.73886,-4.02003 -6.72637,-7.21276 -2.49992,-2.74103 -4.27267,-5.20749 -5.3172,-7.38273 -1.11493,-2.44862 -1.67923,-5.1017 -1.67923,-7.97111 0,-5.16589 1.52896,-9.06943 4.59529,-11.73083 1.90095,-1.60112 4.24535,-2.40108 7.04792,-2.40108 2.69432,0 5.003,0.68823 6.91866,2.03735 1.49323,1.05909 2.70169,2.53897 3.61591,4.43962 0.92263,1.89234 1.47957,4.08184 1.66557,6.55662 l -7.24022,1.49652 c -0.21437,-2.33095 -0.80074,-4.14009 -1.7654,-5.43453 -0.6925,-0.92834 -1.69289,-1.39786 -2.99487,-1.39786 -1.38604,0 -2.44423,0.69418 -3.15879,2.0849 -0.59372,1.10902 -0.88585,2.49855 -0.88585,4.15554 0,2.59602 0.98568,5.2384 2.95914,7.92357 0.74924,1.01867 1.87152,2.22278 3.36581,3.61469 1.75803,1.66531 2.92341,2.81949 3.48035,3.49108 1.86627,2.10273 3.31011,4.1805 4.31786,6.24281 0.48548,0.96876 0.87219,1.85074 1.16432,2.66853 0.72192,2.0219 1.09391,3.83103 1.11493,5.43334" />
    <g
       id="g4327"
       transform="matrix(1.0508305,0,0,-1.1886542,320.62755,743.52506)">
      <path
         d="m 0,0 -7.652,0 0,7.237 22.465,0 0,-7.237 -7.617,0 0,-40.47 L 0,-40.47 0,0 Z"
         style="fill:#ffffff;fill-opacity:1;fill-rule:nonzero;stroke:none"
         id="path4329"
         inkscape:connector-curvature="0" />
    </g>
    <g
       id="g4331"
       transform="matrix(1.0508305,0,0,-1.1886542,358.70828,748.58493)">
      <path
         d="m 0,0 c 0,2.761 -1.374,4.142 -4.108,4.142 l -4.339,0 0,-15.263 4.339,0 c 1.143,0 2.109,0.401 2.911,1.211 C -0.394,-9.094 0,-8.115 0,-6.979 L 0,0 Z m -4.298,11.494 c 4.012,0 6.951,-1.108 8.828,-3.318 C 6.177,6.243 7.007,3.557 7.007,0.108 l 0,-6.938 c 0,-3.366 -1.279,-6.223 -3.843,-8.562 l 5.325,-20.821 -7.781,0 -4.36,17.971 -0.646,0 -4.149,0 0,-17.971 -7.197,0 0,47.707 11.346,0 z"
         style="fill:#ffffff;fill-opacity:1;fill-rule:nonzero;stroke:none"
         id="path4333"
         inkscape:connector-curvature="0" />
    </g>
    <g
       id="g4335"
       transform="matrix(1.0508305,0,0,-1.1886542,384.79746,792.26797)">
      <path
         d="m 0,0 c -3.177,0 -5.864,1.109 -8.074,3.313 -2.211,2.218 -3.312,4.89 -3.312,8.04 l 0,36.891 7.046,0 0,-36.824 c 0,-1.135 0.401,-2.114 1.217,-2.91 0.81,-0.797 1.789,-1.198 2.933,-1.198 1.141,0 2.107,0.401 2.91,1.198 0.803,0.796 1.197,1.775 1.197,2.91 l 0,36.824 7.496,0 0,-36.891 C 11.413,8.155 10.296,5.462 8.067,3.278 5.835,1.096 3.142,0 0,0"
         style="fill:#ffffff;fill-opacity:1;fill-rule:nonzero;stroke:none"
         id="path4337"
         inkscape:connector-curvature="0" />
    </g>
    <path
       d="m 411.07716,791.63002 -7.56073,0 0,-56.70713 7.56073,0 0,56.70713 z"
       style="fill:#ffffff;fill-opacity:1;fill-rule:nonzero;stroke:none"
       id="path4339"
       inkscape:connector-curvature="0" />
    <g
       id="g4341"
       transform="matrix(1.0508305,0,0,-1.1886542,425.39399,791.62954)">
      <path
         d="m 0,0 -7.197,0 0,47.734 10.325,0 6.708,-34.287 6.44,34.287 9.923,0 0,-47.734 -7.202,0 0,30.002 L 12.759,0 6.972,0 0,29.921 0,0 Z"
         style="fill:#ffffff;fill-opacity:1;fill-rule:nonzero;stroke:none"
         id="path4343"
         inkscape:connector-curvature="0" />
    </g>
    <g
       id="g4345"
       transform="matrix(1.0508305,0,0,-1.1886542,489.12003,791.62954)">
      <path
         d="m 0,0 -19.603,0 0,47.707 7.197,0 0,-40.551 L 0,7.156 0,0 Z"
         style="fill:#ffffff;fill-opacity:1;fill-rule:nonzero;stroke:none"
         id="path4347"
         inkscape:connector-curvature="0" />
    </g>
    <g
       id="g4349"
       transform="matrix(1.0508305,0,0,-1.1886542,514.93725,791.62954)">
      <path
         d="m 0,0 -19.616,0 0,47.707 7.196,0 0,-40.551 L 0,7.156 0,0 Z"
         style="fill:#ffffff;fill-opacity:1;fill-rule:nonzero;stroke:none"
         id="path4351"
         inkscape:connector-curvature="0" />
    </g>
    <g
       id="g4353"
       transform="matrix(1.0508305,0,0,-1.1886542,533.81321,747.92213)">
      <path
         d="m 0,0 -2.666,-18.8 5.326,0 L 0,0 Z m -3.781,-25.807 -1.756,-10.964 -7.488,0 8.107,47.708 9.897,0 7.992,-47.708 -7.564,0 -1.674,10.964 -7.514,0 z"
         style="fill:#ffffff;fill-opacity:1;fill-rule:nonzero;stroke:none"
         id="path4355"
         inkscape:connector-curvature="0" />
    </g>
    <g
       id="g4357"
       transform="matrix(1.0508305,0,0,-1.1886542,570.2577,748.58493)">
      <path
         d="m 0,0 c 0,2.761 -1.374,4.142 -4.115,4.142 l -4.334,0 0,-15.263 4.334,0 c 1.142,0 2.122,0.401 2.917,1.211 C -0.396,-9.094 0,-8.115 0,-6.979 L 0,0 Z m -4.298,11.494 c 4.012,0 6.944,-1.108 8.828,-3.318 C 6.184,6.243 7.005,3.557 7.005,0.108 l 0,-6.938 c 0,-3.366 -1.285,-6.223 -3.849,-8.562 l 5.333,-20.821 -7.781,0 -4.361,17.971 -0.645,0 -4.151,0 0,-17.971 -7.209,0 0,47.707 11.36,0 z"
         style="fill:#ffffff;fill-opacity:1;fill-rule:nonzero;stroke:none"
         id="path4359"
         inkscape:connector-curvature="0" />
    </g>
    <rect
       ry="64.151802"
       y="283.58774"
       x="-1348.3804"
       height="751.42859"
       width="1057.1428"
       id="rect4745"
       style="opacity:0.90499998;fill:#0000ff;fill-opacity:1;fill-rule:nonzero;stroke:none;stroke-width:3;stroke-miterlimit:4;stroke-dasharray:none;stroke-opacity:1" />
    <g
       style="fill:#ffffff"
       transform="matrix(0.89581369,0,0,-0.94054964,-398.01353,780.84122)"
       id="g4747">
      <path
         inkscape:connector-curvature="0"
         id="path4749"
         style="fill:#ffffff;fill-opacity:1;fill-rule:nonzero;stroke:none"
         d="m 0,0 c 0.468,-31.899 -7.812,-59.175 -24.827,-81.804 -11.217,-15.351 -27.036,-26.166 -47.479,-32.498 -10.966,-3.405 -23.739,-5.124 -38.359,-5.124 -27.025,0 -49.437,6.702 -67.203,20.084 -14.84,10.967 -26.579,25.872 -35.229,44.748 -8.649,18.855 -13.697,40.461 -15.144,64.821 l 65.713,4.733 c 2.938,-26.666 9.987,-46 21.204,-57.989 8.258,-9.052 17.778,-13.338 28.483,-12.849 15.087,0.49 27.142,7.92 36.151,22.304 4.602,7.06 6.919,17.168 6.919,30.321 0,19.007 -8.649,37.894 -25.916,56.65 -13.642,12.925 -34.083,32.294 -61.336,58.127 -22.913,22.173 -39.09,42.039 -48.567,59.578 -10.237,19.746 -15.351,41.179 -15.351,64.331 0,41.664 13.981,73.214 41.985,94.664 17.298,12.914 38.721,19.376 64.277,19.376 24.596,0 45.658,-5.483 63.175,-16.428 13.643,-8.541 24.664,-20.465 33.064,-35.794 8.398,-15.34 13.447,-32.998 15.144,-52.962 l -66.116,-12.044 c -1.926,18.74 -7.278,33.357 -16.059,43.823 -6.342,7.539 -15.459,11.326 -27.37,11.326 -12.664,0 -22.281,-5.614 -28.874,-16.809 -5.353,-8.998 -8.029,-20.214 -8.029,-33.585 0,-20.955 9.008,-42.252 27.025,-63.913 6.81,-8.285 17.045,-18.022 30.689,-29.217 16.069,-13.393 26.633,-22.766 31.768,-28.124 17.048,-17.043 30.191,-33.836 39.45,-50.392 4.373,-7.8 7.898,-14.959 10.575,-21.531 C -3.655,27.504 -0.25,12.903 0,0" />
    </g>
    <g
       transform="matrix(0.89581369,0,0,-0.94054964,-401.97993,724.24374)"
       id="g4751">
      <path
         inkscape:connector-curvature="0"
         id="path4753"
         style="fill:#231f20;fill-opacity:1;fill-rule:nonzero;stroke:none"
         d="m 0,0 -234.747,0 0.239,92.692 234.889,0 L 0,0 Z" />
    </g>
    <g
       transform="matrix(0.89581369,0,0,-0.94054964,-365.00307,634.55998)"
       id="g4755">
      <path
         inkscape:connector-curvature="0"
         id="path4757"
         style="fill:#231f20;fill-opacity:1;fill-rule:nonzero;stroke:none"
         d="m 0,0 -310.894,0 c -1.034,0 -1.86,-1.458 -1.86,-3.259 0,-1.8 0.826,-3.253 1.86,-3.253 L 0,-6.512 c 1.033,0 1.86,1.453 1.86,3.253 C 1.86,-1.458 1.033,0 0,0" />
    </g>
    <g
       transform="matrix(0.89581369,0,0,-0.94054964,-552.8965,693.92578)"
       id="g4759">
      <path
         inkscape:connector-curvature="0"
         id="path4761"
         style="fill:#ffffff;fill-opacity:1;fill-rule:nonzero;stroke:none"
         d="m 0,0 c 0.065,-4.385 -1.066,-8.127 -3.405,-11.239 -1.545,-2.111 -3.721,-3.601 -6.528,-4.466 -1.502,-0.468 -3.264,-0.702 -5.266,-0.702 -3.72,0 -6.8,0.92 -9.237,2.759 -2.045,1.506 -3.655,3.551 -4.841,6.146 -1.186,2.595 -1.882,5.565 -2.078,8.905 l 9.03,0.653 c 0.403,-3.666 1.371,-6.321 2.916,-7.964 1.132,-1.245 2.437,-1.839 3.906,-1.768 2.078,0.071 3.732,1.088 4.972,3.063 0.631,0.968 0.946,2.361 0.946,4.167 0,2.611 -1.186,5.211 -3.558,7.79 -1.871,1.773 -4.689,4.433 -8.431,7.985 -3.144,3.046 -5.375,5.777 -6.669,8.187 -1.415,2.714 -2.111,5.652 -2.111,8.84 0,5.723 1.915,10.058 5.766,13.006 2.383,1.774 5.32,2.66 8.835,2.66 3.383,0 6.277,-0.751 8.681,-2.251 1.872,-1.175 3.395,-2.818 4.537,-4.923 1.153,-2.106 1.849,-4.532 2.089,-7.279 L -9.53,31.915 c -0.272,2.573 -1.001,4.586 -2.209,6.022 -0.87,1.034 -2.121,1.556 -3.764,1.556 -1.741,0 -3.058,-0.772 -3.96,-2.306 -0.74,-1.241 -1.11,-2.78 -1.11,-4.619 0,-2.878 1.24,-5.804 3.71,-8.78 0.946,-1.137 2.35,-2.475 4.221,-4.02 2.208,-1.838 3.656,-3.122 4.363,-3.862 2.35,-2.34 4.145,-4.646 5.428,-6.92 C -2.252,7.909 -1.773,6.93 -1.403,6.021 -0.5,3.78 -0.032,1.773 0,0" />
    </g>
    <g
       transform="matrix(0.89581369,0,0,-0.94054964,-532.62441,663.05337)"
       id="g4763">
      <path
         inkscape:connector-curvature="0"
         id="path4765"
         style="fill:#ffffff;fill-opacity:1;fill-rule:nonzero;stroke:none"
         d="m 0,0 -3.514,-24.794 7.028,0 L 0,0 Z m -4.983,-34.032 -2.307,-14.448 -9.867,0 10.683,62.874 13.045,0 10.543,-62.874 -9.977,0 -2.208,14.448 -9.912,0 z" />
    </g>
    <g
       transform="matrix(0.89581369,0,0,-0.94054964,-501.65147,708.65121)"
       id="g4767">
      <path
         inkscape:connector-curvature="0"
         id="path4769"
         style="fill:#ffffff;fill-opacity:1;fill-rule:nonzero;stroke:none"
         d="m 0,0 -9.476,0 0,62.928 13.6,0 8.842,-45.205 8.486,45.205 13.077,0 0,-62.928 -9.486,0 0,39.542 L 16.817,0 9.18,0 0,39.444 0,0 Z" />
    </g>
    <g
       transform="matrix(0.89581369,0,0,-0.94054964,-448.25426,663.05337)"
       id="g4771">
      <path
         inkscape:connector-curvature="0"
         id="path4773"
         style="fill:#ffffff;fill-opacity:1;fill-rule:nonzero;stroke:none"
         d="m 0,0 -3.504,-24.794 7.018,0 L 0,0 Z m -4.983,-34.032 -2.296,-14.448 -9.878,0 10.683,62.874 13.056,0 10.531,-62.874 -9.976,0 -2.209,14.448 -9.911,0 z" />
    </g>
    <g
       style="fill:#ffffff"
       transform="matrix(1.0508305,0,0,-1.1886542,-1166.5102,732.32922)"
       id="g4775">
      <path
         inkscape:connector-curvature="0"
         id="path4777"
         style="fill:#ffffff;fill-opacity:1;fill-rule:nonzero;stroke:none"
         d="m 0,0 c 0.061,-4.331 -1.061,-8.039 -3.374,-11.112 -1.516,-2.082 -3.666,-3.552 -6.434,-4.403 -1.496,-0.468 -3.231,-0.699 -5.216,-0.699 -3.673,0 -6.714,0.91 -9.129,2.727 -2.02,1.482 -3.604,3.516 -4.782,6.074 -1.176,2.557 -1.863,5.496 -2.054,8.809 l 8.918,0.638 c 0.401,-3.619 1.354,-6.251 2.884,-7.883 1.122,-1.217 2.414,-1.802 3.863,-1.734 2.047,0.068 3.686,1.075 4.918,3.027 0.618,0.958 0.939,2.326 0.939,4.115 0,2.584 -1.171,5.147 -3.524,7.699 -1.85,1.748 -4.632,4.387 -8.325,7.89 -3.122,3.013 -5.319,5.714 -6.598,8.094 -1.401,2.68 -2.088,5.591 -2.088,8.739 0,5.654 1.898,9.938 5.699,12.856 2.347,1.747 5.259,2.633 8.734,2.633 3.339,0 6.196,-0.748 8.577,-2.238 1.857,-1.157 3.346,-2.782 4.496,-4.864 1.136,-2.081 1.823,-4.475 2.06,-7.188 l -8.991,-1.64 c -0.259,2.544 -0.979,4.536 -2.177,5.951 -0.857,1.035 -2.101,1.544 -3.72,1.544 -1.72,0 -3.027,-0.755 -3.918,-2.285 -0.728,-1.217 -1.095,-2.741 -1.095,-4.564 0,-2.842 1.224,-5.734 3.673,-8.68 0.925,-1.121 2.312,-2.441 4.176,-3.965 2.176,-1.822 3.612,-3.081 4.305,-3.822 2.32,-2.312 4.101,-4.597 5.367,-6.842 C -2.224,7.815 -1.742,6.85 -1.388,5.959 -0.489,3.736 -0.027,1.748 0,0" />
    </g>
    <g
       style="fill:#ffffff"
       transform="matrix(1.0508305,0,0,-1.1886542,-1142.7953,751.5462)"
       id="g4779">
      <path
         inkscape:connector-curvature="0"
         id="path4781"
         style="fill:#ffffff;fill-opacity:1;fill-rule:nonzero;stroke:none"
         d="m 0,0 c -4.135,0 -7.638,1.436 -10.522,4.319 -2.864,2.863 -4.312,6.367 -4.312,10.461 l 0,48.054 9.175,0 0,-47.951 c 0,-1.485 0.531,-2.756 1.592,-3.802 1.061,-1.035 2.326,-1.56 3.809,-1.56 1.489,0 2.761,0.525 3.808,1.56 1.027,1.046 1.552,2.317 1.552,3.802 l 0,47.951 9.767,0 0,-48.054 c 0,-4.169 -1.455,-7.665 -4.36,-10.509 C 7.604,1.43 4.094,0 0,0" />
    </g>
    <g
       style="fill:#ffffff"
       transform="matrix(1.0508305,0,0,-1.1886542,-1107.7797,739.69329)"
       id="g4783">
      <path
         inkscape:connector-curvature="0"
         id="path4785"
         style="fill:#ffffff;fill-opacity:1;fill-rule:nonzero;stroke:none"
         d="m 0,0 3.924,0 c 3.17,0 5.373,1.64 6.597,4.911 0.429,1.121 0.64,2.414 0.64,3.862 0,3.476 -0.666,5.999 -1.986,7.592 -1.184,1.455 -2.938,2.189 -5.251,2.189 L 0,18.554 0,0 Z m 0,27.525 3.924,0 c 2.911,0 4.863,1.422 5.849,4.258 0.361,1.063 0.545,2.374 0.545,3.925 0,2.578 -0.626,4.53 -1.877,5.857 -1.164,1.217 -2.667,1.822 -4.517,1.822 L 0,43.387 0,27.525 Z m -10.114,-36.796 0,62.188 14.038,0 c 3.701,0 7.033,-0.973 10.013,-2.925 2.542,-1.652 4.366,-4.21 5.454,-7.693 0.599,-1.85 0.899,-4.047 0.899,-6.591 0,-4.17 -1.11,-7.503 -3.32,-10.024 -0.925,-1.055 -2.027,-1.864 -3.279,-2.423 2.082,-0.796 3.851,-2.373 5.306,-4.707 0.966,-1.591 1.673,-3.645 2.136,-6.161 0.224,-1.28 0.354,-2.728 0.354,-4.307 0,-3.938 -0.749,-7.277 -2.238,-10.019 -1.164,-2.162 -2.795,-3.877 -4.911,-5.169 -2.38,-1.44 -4.748,-2.169 -7.095,-2.169 l -17.357,0 z" />
    </g>
    <g
       style="fill:#ffffff"
       transform="matrix(1.0508305,0,0,-1.1886542,-1066.8609,750.71271)"
       id="g4787">
      <path
         inkscape:connector-curvature="0"
         id="path4789"
         style="fill:#ffffff;fill-opacity:1;fill-rule:nonzero;stroke:none"
         d="m 0,0 -9.373,0 0,62.188 13.447,0 8.74,-44.681 8.38,44.681 12.923,0 0,-62.188 -9.373,0 0,39.074 L 16.61,0 9.08,0 0,38.972 0,0 Z" />
    </g>
    <path
       inkscape:connector-curvature="0"
       id="path4791"
       style="fill:#ffffff;fill-opacity:1;fill-rule:nonzero;stroke:none"
       d="m -1012.3553,750.71283 -9.8494,0 0,-73.85465 9.8494,0 0,73.85465 z" />
    <g
       style="fill:#ffffff"
       transform="matrix(1.0508305,0,0,-1.1886542,-992.48543,676.79328)"
       id="g4793">
      <path
         inkscape:connector-curvature="0"
         id="path4795"
         style="fill:#ffffff;fill-opacity:1;fill-rule:nonzero;stroke:none"
         d="m 0,0 12.434,-41.804 0,41.804 9.372,0 0,-62.188 -10.059,0 -12.903,39.817 0,-39.817 -9.372,0 0,62.188 L 0,0 Z" />
    </g>
    <path
       inkscape:connector-curvature="0"
       id="path4797"
       style="fill:#ffffff;fill-opacity:1;fill-rule:nonzero;stroke:none"
       d="m -950.90271,750.71283 -9.84838,0 0,-73.85465 9.84838,0 0,73.85465 z" />
    <g
       style="fill:#ffffff"
       transform="matrix(1.0508305,0,0,-1.1886542,-910.10505,732.32922)"
       id="g4799">
      <path
         inkscape:connector-curvature="0"
         id="path4801"
         style="fill:#ffffff;fill-opacity:1;fill-rule:nonzero;stroke:none"
         d="m 0,0 c 0.061,-4.331 -1.062,-8.039 -3.374,-11.112 -1.523,-2.082 -3.673,-3.552 -6.44,-4.403 -1.497,-0.468 -3.231,-0.699 -5.21,-0.699 -3.667,0 -6.713,0.91 -9.129,2.727 -2.013,1.482 -3.604,3.516 -4.782,6.074 -1.175,2.557 -1.863,5.496 -2.053,8.809 l 8.925,0.638 c 0.393,-3.619 1.353,-6.251 2.876,-7.883 1.115,-1.217 2.415,-1.802 3.87,-1.734 2.048,0.068 3.679,1.075 4.912,3.027 0.618,0.958 0.937,2.326 0.937,4.115 0,2.584 -1.177,5.147 -3.523,7.699 -1.85,1.748 -4.631,4.387 -8.325,7.89 -3.121,3.013 -5.319,5.714 -6.605,8.094 -1.393,2.68 -2.081,5.591 -2.081,8.739 0,5.654 1.898,9.938 5.708,12.856 2.338,1.747 5.25,2.633 8.719,2.633 3.346,0 6.203,-0.748 8.583,-2.238 1.857,-1.157 3.347,-2.782 4.483,-4.864 1.15,-2.081 1.829,-4.475 2.068,-7.188 l -8.986,-1.64 c -0.258,2.544 -0.978,4.536 -2.177,5.951 -0.863,1.035 -2.101,1.544 -3.713,1.544 -1.727,0 -3.034,-0.755 -3.917,-2.285 -0.736,-1.217 -1.103,-2.741 -1.103,-4.564 0,-2.842 1.225,-5.734 3.673,-8.68 0.926,-1.121 2.313,-2.441 4.163,-3.965 2.183,-1.822 3.625,-3.081 4.313,-3.822 2.311,-2.312 4.106,-4.597 5.365,-6.842 C -2.23,7.815 -1.754,6.85 -1.388,5.959 -0.496,3.736 -0.026,1.748 0,0" />
    </g>
    <g
       style="fill:#ffffff"
       transform="matrix(1.0508305,0,0,-1.1886542,-892.85052,688.05649)"
       id="g4803">
      <path
         inkscape:connector-curvature="0"
         id="path4805"
         style="fill:#ffffff;fill-opacity:1;fill-rule:nonzero;stroke:none"
         d="m 0,0 -9.971,0 0,9.421 29.26,0 0,-9.421 -9.918,0 0,-52.712 -9.371,0 L 0,0 Z" />
    </g>
    <g
       style="fill:#ffffff"
       transform="matrix(1.0508305,0,0,-1.1886542,-843.24186,694.65209)"
       id="g4807">
      <path
         inkscape:connector-curvature="0"
         id="path4809"
         style="fill:#ffffff;fill-opacity:1;fill-rule:nonzero;stroke:none"
         d="m 0,0 c 0,3.604 -1.788,5.407 -5.359,5.407 l -5.651,0 0,-19.895 5.651,0 c 1.483,0 2.748,0.531 3.797,1.584 1.04,1.062 1.562,2.341 1.562,3.823 L 0,0 Z m -5.61,14.97 c 5.223,0 9.067,-1.435 11.508,-4.306 C 8.048,8.147 9.123,4.645 9.123,0.136 l 0,-9.021 c 0,-4.392 -1.674,-8.12 -5.007,-11.162 l 6.938,-27.116 -10.136,0 -5.678,23.405 -0.85,0 -5.4,0 0,-23.405 -9.374,0 0,62.133 14.774,0 z" />
    </g>
    <g
       style="fill:#ffffff"
       transform="matrix(1.0508305,0,0,-1.1886542,-823.17857,750.71271)"
       id="g4811">
      <path
         inkscape:connector-curvature="0"
         id="path4813"
         style="fill:#ffffff;fill-opacity:1;fill-rule:nonzero;stroke:none"
         d="m 0,0 0,62.188 26.685,0 0,-9.428 -17.327,0 0,-16.963 12.66,0 0,-9.421 -12.66,0 0,-16.956 17.327,0 0,-9.42 L 0,0 Z" />
    </g>
    <g
       style="fill:#ffffff"
       transform="matrix(1.0508305,0,0,-1.1886542,-755.79816,732.32922)"
       id="g4815">
      <path
         inkscape:connector-curvature="0"
         id="path4817"
         style="fill:#ffffff;fill-opacity:1;fill-rule:nonzero;stroke:none"
         d="m 0,0 c 0.074,-4.331 -1.056,-8.039 -3.368,-11.112 -1.524,-2.082 -3.665,-3.552 -6.446,-4.403 -1.485,-0.468 -3.225,-0.699 -5.211,-0.699 -3.674,0 -6.707,0.91 -9.128,2.727 -2.015,1.482 -3.606,3.516 -4.783,6.074 -1.175,2.557 -1.863,5.496 -2.06,8.809 l 8.925,0.638 c 0.407,-3.619 1.359,-6.251 2.882,-7.883 1.123,-1.217 2.421,-1.802 3.871,-1.734 2.047,0.068 3.686,1.075 4.904,3.027 0.632,0.958 0.944,2.326 0.944,4.115 0,2.584 -1.176,5.147 -3.515,7.699 -1.858,1.748 -4.625,4.387 -8.34,7.89 -3.109,3.013 -5.305,5.714 -6.584,8.094 -1.394,2.68 -2.08,5.591 -2.08,8.739 0,5.654 1.891,9.938 5.699,12.856 2.34,1.747 5.252,2.633 8.72,2.633 3.347,0 6.21,-0.748 8.584,-2.238 1.849,-1.157 3.353,-2.782 4.489,-4.864 1.136,-2.081 1.823,-4.475 2.054,-7.188 l -8.979,-1.64 c -0.266,2.544 -0.992,4.536 -2.176,5.951 -0.863,1.035 -2.101,1.544 -3.72,1.544 -1.728,0 -3.034,-0.755 -3.925,-2.285 -0.721,-1.217 -1.088,-2.741 -1.088,-4.564 0,-2.842 1.217,-5.734 3.673,-8.68 0.926,-1.121 2.312,-2.441 4.169,-3.965 2.184,-1.822 3.619,-3.081 4.319,-3.822 2.313,-2.312 4.094,-4.597 5.353,-6.842 C -2.226,7.815 -1.748,6.85 -1.382,5.959 -0.498,3.736 -0.022,1.748 0,0" />
    </g>
    <g
       transform="matrix(1.0508305,0,0,-1.1886542,-718.92473,894.84975)"
       id="g4819">
      <path
         inkscape:connector-curvature="0"
         id="path4821"
         style="fill:#231f20;fill-opacity:1;fill-rule:nonzero;stroke:none"
         d="m 0,0 -492.795,0 0.51,89.728 493.073,0 L 0,0 Z" />
    </g>
    <g
       transform="matrix(1.0508305,0,0,-1.1886542,-634.5278,785.13031)"
       id="g4823">
      <path
         inkscape:connector-curvature="0"
         id="path4825"
         style="fill:#231f20;fill-opacity:1;fill-rule:nonzero;stroke:none"
         d="m 0,0 -652.635,0 c -2.156,0 -3.904,-1.414 -3.904,-3.157 0,-1.74 1.748,-3.148 3.904,-3.148 L 0,-6.305 c 2.149,0 3.897,1.408 3.897,3.148 C 3.897,-1.414 2.149,0 0,0" />
    </g>
    <g
       style="fill:#ffffff"
       transform="matrix(1.0508305,0,0,-1.1886542,-1116.1202,598.86392)"
       id="g4827">
      <path
         inkscape:connector-curvature="0"
         id="path4829"
         style="fill:#ffffff;fill-opacity:1;fill-rule:nonzero;stroke:none"
         d="m 0,0 c 0.164,-11.291 -2.768,-20.929 -8.774,-28.935 -3.972,-5.42 -9.563,-9.263 -16.8,-11.494 -3.87,-1.204 -8.393,-1.809 -13.563,-1.809 -9.556,0 -17.48,2.366 -23.764,7.107 -5.252,3.877 -9.401,9.141 -12.461,15.815 -3.047,6.671 -4.843,14.316 -5.36,22.928 l 23.248,1.673 c 1.035,-9.434 3.537,-16.263 7.496,-20.5 2.925,-3.204 6.285,-4.721 10.08,-4.551 5.332,0.177 9.59,2.803 12.78,7.89 1.626,2.49 2.442,6.074 2.442,10.72 0,6.726 -3.054,13.406 -9.156,20.038 -4.828,4.563 -12.065,11.42 -21.696,20.554 -8.102,7.842 -13.828,14.861 -17.181,21.079 -3.619,6.978 -5.429,14.555 -5.429,22.745 0,14.732 4.946,25.886 14.849,33.477 6.121,4.564 13.691,6.849 22.731,6.849 8.699,0 16.154,-1.938 22.35,-5.808 4.816,-3.021 8.727,-7.237 11.686,-12.665 2.965,-5.421 4.754,-11.658 5.359,-18.732 L -24.547,82.13 c -0.68,6.632 -2.571,11.787 -5.68,15.495 -2.237,2.666 -5.468,4.005 -9.671,4.005 -4.483,0 -7.891,-1.979 -10.216,-5.944 -1.898,-3.177 -2.844,-7.148 -2.844,-11.876 0,-7.414 3.184,-14.943 9.556,-22.602 2.416,-2.924 6.034,-6.373 10.857,-10.338 5.685,-4.734 9.42,-8.04 11.236,-9.93 6.033,-6.041 10.672,-11.979 13.95,-17.828 1.55,-2.761 2.789,-5.292 3.74,-7.625 C -1.292,9.719 -0.095,4.564 0,0" />
    </g>
    <g
       style="fill:#ffffff"
       transform="matrix(1.0508305,0,0,-1.1886542,-1054.9308,498.46674)"
       id="g4831">
      <path
         inkscape:connector-curvature="0"
         id="path4833"
         style="fill:#ffffff;fill-opacity:1;fill-rule:nonzero;stroke:none"
         d="m 0,0 -9.033,-63.799 18.072,0 L 0,0 Z m -12.821,-87.571 -5.931,-37.192 -25.412,0 27.507,161.82 33.58,0 27.124,-161.82 -25.676,0 -5.7,37.192 -25.492,0 z" />
    </g>
    <g
       style="fill:#ffffff"
       transform="matrix(1.0508305,0,0,-1.1886542,-961.42026,646.76645)"
       id="g4835">
      <path
         inkscape:connector-curvature="0"
         id="path4837"
         style="fill:#ffffff;fill-opacity:1;fill-rule:nonzero;stroke:none"
         d="m 0,0 -24.405,0 0,161.948 35.022,0 22.751,-116.343 21.848,116.343 33.653,0 0,-161.948 -24.424,0 0,101.759 L 43.271,0 23.643,0 0,101.508 0,0 Z" />
    </g>
    <g
       style="fill:#ffffff"
       transform="matrix(1.0508305,0,0,-1.1886542,-800.20394,498.46674)"
       id="g4839">
      <path
         inkscape:connector-curvature="0"
         id="path4841"
         style="fill:#ffffff;fill-opacity:1;fill-rule:nonzero;stroke:none"
         d="m 0,0 -9.032,-63.799 18.065,0 L 0,0 Z m -12.828,-87.571 -5.918,-37.192 -25.424,0 27.506,161.82 33.587,0 27.119,-161.82 -25.664,0 -5.714,37.192 -25.492,0 z" />
    </g>
    <g
       transform="matrix(1.0508305,0,0,-1.1886542,-1160.3556,867.59546)"
       id="g4843">
      <path
         inkscape:connector-curvature="0"
         id="path4845"
         style="fill:#ffffff;fill-opacity:1;fill-rule:nonzero;stroke:none"
         d="m 0,0 c -3.176,0 -5.87,1.115 -8.087,3.332 -2.224,2.218 -3.333,4.904 -3.333,8.054 l 0,26.043 c 0,3.171 1.116,5.877 3.347,8.088 2.23,2.216 4.924,3.325 8.073,3.325 3.176,0 5.856,-1.109 8.067,-3.346 2.21,-2.238 3.312,-4.918 3.312,-8.067 l 0,-5.449 -7.462,0 0,5.592 c 0,1.15 -0.401,2.121 -1.217,2.938 -0.817,0.817 -1.789,1.211 -2.924,1.211 -1.15,0 -2.122,-0.394 -2.919,-1.211 -0.795,-0.817 -1.196,-1.788 -1.196,-2.938 l 0,-26.112 c 0,-1.142 0.401,-2.115 1.196,-2.911 0.797,-0.802 1.769,-1.203 2.919,-1.203 1.135,0 2.107,0.401 2.924,1.203 0.816,0.796 1.217,1.769 1.217,2.911 l 0,6.584 7.462,0 0,-6.658 C 11.379,8.217 10.264,5.522 8.033,3.319 5.795,1.102 3.122,0 0,0" />
    </g>
    <g
       transform="matrix(1.0508305,0,0,-1.1886542,-1126.2339,822.83751)"
       id="g4847">
      <path
         inkscape:connector-curvature="0"
         id="path4849"
         style="fill:#ffffff;fill-opacity:1;fill-rule:nonzero;stroke:none"
         d="M 0,0 C 0,1.149 -0.394,2.107 -1.198,2.917 -1.993,3.713 -2.973,4.108 -4.108,4.108 -5.251,4.108 -6.231,3.713 -7.04,2.917 -7.856,2.107 -8.264,1.149 -8.264,0 l 0,-26.111 c 0,-1.151 0.408,-2.117 1.224,-2.912 0.809,-0.81 1.789,-1.205 2.932,-1.205 1.135,0 2.115,0.395 2.91,1.205 0.804,0.795 1.198,1.761 1.198,2.912 L 0,0 Z m -3.917,11.271 c 3.169,0 5.869,-1.124 8.086,-3.355 2.218,-2.238 3.333,-4.923 3.333,-8.067 l 0,-26.043 c 0,-3.176 -1.115,-5.869 -3.353,-8.086 -2.238,-2.219 -4.918,-3.334 -8.066,-3.334 -3.177,0 -5.871,1.115 -8.074,3.346 -2.204,2.239 -3.313,4.924 -3.313,8.074 l 0,26.043 c 0,3.171 1.116,5.871 3.353,8.088 2.232,2.224 4.911,3.334 8.034,3.334" />
    </g>
    <g
       transform="matrix(1.0508305,0,0,-1.1886542,-1103.2192,810.12914)"
       id="g4851">
      <path
         inkscape:connector-curvature="0"
         id="path4853"
         style="fill:#ffffff;fill-opacity:1;fill-rule:nonzero;stroke:none"
         d="m 0,0 9.542,-32.077 0,32.077 7.197,0 0,-47.734 -7.727,0 -9.897,30.566 0,-30.566 -7.196,0 L -8.081,0 0,0 Z" />
    </g>
    <g
       transform="matrix(1.0508305,0,0,-1.1886542,-1054.3027,852.75356)"
       id="g4855">
      <path
         inkscape:connector-curvature="0"
         id="path4857"
         style="fill:#ffffff;fill-opacity:1;fill-rule:nonzero;stroke:none"
         d="m 0,0 c 0.048,-3.318 -0.81,-6.161 -2.584,-8.521 -1.17,-1.606 -2.823,-2.727 -4.952,-3.387 -1.143,-0.361 -2.469,-0.538 -3.992,-0.538 -2.824,0 -5.156,0.694 -7.013,2.09 -1.544,1.147 -2.768,2.698 -3.667,4.665 -0.903,1.972 -1.428,4.217 -1.584,6.767 l 6.85,0.489 c 0.298,-2.782 1.041,-4.794 2.217,-6.053 0.856,-0.939 1.85,-1.388 2.965,-1.333 1.578,0.047 2.83,0.823 3.768,2.32 0.477,0.74 0.721,1.795 0.721,3.169 0,1.978 -0.897,3.944 -2.7,5.896 -1.422,1.355 -3.558,3.382 -6.401,6.068 -2.379,2.306 -4.066,4.381 -5.06,6.211 -1.061,2.06 -1.598,4.292 -1.598,6.706 0,4.346 1.455,7.63 4.373,9.869 1.809,1.347 4.04,2.02 6.707,2.02 2.564,0 4.761,-0.579 6.584,-1.714 1.421,-0.891 2.571,-2.136 3.441,-3.735 0.878,-1.592 1.408,-3.434 1.585,-5.516 l -6.89,-1.259 c -0.204,1.961 -0.762,3.483 -1.68,4.572 -0.659,0.781 -1.611,1.176 -2.85,1.176 -1.319,0 -2.326,-0.584 -3.006,-1.754 -0.565,-0.933 -0.843,-2.102 -0.843,-3.496 0,-2.184 0.938,-4.407 2.816,-6.666 0.713,-0.857 1.781,-1.87 3.203,-3.041 1.673,-1.401 2.782,-2.372 3.312,-2.937 1.776,-1.769 3.15,-3.517 4.109,-5.252 0.462,-0.815 0.83,-1.557 1.108,-2.245 C -0.374,2.87 -0.02,1.348 0,0" />
    </g>
    <g
       transform="matrix(1.0508305,0,0,-1.1886542,-1041.0581,818.76435)"
       id="g4859">
      <path
         inkscape:connector-curvature="0"
         id="path4861"
         style="fill:#ffffff;fill-opacity:1;fill-rule:nonzero;stroke:none"
         d="m 0,0 -7.652,0 0,7.237 22.465,0 0,-7.237 -7.617,0 0,-40.47 L 0,-40.47 0,0 Z" />
    </g>
    <g
       transform="matrix(1.0508305,0,0,-1.1886542,-1002.9773,823.82422)"
       id="g4863">
      <path
         inkscape:connector-curvature="0"
         id="path4865"
         style="fill:#ffffff;fill-opacity:1;fill-rule:nonzero;stroke:none"
         d="m 0,0 c 0,2.761 -1.374,4.142 -4.108,4.142 l -4.339,0 0,-15.263 4.339,0 c 1.143,0 2.109,0.401 2.911,1.211 C -0.394,-9.094 0,-8.115 0,-6.979 L 0,0 Z m -4.298,11.494 c 4.012,0 6.951,-1.108 8.828,-3.318 C 6.177,6.243 7.007,3.557 7.007,0.108 l 0,-6.938 c 0,-3.366 -1.279,-6.223 -3.843,-8.562 l 5.325,-20.821 -7.781,0 -4.36,17.971 -0.646,0 -4.149,0 0,-17.971 -7.197,0 0,47.707 11.346,0 z" />
    </g>
    <g
       transform="matrix(1.0508305,0,0,-1.1886542,-976.88817,867.50726)"
       id="g4867">
      <path
         inkscape:connector-curvature="0"
         id="path4869"
         style="fill:#ffffff;fill-opacity:1;fill-rule:nonzero;stroke:none"
         d="m 0,0 c -3.177,0 -5.864,1.109 -8.074,3.313 -2.211,2.218 -3.312,4.89 -3.312,8.04 l 0,36.891 7.046,0 0,-36.824 c 0,-1.135 0.401,-2.114 1.217,-2.91 0.81,-0.797 1.789,-1.198 2.933,-1.198 1.141,0 2.107,0.401 2.91,1.198 0.803,0.796 1.197,1.775 1.197,2.91 l 0,36.824 7.496,0 0,-36.891 C 11.413,8.155 10.296,5.462 8.067,3.278 5.835,1.096 3.142,0 0,0" />
    </g>
    <path
       inkscape:connector-curvature="0"
       id="path4871"
       style="fill:#ffffff;fill-opacity:1;fill-rule:nonzero;stroke:none"
       d="m -950.60847,866.86931 -7.56073,0 0,-56.70713 7.56073,0 0,56.70713 z" />
    <g
       transform="matrix(1.0508305,0,0,-1.1886542,-936.29164,866.86883)"
       id="g4873">
      <path
         inkscape:connector-curvature="0"
         id="path4875"
         style="fill:#ffffff;fill-opacity:1;fill-rule:nonzero;stroke:none"
         d="m 0,0 -7.197,0 0,47.734 10.325,0 6.708,-34.287 6.44,34.287 9.923,0 0,-47.734 -7.202,0 0,30.002 L 12.759,0 6.972,0 0,29.921 0,0 Z" />
    </g>
    <g
       transform="matrix(1.0508305,0,0,-1.1886542,-872.5656,866.86883)"
       id="g4877">
      <path
         inkscape:connector-curvature="0"
         id="path4879"
         style="fill:#ffffff;fill-opacity:1;fill-rule:nonzero;stroke:none"
         d="m 0,0 -19.603,0 0,47.707 7.197,0 0,-40.551 L 0,7.156 0,0 Z" />
    </g>
    <g
       transform="matrix(1.0508305,0,0,-1.1886542,-846.74838,866.86883)"
       id="g4881">
      <path
         inkscape:connector-curvature="0"
         id="path4883"
         style="fill:#ffffff;fill-opacity:1;fill-rule:nonzero;stroke:none"
         d="m 0,0 -19.616,0 0,47.707 7.196,0 0,-40.551 L 0,7.156 0,0 Z" />
    </g>
    <g
       transform="matrix(1.0508305,0,0,-1.1886542,-827.87242,823.16142)"
       id="g4885">
      <path
         inkscape:connector-curvature="0"
         id="path4887"
         style="fill:#ffffff;fill-opacity:1;fill-rule:nonzero;stroke:none"
         d="m 0,0 -2.666,-18.8 5.326,0 L 0,0 Z m -3.781,-25.807 -1.756,-10.964 -7.488,0 8.107,47.708 9.897,0 7.992,-47.708 -7.564,0 -1.674,10.964 -7.514,0 z" />
    </g>
    <g
       transform="matrix(1.0508305,0,0,-1.1886542,-791.42793,823.82422)"
       id="g4889">
      <path
         inkscape:connector-curvature="0"
         id="path4891"
         style="fill:#ffffff;fill-opacity:1;fill-rule:nonzero;stroke:none"
         d="m 0,0 c 0,2.761 -1.374,4.142 -4.115,4.142 l -4.334,0 0,-15.263 4.334,0 c 1.142,0 2.122,0.401 2.917,1.211 C -0.396,-9.094 0,-8.115 0,-6.979 L 0,0 Z m -4.298,11.494 c 4.012,0 6.944,-1.108 8.828,-3.318 C 6.184,6.243 7.005,3.557 7.005,0.108 l 0,-6.938 c 0,-3.366 -1.285,-6.223 -3.849,-8.562 l 5.333,-20.821 -7.781,0 -4.361,17.971 -0.645,0 -4.151,0 0,-17.971 -7.209,0 0,47.707 11.36,0 z" />
    </g>
    <text
       xml:space="preserve"
       style="font-style:normal;font-variant:normal;font-weight:bold;font-stretch:normal;font-size:25px;line-height:125%;font-family:Arial;-inkscape-font-specification:'Arial Bold';letter-spacing:0px;word-spacing:0px;fill:#000000;fill-opacity:1;stroke:none;stroke-width:1px;stroke-linecap:butt;stroke-linejoin:miter;stroke-opacity:1;"
       x="171.33176"
       y="919.71826"
       id="text4293"
       sodipodi:linespacing="125%"><tspan
         sodipodi:role="line"
         id="tspan4295"
         x="171.33176"
         y="919.71826" /></text>
    <text
       xml:space="preserve"
       style="font-style:normal;font-variant:normal;font-weight:normal;font-stretch:normal;font-size:45px;line-height:125%;font-family:'Arial Narrow';-inkscape-font-specification:'Arial Narrow';letter-spacing:0px;word-spacing:0px;fill:#231f20;fill-opacity:1;stroke:none;stroke-width:1px;stroke-linecap:butt;stroke-linejoin:miter;stroke-opacity:1;"
       x="52.030762"
       y="945.42334"
       id="text4297"
       sodipodi:linespacing="125%"><tspan
         sodipodi:role="line"
         id="tspan4299"
         x="52.030762"
         y="945.42334"
         style="font-style:normal;font-variant:normal;font-weight:bold;font-stretch:normal;font-size:45px;font-family:'Arial Narrow';-inkscape-font-specification:'Arial Narrow Bold';fill:#231f20;fill-opacity:1;">Av. Constituci, 77-79  08860 Castelldefels (Barcelona)</tspan><tspan
         sodipodi:role="line"
         x="52.030762"
         y="1001.6733"
         style="font-style:normal;font-variant:normal;font-weight:bold;font-stretch:normal;font-size:45px;font-family:'Arial Narrow';-inkscape-font-specification:'Arial Narrow Bold';fill:#231f20;fill-opacity:1;"
         id="tspan4301" /></text>
    <rect
       style="opacity:1;fill:#231f20;fill-opacity:1;fill-rule:nonzero;stroke:none;stroke-width:3;stroke-miterlimit:4;stroke-dasharray:none;stroke-opacity:1"
       id="rect4309"
       width="1041.2549"
       height="57.479038"
       x="4.4214644"
       y="966.14362"
       ry="28.739519" />
    <text
       xml:space="preserve"
       style="font-style:normal;font-variant:normal;font-weight:bold;font-stretch:normal;font-size:35px;line-height:125%;font-family:'Arial Narrow';-inkscape-font-specification:'Arial Narrow Bold';letter-spacing:0px;word-spacing:0px;fill:#ffffff;fill-opacity:1;stroke:none;stroke-width:1px;stroke-linecap:butt;stroke-linejoin:miter;stroke-opacity:1;"
       x="15.475124"
       y="961.72217"
       id="text4303"
       sodipodi:linespacing="125%"><tspan
         sodipodi:role="line"
         id="tspan4305"
         x="15.475124"
         y="961.72217" /><tspan
         sodipodi:role="line"
         x="15.475124"
         y="1005.4722"
         id="tspan4307">info@subministressama.es         931050559        www.subministressama.es</tspan></text>
    <text
       xml:space="preserve"
       style="font-style:normal;font-variant:normal;font-weight:normal;font-stretch:normal;font-size:47.5px;line-height:125%;font-family:'Arial Narrow';-inkscape-font-specification:'Arial Narrow';letter-spacing:0px;word-spacing:0px;fill:#231f20;fill-opacity:1;stroke:none;stroke-width:1px;stroke-linecap:butt;stroke-linejoin:miter;stroke-opacity:1;"
       x="37.517372"
       y="864.77533"
       id="text4301"
       sodipodi:linespacing="125%"><tspan
         sodipodi:role="line"
         id="tspan4303"
         x="37.517372"
         y="864.77533"
         style="font-style:normal;font-variant:normal;font-weight:bold;font-stretch:normal;font-size:42.5px;font-family:'Arial Narrow';-inkscape-font-specification:'Arial Narrow Bold';fill:#231f20;fill-opacity:1;">Materials per a la construcci i la reforma</tspan></text>
  </g>
</svg>
