<?xml version="1.0" encoding="UTF-8" standalone="no"?>
<!-- Created with Inkscape (http://www.inkscape.org/) -->

<svg
   xmlns:dc="http://purl.org/dc/elements/1.1/"
   xmlns:cc="http://creativecommons.org/ns#"
   xmlns:rdf="http://www.w3.org/1999/02/22-rdf-syntax-ns#"
   xmlns:svg="http://www.w3.org/2000/svg"
   xmlns="http://www.w3.org/2000/svg"
   xmlns:sodipodi="http://sodipodi.sourceforge.net/DTD/sodipodi-0.dtd"
   xmlns:inkscape="http://www.inkscape.org/namespaces/inkscape"
   width="900mm"
   height="300mm"
   viewBox="0 0 900 300"
   version="1.1"
   id="svg8"
   inkscape:version="0.92.4 (5da689c313, 2019-01-14)"
   sodipodi:docname="acceso_exposición.svg">
  <defs
     id="defs2" />
  <sodipodi:namedview
     id="base"
     pagecolor="#ffffff"
     bordercolor="#666666"
     borderopacity="1.0"
     inkscape:pageopacity="0.0"
     inkscape:pageshadow="2"
     inkscape:zoom="0.175"
     inkscape:cx="1014.5666"
     inkscape:cy="560"
     inkscape:document-units="mm"
     inkscape:current-layer="layer1"
     showgrid="false"
     inkscape:window-width="1600"
     inkscape:window-height="837"
     inkscape:window-x="-8"
     inkscape:window-y="-8"
     inkscape:window-maximized="1" />
  <metadata
     id="metadata5">
    <rdf:RDF>
      <cc:Work
         rdf:about="">
        <dc:format>image/svg+xml</dc:format>
        <dc:type
           rdf:resource="http://purl.org/dc/dcmitype/StillImage" />
        <dc:title></dc:title>
      </cc:Work>
    </rdf:RDF>
  </metadata>
  <g
     inkscape:label="Capa 1"
     inkscape:groupmode="layer"
     id="layer1"
     transform="translate(0,3)">
    <path
       inkscape:connector-curvature="0"
       id="path858"
       d="M 18.21611,275.61418 C 8.1852539,273.992 7.6401062,264.96976 17.447324,262.89071 c 1.665868,-0.35315 12.19111,-0.64209 23.389425,-0.64209 h 20.360589 l 0.353507,-19.4763 0.353507,-19.47629 3.341019,-1.86253 3.341027,-1.86253 47.585672,-0.19036 47.58569,-0.19037 0.003,-18.29208 c 9e-4,-16.07208 0.25766,-18.57643 2.10939,-20.63504 1.15913,-1.28863 3.46356,-2.72075 5.12094,-3.18251 2.2521,-0.62745 14.81368,-0.84205 49.72134,-0.84946 l 46.70738,-0.01 0.0267,-19.32255 c 0.024,-17.29265 0.24558,-19.47316 2.10939,-20.7561 4.16001,-2.86348 5.47109,-2.93504 53.78196,-2.93504 h 46.43366 l 0.3535,-19.47629 0.35351,-19.476294 3.34102,-1.86253 3.34103,-1.86253 47.58568,-0.19037 47.58569,-0.19037 0.003,-18.29207 c 9e-4,-16.07208 0.25766,-18.57643 2.10939,-20.63504 1.15913,-1.28863 3.46356,-2.72075 5.12094,-3.18251 4.0736,-1.13493 109.73175,-1.23588 113.68497,-0.10862 7.60026,2.16721 9.15067,7.2021 3.33556,10.83218 l -3.51606,2.19489 -47.71199,0.19729 -47.712,0.19728 -0.0177,18.62121 c -0.0196,20.537944 -0.2256,21.197614 -7.2312,23.156764 -3.77777,1.05647 -8.789,1.17521 -49.63572,1.17615 l -45.43371,10e-4 -0.37019,19.01788 c -0.41709,21.42711 -0.63139,21.97565 -9.09769,23.28662 -2.77311,0.42941 -21.95448,0.70314 -49.4314,0.70543 l -44.90047,0.003 v 19.14393 19.14393 l -3.51606,2.19489 -3.51605,2.19489 -47.712,0.19729 -47.712,0.19728 -0.0177,18.62121 c -0.0196,20.53794 -0.2256,21.19761 -7.2312,23.15676 -3.77811,1.05656 -8.79231,1.17521 -49.70457,1.17615 l -45.502608,0.001 v 14.44991 14.44991 l 264.879148,0.01 c 208.67641,0.008 265.51855,0.18719 267.89256,0.84541 1.65738,0.45953 3.9513,1.9019 5.09759,3.20525 2.678,3.04496 1.08157,6.83792 -3.59759,8.54744 -3.01884,1.10294 -20.22138,1.1761 -300.98032,1.27994 -183.15194,0.0678 -299.284021,-0.13332 -301.689633,-0.52236 z M 92.782053,131.4395 c -3.564698,-1.39218 -6.251072,-4.93236 -5.335452,-7.03122 0.388235,-0.88996 1.851444,-2.33534 3.251571,-3.21197 1.400133,-0.87662 40.662808,-20.20062 87.250398,-42.942204 46.5876,-22.74158 84.52881,-41.44642 84.31381,-41.5663 -0.215,-0.11988 -7.6857,0.46715 -16.60155,1.30451 -22.49707,2.11288 -28.27473,1.17791 -29.71482,-4.80861 -0.59812,-2.48641 -0.25141,-2.99686 3.40573,-5.01418 l 4.07164,-2.24595 41.43283,-3.83726 c 41.0458,-3.80142 41.47343,-3.82613 45.78063,-2.64546 2.98692,0.81876 4.86188,1.95721 5.99012,3.6371 1.59491,2.37471 1.23567,3.12785 -12.44527,26.09183 -13.273,22.27922 -14.30753,23.7213 -17.89148,24.93981 -8.8898,3.02244 -18.87098,-0.10941 -18.87098,-5.92125 0,-1.05029 2.40296,-5.90434 5.33992,-10.7868 2.93695,-4.88246 5.06349,-8.87719 4.72563,-8.87719 -0.33784,0 -34.87886,16.71874 -76.75782,37.15276 -105.755123,51.601144 -95.55971,46.858354 -100.729897,46.858354 -2.42481,0 -5.671563,-0.49319 -7.21501,-1.09597 z"
       style="fill:#d4aa00;fill-opacity:1;stroke-width:0.9000628" />
    <text
       xml:space="preserve"
       style="font-style:normal;font-variant:normal;font-weight:normal;font-stretch:normal;font-size:118.53096008px;line-height:200;font-family:'Arial Nova';-inkscape-font-specification:'Arial Nova';letter-spacing:0px;word-spacing:0px;fill:#000000;fill-opacity:1;stroke:none;stroke-width:0.44449115"
       x="390.94049"
       y="233.8412"
       id="text850"
       transform="scale(1.0052169,0.99481022)"><tspan
         sodipodi:role="line"
         id="tspan848"
         x="390.94049"
         y="233.8412"
         style="fill:#000000;stroke-width:0.44449115">Exposició</tspan></text>
  </g>
</svg>
