<?xml version="1.0" encoding="UTF-8" standalone="no"?>
<!-- Created with Inkscape (http://www.inkscape.org/) -->

<svg
   xmlns:dc="http://purl.org/dc/elements/1.1/"
   xmlns:cc="http://creativecommons.org/ns#"
   xmlns:rdf="http://www.w3.org/1999/02/22-rdf-syntax-ns#"
   xmlns:svg="http://www.w3.org/2000/svg"
   xmlns="http://www.w3.org/2000/svg"
   xmlns:sodipodi="http://sodipodi.sourceforge.net/DTD/sodipodi-0.dtd"
   xmlns:inkscape="http://www.inkscape.org/namespaces/inkscape"
   width="700mm"
   height="300mm"
   viewBox="0 0 700 300"
   version="1.1"
   id="svg8"
   inkscape:version="0.92.4 (5da689c313, 2019-01-14)"
   sodipodi:docname="escalera_botiga.svg">
  <defs
     id="defs2" />
  <sodipodi:namedview
     id="base"
     pagecolor="#ffffff"
     bordercolor="#666666"
     borderopacity="1.0"
     inkscape:pageopacity="0.0"
     inkscape:pageshadow="2"
     inkscape:zoom="0.175"
     inkscape:cx="1014.5666"
     inkscape:cy="560"
     inkscape:document-units="mm"
     inkscape:current-layer="layer1"
     showgrid="false"
     inkscape:window-width="1600"
     inkscape:window-height="837"
     inkscape:window-x="-8"
     inkscape:window-y="-8"
     inkscape:window-maximized="1" />
  <metadata
     id="metadata5">
    <rdf:RDF>
      <cc:Work
         rdf:about="">
        <dc:format>image/svg+xml</dc:format>
        <dc:type
           rdf:resource="http://purl.org/dc/dcmitype/StillImage" />
        <dc:title></dc:title>
      </cc:Work>
    </rdf:RDF>
  </metadata>
  <g
     inkscape:label="Capa 1"
     inkscape:groupmode="layer"
     id="layer1"
     transform="translate(0,3)">
    <path
       inkscape:connector-curvature="0"
       id="path858"
       d="m 19.048964,275.61418 c -11.09756,-1.62218 -11.70068,-10.64442 -0.85054,-12.72347 1.84302,-0.35315 13.48754,-0.64209 25.87671,-0.64209 h 22.52578 l 0.3911,-19.4763 0.3911,-19.47629 3.69631,-1.86253 3.69632,-1.86253 52.646046,-0.19036 52.64606,-0.19037 0.003,-18.29208 c 0.001,-16.07208 0.28506,-18.57643 2.33371,-20.63504 1.2824,-1.28863 3.83188,-2.72075 5.66551,-3.18251 2.4916,-0.62745 16.389,-0.84205 55.00882,-0.84946 l 51.67435,-0.01 0.0296,-19.32255 c 0.0265,-17.29265 0.2717,-19.47316 2.33371,-20.7561 4.60239,-2.86348 6.0529,-2.93504 59.50125,-2.93504 h 51.37152 l 0.3911,-19.47629 0.3911,-19.476294 3.69631,-1.86253 3.69632,-1.86253 52.64605,-0.19037 52.64606,-0.19037 0.003,-18.29207 c 10e-4,-16.07208 0.28506,-18.57643 2.33371,-20.63504 1.2824,-1.28863 3.83188,-2.72075 5.66551,-3.18251 4.5068,-1.13493 121.40088,-1.23588 125.77449,-0.10862 8.40849,2.16721 10.12377,7.2021 3.69027,10.83218 l -3.88996,2.19489 -52.7858,0.19729 -52.7858,0.19728 -0.0196,18.62121 c -0.0217,20.537944 -0.24959,21.197614 -8.00018,23.156764 -4.17951,1.05647 -9.72365,1.17521 -54.9141,1.17615 l -50.26523,10e-4 -0.40956,19.01788 c -0.46145,21.42711 -0.69854,21.97565 -10.06516,23.28662 -3.06801,0.42941 -24.28917,0.70314 -54.68805,0.70543 l -49.67529,0.003 v 19.14393 19.14393 l -3.88996,2.19489 -3.88996,2.19489 -52.7858,0.19729 -52.7858,0.19728 -0.0196,18.62121 c -0.0217,20.53794 -0.24959,21.19761 -8.00018,23.15676 -4.17988,1.05656 -9.7273,1.17521 -54.99027,1.17615 l -50.341456,0.001 v 14.44991 14.44991 l 293.046996,0.01 c 230.86754,0.008 293.7544,0.18719 296.38087,0.84541 1.83363,0.45953 4.37149,1.9019 5.63968,3.20525 2.96279,3.04496 1.19659,6.83792 -3.98016,8.54744 -3.33988,1.10294 -22.37177,1.1761 -332.98726,1.27994 -202.62873,0.0678 -331.110566,-0.13332 -333.771996,-0.52236 z M 101.54442,131.4395 c -3.943776,-1.39218 -6.915826,-4.93236 -5.902836,-7.03122 0.42952,-0.88996 2.04833,-2.33534 3.59735,-3.21197 1.549026,-0.87662 44.986986,-20.20062 96.528806,-42.942204 51.54183,-22.74158 93.51779,-41.44642 93.27993,-41.5663 -0.23786,-0.11988 -8.50301,0.46715 -18.36699,1.30451 -24.88947,2.11288 -31.28154,1.17791 -32.87477,-4.80861 -0.66172,-2.48641 -0.27814,-2.99686 3.76791,-5.01418 l 4.50462,-2.24595 45.83889,-3.83726 c 45.41071,-3.80142 45.88381,-3.82613 50.64905,-2.64546 3.30456,0.81876 5.37891,1.95721 6.62713,3.6371 1.76451,2.37471 1.36707,3.12785 -13.76873,26.09183 -14.68448,22.27922 -15.82903,23.7213 -19.7941,24.93981 -9.83517,3.02244 -20.87777,-0.10941 -20.87777,-5.92125 0,-1.05029 2.6585,-5.90434 5.90778,-10.7868 3.24927,-4.88246 5.60195,-8.87719 5.22817,-8.87719 -0.37377,0 -38.58796,16.71874 -84.92043,37.15276 -117.00136,51.601144 -105.72174,46.858354 -111.44174,46.858354 -2.68267,0 -6.27469,-0.49319 -7.98227,-1.09597 z"
       style="fill:#d4aa00;fill-opacity:1;stroke-width:0.9467113" />
    <text
       xml:space="preserve"
       style="font-style:normal;font-variant:normal;font-weight:normal;font-stretch:normal;font-size:124.67419434px;line-height:200;font-family:'Arial Nova';-inkscape-font-specification:'Arial Nova';letter-spacing:0px;word-spacing:0px;fill:#000000;fill-opacity:1;stroke:none;stroke-width:0.46752825"
       x="302.91171"
       y="250.75642"
       id="text850"
       transform="scale(1.0573153,0.94579166)"><tspan
         sodipodi:role="line"
         id="tspan848"
         x="302.91171"
         y="250.75642"
         style="fill:#000000;stroke-width:0.46752825">Botiga</tspan></text>
  </g>
</svg>
