<?xml version="1.0" encoding="UTF-8" standalone="no"?>
<!-- Created with Inkscape (http://www.inkscape.org/) -->

<svg
   xmlns:dc="http://purl.org/dc/elements/1.1/"
   xmlns:cc="http://creativecommons.org/ns#"
   xmlns:rdf="http://www.w3.org/1999/02/22-rdf-syntax-ns#"
   xmlns:svg="http://www.w3.org/2000/svg"
   xmlns="http://www.w3.org/2000/svg"
   xmlns:sodipodi="http://sodipodi.sourceforge.net/DTD/sodipodi-0.dtd"
   xmlns:inkscape="http://www.inkscape.org/namespaces/inkscape"
   width="200"
   height="40"
   viewBox="0 0 200.00001 40.000002"
   id="svg2"
   version="1.1"
   inkscape:version="0.91 r13725"
   sodipodi:docname="logo-web-negro.svg">
  <defs
     id="defs4">
    <clipPath
       id="clipPath4150"
       clipPathUnits="userSpaceOnUse">
      <path
         inkscape:connector-curvature="0"
         id="path4152"
         d="m 0,595.28 841.89,0 L 841.89,0 0,0 0,595.28 Z" />
    </clipPath>
    <clipPath
       id="clipPath4470"
       clipPathUnits="userSpaceOnUse">
      <path
         inkscape:connector-curvature="0"
         id="path4472"
         d="m 0,841.89 595.28,0 L 595.28,0 0,0 0,841.89 Z" />
    </clipPath>
    <clipPath
       id="clipPath4478"
       clipPathUnits="userSpaceOnUse">
      <path
         inkscape:connector-curvature="0"
         id="path4480"
         d="m 136.844,181.595 323.079,0 0,-39.69 -323.079,0 0,39.69 z" />
    </clipPath>
    <pattern
       y="0"
       x="0"
       height="6"
       width="6"
       patternUnits="userSpaceOnUse"
       id="EMFhbasepattern" />
    <pattern
       y="0"
       x="0"
       height="6"
       width="6"
       patternUnits="userSpaceOnUse"
       id="EMFhbasepattern-6" />
    <pattern
       y="0"
       x="0"
       height="6"
       width="6"
       patternUnits="userSpaceOnUse"
       id="EMFhbasepattern-2" />
  </defs>
  <sodipodi:namedview
     id="base"
     pagecolor="#ffffff"
     bordercolor="#666666"
     borderopacity="1.0"
     inkscape:pageopacity="0.0"
     inkscape:pageshadow="2"
     inkscape:zoom="3.6203867"
     inkscape:cx="102.46815"
     inkscape:cy="35.249031"
     inkscape:document-units="px"
     inkscape:current-layer="layer1"
     showgrid="false"
     units="px"
     inkscape:window-width="1366"
     inkscape:window-height="705"
     inkscape:window-x="-8"
     inkscape:window-y="-8"
     inkscape:window-maximized="1"
     showguides="true"
     inkscape:guide-bbox="true">
    <sodipodi:guide
       position="4878.053,1567.4631"
       orientation="0,1"
       id="guide14055" />
    <sodipodi:guide
       position="3783.5314,4792.4732"
       orientation="0,1"
       id="guide14057" />
    <sodipodi:guide
       position="6589.6506,1090.0174"
       orientation="1,0"
       id="guide14059" />
    <sodipodi:guide
       position="355.83212,1193.6141"
       orientation="1,0"
       id="guide14061" />
  </sodipodi:namedview>
  <metadata
     id="metadata7">
    <rdf:RDF>
      <cc:Work
         rdf:about="">
        <dc:format>image/svg+xml</dc:format>
        <dc:type
           rdf:resource="http://purl.org/dc/dcmitype/StillImage" />
        <dc:title></dc:title>
      </cc:Work>
    </rdf:RDF>
  </metadata>
  <g
     inkscape:label="Capa 1"
     inkscape:groupmode="layer"
     id="layer1"
     transform="translate(0,-1012.3616)">
    <g
       id="g4154"
       transform="matrix(0.32707985,0,0,-0.60201777,10.331292,1042.3187)"
       style="fill:#ffcc00">
      <path
         d="m 0,0 c 0.061,-4.331 -1.061,-8.039 -3.374,-11.112 -1.516,-2.082 -3.666,-3.552 -6.434,-4.403 -1.496,-0.468 -3.231,-0.699 -5.216,-0.699 -3.673,0 -6.714,0.91 -9.129,2.727 -2.02,1.482 -3.604,3.516 -4.782,6.074 -1.176,2.557 -1.863,5.496 -2.054,8.809 l 8.918,0.638 c 0.401,-3.619 1.354,-6.251 2.884,-7.883 1.122,-1.217 2.414,-1.802 3.863,-1.734 2.047,0.068 3.686,1.075 4.918,3.027 0.618,0.958 0.939,2.326 0.939,4.115 0,2.584 -1.171,5.147 -3.524,7.699 -1.85,1.748 -4.632,4.387 -8.325,7.89 -3.122,3.013 -5.319,5.714 -6.598,8.094 -1.401,2.68 -2.088,5.591 -2.088,8.739 0,5.654 1.898,9.938 5.699,12.856 2.347,1.747 5.259,2.633 8.734,2.633 3.339,0 6.196,-0.748 8.577,-2.238 1.857,-1.157 3.346,-2.782 4.496,-4.864 1.136,-2.081 1.823,-4.475 2.06,-7.188 l -8.991,-1.64 c -0.259,2.544 -0.979,4.536 -2.177,5.951 -0.857,1.035 -2.101,1.544 -3.72,1.544 -1.72,0 -3.027,-0.755 -3.918,-2.285 -0.728,-1.217 -1.095,-2.741 -1.095,-4.564 0,-2.842 1.224,-5.734 3.673,-8.68 0.925,-1.121 2.312,-2.441 4.176,-3.965 2.176,-1.822 3.612,-3.081 4.305,-3.822 2.32,-2.312 4.101,-4.597 5.367,-6.842 C -2.224,7.815 -1.742,6.85 -1.388,5.959 -0.489,3.736 -0.027,1.748 0,0"
         style="fill:#ffcc00;fill-opacity:1;fill-rule:nonzero;stroke:none"
         id="path4156"
         inkscape:connector-curvature="0" />
    </g>
    <g
       id="g4158"
       transform="matrix(0.32707985,0,0,-0.60201777,17.712767,1052.0518)"
       style="fill:#ffcc00">
      <path
         d="m 0,0 c -4.135,0 -7.638,1.436 -10.522,4.319 -2.864,2.863 -4.312,6.367 -4.312,10.461 l 0,48.054 9.175,0 0,-47.951 c 0,-1.485 0.531,-2.756 1.592,-3.802 1.061,-1.035 2.326,-1.56 3.809,-1.56 1.489,0 2.761,0.525 3.808,1.56 1.027,1.046 1.552,2.317 1.552,3.802 l 0,47.951 9.767,0 0,-48.054 c 0,-4.169 -1.455,-7.665 -4.36,-10.509 C 7.604,1.43 4.094,0 0,0"
         style="fill:#ffcc00;fill-opacity:1;fill-rule:nonzero;stroke:none"
         id="path4160"
         inkscape:connector-curvature="0" />
    </g>
    <g
       id="g4162"
       transform="matrix(0.32707985,0,0,-0.60201777,28.611637,1046.0485)"
       style="fill:#ffcc00">
      <path
         d="m 0,0 3.924,0 c 3.17,0 5.373,1.64 6.597,4.911 0.429,1.121 0.64,2.414 0.64,3.862 0,3.476 -0.666,5.999 -1.986,7.592 -1.184,1.455 -2.938,2.189 -5.251,2.189 L 0,18.554 0,0 Z m 0,27.525 3.924,0 c 2.911,0 4.863,1.422 5.849,4.258 0.361,1.063 0.545,2.374 0.545,3.925 0,2.578 -0.626,4.53 -1.877,5.857 -1.164,1.217 -2.667,1.822 -4.517,1.822 L 0,43.387 0,27.525 Z m -10.114,-36.796 0,62.188 14.038,0 c 3.701,0 7.033,-0.973 10.013,-2.925 2.542,-1.652 4.366,-4.21 5.454,-7.693 0.599,-1.85 0.899,-4.047 0.899,-6.591 0,-4.17 -1.11,-7.503 -3.32,-10.024 -0.925,-1.055 -2.027,-1.864 -3.279,-2.423 2.082,-0.796 3.851,-2.373 5.306,-4.707 0.966,-1.591 1.673,-3.645 2.136,-6.161 0.224,-1.28 0.354,-2.728 0.354,-4.307 0,-3.938 -0.749,-7.277 -2.238,-10.019 -1.164,-2.162 -2.795,-3.877 -4.911,-5.169 -2.38,-1.44 -4.748,-2.169 -7.095,-2.169 l -17.357,0 z"
         style="fill:#ffcc00;fill-opacity:1;fill-rule:nonzero;stroke:none"
         id="path4164"
         inkscape:connector-curvature="0" />
    </g>
    <g
       id="g4166"
       transform="matrix(0.32707985,0,0,-0.60201777,41.347991,1051.6296)"
       style="fill:#ffcc00">
      <path
         d="m 0,0 -9.373,0 0,62.188 13.447,0 8.74,-44.681 8.38,44.681 12.923,0 0,-62.188 -9.373,0 0,39.074 L 16.61,0 9.08,0 0,38.972 0,0 Z"
         style="fill:#ffcc00;fill-opacity:1;fill-rule:nonzero;stroke:none"
         id="path4168"
         inkscape:connector-curvature="0" />
    </g>
    <path
       d="m 58.313326,1051.6296 -3.06572,0 0,-37.4052 3.06572,0 0,37.4052 z"
       style="fill:#ffcc00;fill-opacity:1;fill-rule:nonzero;stroke:none"
       id="path4170"
       inkscape:connector-curvature="0" />
    <g
       id="g4172"
       transform="matrix(0.32707985,0,0,-0.60201777,64.497965,1014.1915)"
       style="fill:#ffcc00">
      <path
         d="m 0,0 12.434,-41.804 0,41.804 9.372,0 0,-62.188 -10.059,0 -12.903,39.817 0,-39.817 -9.372,0 0,62.188 L 0,0 Z"
         style="fill:#ffcc00;fill-opacity:1;fill-rule:nonzero;stroke:none"
         id="path4174"
         inkscape:connector-curvature="0" />
    </g>
    <path
       d="m 77.440941,1051.6296 -3.065383,0 0,-37.4052 3.065383,0 0,37.4052 z"
       style="fill:#ffcc00;fill-opacity:1;fill-rule:nonzero;stroke:none"
       id="path4176"
       inkscape:connector-curvature="0" />
    <g
       id="g4178"
       transform="matrix(0.32707985,0,0,-0.60201777,90.139564,1042.3187)"
       style="fill:#ffcc00">
      <path
         d="m 0,0 c 0.061,-4.331 -1.062,-8.039 -3.374,-11.112 -1.523,-2.082 -3.673,-3.552 -6.44,-4.403 -1.497,-0.468 -3.231,-0.699 -5.21,-0.699 -3.667,0 -6.713,0.91 -9.129,2.727 -2.013,1.482 -3.604,3.516 -4.782,6.074 -1.175,2.557 -1.863,5.496 -2.053,8.809 l 8.925,0.638 c 0.393,-3.619 1.353,-6.251 2.876,-7.883 1.115,-1.217 2.415,-1.802 3.87,-1.734 2.048,0.068 3.679,1.075 4.912,3.027 0.618,0.958 0.937,2.326 0.937,4.115 0,2.584 -1.177,5.147 -3.523,7.699 -1.85,1.748 -4.631,4.387 -8.325,7.89 -3.121,3.013 -5.319,5.714 -6.605,8.094 -1.393,2.68 -2.081,5.591 -2.081,8.739 0,5.654 1.898,9.938 5.708,12.856 2.338,1.747 5.25,2.633 8.719,2.633 3.346,0 6.203,-0.748 8.583,-2.238 1.857,-1.157 3.347,-2.782 4.483,-4.864 1.15,-2.081 1.829,-4.475 2.068,-7.188 l -8.986,-1.64 c -0.258,2.544 -0.978,4.536 -2.177,5.951 -0.863,1.035 -2.101,1.544 -3.713,1.544 -1.727,0 -3.034,-0.755 -3.917,-2.285 -0.736,-1.217 -1.103,-2.741 -1.103,-4.564 0,-2.842 1.225,-5.734 3.673,-8.68 0.926,-1.121 2.313,-2.441 4.163,-3.965 2.183,-1.822 3.625,-3.081 4.313,-3.822 2.311,-2.312 4.106,-4.597 5.365,-6.842 C -2.23,7.815 -1.754,6.85 -1.388,5.959 -0.496,3.736 -0.026,1.748 0,0"
         style="fill:#ffcc00;fill-opacity:1;fill-rule:nonzero;stroke:none"
         id="path4180"
         inkscape:connector-curvature="0" />
    </g>
    <g
       id="g4182"
       transform="matrix(0.32707985,0,0,-0.60201777,95.510186,1019.896)"
       style="fill:#ffcc00">
      <path
         d="m 0,0 -9.971,0 0,9.421 29.26,0 0,-9.421 -9.918,0 0,-52.712 -9.371,0 L 0,0 Z"
         style="fill:#ffcc00;fill-opacity:1;fill-rule:nonzero;stroke:none"
         id="path4184"
         inkscape:connector-curvature="0" />
    </g>
    <g
       id="g4186"
       transform="matrix(0.32707985,0,0,-0.60201777,110.9513,1023.2366)"
       style="fill:#ffcc00">
      <path
         d="m 0,0 c 0,3.604 -1.788,5.407 -5.359,5.407 l -5.651,0 0,-19.895 5.651,0 c 1.483,0 2.748,0.531 3.797,1.584 1.04,1.062 1.562,2.341 1.562,3.823 L 0,0 Z m -5.61,14.97 c 5.223,0 9.067,-1.435 11.508,-4.306 C 8.048,8.147 9.123,4.645 9.123,0.136 l 0,-9.021 c 0,-4.392 -1.674,-8.12 -5.007,-11.162 l 6.938,-27.116 -10.136,0 -5.678,23.405 -0.85,0 -5.4,0 0,-23.405 -9.374,0 0,62.133 14.774,0 z"
         style="fill:#ffcc00;fill-opacity:1;fill-rule:nonzero;stroke:none"
         id="path4188"
         inkscape:connector-curvature="0" />
    </g>
    <g
       id="g4190"
       transform="matrix(0.32707985,0,0,-0.60201777,117.19616,1051.6296)"
       style="fill:#ffcc00">
      <path
         d="m 0,0 0,62.188 26.685,0 0,-9.428 -17.327,0 0,-16.963 12.66,0 0,-9.421 -12.66,0 0,-16.956 17.327,0 0,-9.42 L 0,0 Z"
         style="fill:#ffcc00;fill-opacity:1;fill-rule:nonzero;stroke:none"
         id="path4192"
         inkscape:connector-curvature="0" />
    </g>
    <g
       id="g4194"
       transform="matrix(0.32707985,0,0,-0.60201777,138.16888,1042.3187)"
       style="fill:#ffcc00">
      <path
         d="m 0,0 c 0.074,-4.331 -1.056,-8.039 -3.368,-11.112 -1.524,-2.082 -3.665,-3.552 -6.446,-4.403 -1.485,-0.468 -3.225,-0.699 -5.211,-0.699 -3.674,0 -6.707,0.91 -9.128,2.727 -2.015,1.482 -3.606,3.516 -4.783,6.074 -1.175,2.557 -1.863,5.496 -2.06,8.809 l 8.925,0.638 c 0.407,-3.619 1.359,-6.251 2.882,-7.883 1.123,-1.217 2.421,-1.802 3.871,-1.734 2.047,0.068 3.686,1.075 4.904,3.027 0.632,0.958 0.944,2.326 0.944,4.115 0,2.584 -1.176,5.147 -3.515,7.699 -1.858,1.748 -4.625,4.387 -8.34,7.89 -3.109,3.013 -5.305,5.714 -6.584,8.094 -1.394,2.68 -2.08,5.591 -2.08,8.739 0,5.654 1.891,9.938 5.699,12.856 2.34,1.747 5.252,2.633 8.72,2.633 3.347,0 6.21,-0.748 8.584,-2.238 1.849,-1.157 3.353,-2.782 4.489,-4.864 1.136,-2.081 1.823,-4.475 2.054,-7.188 l -8.979,-1.64 c -0.266,2.544 -0.992,4.536 -2.176,5.951 -0.863,1.035 -2.101,1.544 -3.72,1.544 -1.728,0 -3.034,-0.755 -3.925,-2.285 -0.721,-1.217 -1.088,-2.741 -1.088,-4.564 0,-2.842 1.217,-5.734 3.673,-8.68 0.926,-1.121 2.312,-2.441 4.169,-3.965 2.184,-1.822 3.619,-3.081 4.319,-3.822 2.313,-2.312 4.094,-4.597 5.353,-6.842 C -2.226,7.815 -1.748,6.85 -1.382,5.959 -0.498,3.736 -0.022,1.748 0,0"
         style="fill:#ffcc00;fill-opacity:1;fill-rule:nonzero;stroke:none"
         id="path4196"
         inkscape:connector-curvature="0" />
    </g>
    <g
       id="g4206"
       transform="matrix(0.12322474,0,0,-0.23120235,156.58888,1042.0279)"
       style="fill:#000000">
      <path
         d="m 0,0 c 0.164,-11.291 -2.768,-20.929 -8.774,-28.935 -3.972,-5.42 -9.563,-9.263 -16.8,-11.494 -3.87,-1.204 -8.393,-1.809 -13.563,-1.809 -9.556,0 -17.48,2.366 -23.764,7.107 -5.252,3.877 -9.401,9.141 -12.461,15.815 -3.047,6.671 -4.843,14.316 -5.36,22.928 l 23.248,1.673 c 1.035,-9.434 3.537,-16.263 7.496,-20.5 2.925,-3.204 6.285,-4.721 10.08,-4.551 5.332,0.177 9.59,2.803 12.78,7.89 1.626,2.49 2.442,6.074 2.442,10.72 0,6.726 -3.054,13.406 -9.156,20.038 -4.828,4.563 -12.065,11.42 -21.696,20.554 -8.102,7.842 -13.828,14.861 -17.181,21.079 -3.619,6.978 -5.429,14.555 -5.429,22.745 0,14.732 4.946,25.886 14.849,33.477 6.121,4.564 13.691,6.849 22.731,6.849 8.699,0 16.154,-1.938 22.35,-5.808 4.816,-3.021 8.727,-7.237 11.686,-12.665 2.965,-5.421 4.754,-11.658 5.359,-18.732 L -24.547,82.13 c -0.68,6.632 -2.571,11.787 -5.68,15.495 -2.237,2.666 -5.468,4.005 -9.671,4.005 -4.483,0 -7.891,-1.979 -10.216,-5.944 -1.898,-3.177 -2.844,-7.148 -2.844,-11.876 0,-7.414 3.184,-14.943 9.556,-22.602 2.416,-2.924 6.034,-6.373 10.857,-10.338 5.685,-4.734 9.42,-8.04 11.236,-9.93 6.033,-6.041 10.672,-11.979 13.95,-17.828 1.55,-2.761 2.789,-5.292 3.74,-7.625 C -1.292,9.719 -0.095,4.564 0,0"
         style="fill:#000000;fill-opacity:1;fill-rule:nonzero;stroke:none"
         id="path4208"
         inkscape:connector-curvature="0" />
    </g>
    <g
       id="g4210"
       transform="matrix(0.12322474,0,0,-0.23120235,163.76418,1022.4999)"
       style="fill:#000000">
      <path
         d="m 0,0 -9.033,-63.799 18.072,0 L 0,0 Z m -12.821,-87.571 -5.931,-37.192 -25.412,0 27.507,161.82 33.58,0 27.124,-161.82 -25.676,0 -5.7,37.192 -25.492,0 z"
         style="fill:#000000;fill-opacity:1;fill-rule:nonzero;stroke:none"
         id="path4212"
         inkscape:connector-curvature="0" />
    </g>
    <g
       id="g4214"
       transform="matrix(0.12322474,0,0,-0.23120235,174.72964,1051.3452)"
       style="fill:#000000">
      <path
         d="m 0,0 -24.405,0 0,161.948 35.022,0 22.751,-116.343 21.848,116.343 33.653,0 0,-161.948 -24.424,0 0,101.759 L 43.271,0 23.643,0 0,101.508 0,0 Z"
         style="fill:#000000;fill-opacity:1;fill-rule:nonzero;stroke:none"
         id="path4216"
         inkscape:connector-curvature="0" />
    </g>
    <g
       id="g4218"
       transform="matrix(0.12322474,0,0,-0.23120235,193.63452,1022.4999)"
       style="fill:#000000">
      <path
         d="m 0,0 -9.032,-63.799 18.065,0 L 0,0 Z m -12.828,-87.571 -5.918,-37.192 -25.424,0 27.506,161.82 33.587,0 27.119,-161.82 -25.664,0 -5.714,37.192 -25.492,0 z"
         style="fill:#000000;fill-opacity:1;fill-rule:nonzero;stroke:none"
         id="path4220"
         inkscape:connector-curvature="0" />
    </g>
  </g>
</svg>
