<?xml version="1.0" encoding="UTF-8" standalone="no"?>
<!-- Created with Inkscape (http://www.inkscape.org/) -->

<svg
   xmlns:dc="http://purl.org/dc/elements/1.1/"
   xmlns:cc="http://creativecommons.org/ns#"
   xmlns:rdf="http://www.w3.org/1999/02/22-rdf-syntax-ns#"
   xmlns:svg="http://www.w3.org/2000/svg"
   xmlns="http://www.w3.org/2000/svg"
   xmlns:sodipodi="http://sodipodi.sourceforge.net/DTD/sodipodi-0.dtd"
   xmlns:inkscape="http://www.inkscape.org/namespaces/inkscape"
   width="644.526"
   height="220.675"
   viewBox="0 0 644.526 220.67501"
   id="svg2"
   version="1.1"
   inkscape:version="0.91 r13725"
   sodipodi:docname="logo-asnef.svg">
  <defs
     id="defs4">
    <clipPath
       id="clipPath4154"
       clipPathUnits="userSpaceOnUse">
      <path
         inkscape:connector-curvature="0"
         id="path4156"
         d="m 0,209.966 548.851,0 L 548.851,0 0,0 0,209.966 Z" />
    </clipPath>
    <clipPath
       id="clipPath4246"
       clipPathUnits="userSpaceOnUse">
      <path
         inkscape:connector-curvature="0"
         id="path4248"
         d="m 0,209.966 548.851,0 L 548.851,0 0,0 0,209.966 Z" />
    </clipPath>
  </defs>
  <sodipodi:namedview
     id="base"
     pagecolor="#ffffff"
     bordercolor="#666666"
     borderopacity="1.0"
     inkscape:pageopacity="0.0"
     inkscape:pageshadow="2"
     inkscape:zoom="0.7"
     inkscape:cx="249.82215"
     inkscape:cy="177.14286"
     inkscape:document-units="px"
     inkscape:current-layer="layer1"
     showgrid="false"
     units="px"
     inkscape:window-width="1366"
     inkscape:window-height="705"
     inkscape:window-x="-8"
     inkscape:window-y="-8"
     inkscape:window-maximized="1" />
  <metadata
     id="metadata7">
    <rdf:RDF>
      <cc:Work
         rdf:about="">
        <dc:format>image/svg+xml</dc:format>
        <dc:type
           rdf:resource="http://purl.org/dc/dcmitype/StillImage" />
        <dc:title></dc:title>
      </cc:Work>
    </rdf:RDF>
  </metadata>
  <g
     inkscape:label="Capa 1"
     inkscape:groupmode="layer"
     id="layer1"
     transform="translate(0,-831.68716)">
    <text
       style="font-variant:normal;font-weight:500;font-stretch:normal;font-size:13.82262421px;font-family:'HelveticaNeueLT Std Med';-inkscape-font-specification:HelveticaNeueLTStd-Md;writing-mode:lr-tb;fill:#2f3843;fill-opacity:1;fill-rule:nonzero;stroke:none"
       id="text4146"
       x="445.95377"
       y="998.67578">
      <tspan
         x="445.95377 455.17346 463.37027 474.12427 481.80966 486.42642 494.11179 502.5574 506.40012 514.84576"
         y="998.67578"
         sodipodi:role="line"
         id="tspan4148">Powered by</tspan>
    </text>
    <g
       id="g4150"
       transform="matrix(1.25,0,0,-1.25,-24.628486,1069.5035)">
      <g
         id="g4152"
         clip-path="url(#clipPath4154)">
        <g
           id="g4158"
           transform="translate(504.692,47.5074)">
          <path
             d="m 0,0 0.242,0 c 0.275,0 0.507,0.098 0.507,0.354 0,0.18 -0.132,0.361 -0.507,0.361 C 0.133,0.715 0.061,0.707 0,0.699 L 0,0 Z m 0,-1.143 -0.333,0 0,2.063 c 0.174,0.026 0.341,0.052 0.59,0.052 0.319,0 0.526,-0.069 0.65,-0.158 0.124,-0.09 0.192,-0.231 0.192,-0.428 0,-0.271 -0.185,-0.435 -0.408,-0.501 l 0,-0.017 C 0.872,-0.165 0.999,-0.33 1.039,-0.634 1.087,-0.954 1.14,-1.077 1.173,-1.143 l -0.349,0 c -0.048,0.066 -0.1,0.256 -0.141,0.527 -0.051,0.262 -0.183,0.36 -0.448,0.36 l -0.235,0 0,-0.887 z m 0.35,2.639 c -0.824,0 -1.496,-0.7 -1.496,-1.562 0,-0.88 0.672,-1.57 1.503,-1.57 0.835,-0.008 1.5,0.69 1.5,1.56 0,0.872 -0.665,1.572 -1.5,1.572 l -0.007,0 z m 0.007,0.289 c 1.024,0 1.839,-0.823 1.839,-1.851 0,-1.042 -0.815,-1.857 -1.846,-1.857 -1.024,0 -1.858,0.815 -1.858,1.857 0,1.028 0.834,1.851 1.858,1.851 l 0.007,0 z"
             style="fill:#a20e32;fill-opacity:1;fill-rule:nonzero;stroke:none"
             id="path4160"
             inkscape:connector-curvature="0" />
        </g>
        <g
           id="g4162"
           transform="translate(376.7998,32.6199)">
          <path
             d="m 0,0 4.153,18.178 16.417,0 -0.764,-3.666 -9.032,0 -0.679,-3.069 7.879,0 -0.81,-3.627 -7.892,0 -0.869,-3.958 9.286,0 L 16.874,0 0,0 Z"
             style="fill:#a20e32;fill-opacity:1;fill-rule:nonzero;stroke:none"
             id="path4164"
             inkscape:connector-curvature="0" />
        </g>
        <g
           id="g4166"
           transform="translate(403.799,44.1635)">
          <path
             d="m 0,0 c -1.168,-3.207 -1.571,-6.148 -1.571,-6.148 -0.392,-2.162 1.178,-2.937 2.694,-2.937 1.239,0 2.988,0.723 3.533,2.216 1.132,3.102 1.572,6.206 1.572,6.206 C 6.786,2.771 3.532,2.272 3.532,2.272 0.93,2.447 0,0 0,0 m -7.068,-0.886 c 1.684,6.428 6.17,6.372 11.498,6.261 3.649,-0.077 9.312,-0.11 8.305,-5.762 0,0 -0.226,-1.605 -0.594,-3.344 l -5.748,0 11.543,-13.656 -7.659,0 -5.002,5.92 c 0,0 -1.911,-0.665 -4.939,-0.553 -3.028,0.11 -8.639,-0.002 -8.413,5.207 0.113,2.603 1.009,5.927 1.009,5.927"
             style="fill:#a20e32;fill-opacity:1;fill-rule:nonzero;stroke:none"
             id="path4168"
             inkscape:connector-curvature="0" />
        </g>
        <g
           id="g4170"
           transform="translate(419.5499,48.7647)">
          <path
             d="m 0,0 6.699,0 c 0,0 -2.144,-9.31 -2.606,-11.606 0,0 0.069,-1.914 2.116,-1.921 0,0 2.679,-0.408 3.219,1.762 L 12.109,0 l 6.8,0 c 0,0 -2.574,-11.636 -3.022,-13.078 -0.45,-1.44 -2.693,-3.378 -7.798,-3.655 -0.88,-0.048 -2.413,0 -4.152,0.223 l -6.112,7.146 c 0,0 1.638,7.455 2.175,9.364"
             style="fill:#a20e32;fill-opacity:1;fill-rule:nonzero;stroke:none"
             id="path4172"
             inkscape:connector-curvature="0" />
        </g>
        <g
           id="g4174"
           transform="translate(440.9901,48.7647)">
          <path
             d="m 0,0 6.842,0 -3.695,-16.114 -6.685,0 L 0,0 Z"
             style="fill:#a20e32;fill-opacity:1;fill-rule:nonzero;stroke:none"
             id="path4176"
             inkscape:connector-curvature="0" />
        </g>
        <g
           id="g4178"
           transform="translate(453.5748,32.6505)">
          <path
             d="m 0,0 -6.752,0 3.554,16.114 14.725,0 -0.778,-3.153 -7.755,0 -0.74,-2.967 6.619,0 -0.698,-3.096 -6.55,0 L 0,0 Z"
             style="fill:#a20e32;fill-opacity:1;fill-rule:nonzero;stroke:none"
             id="path4180"
             inkscape:connector-curvature="0" />
        </g>
        <g
           id="g4182"
           transform="translate(467.537,39.6775)">
          <path
             d="M 0,0 4.299,0 3.771,5.318 0,0 Z m -4.714,-7.027 -4.742,0 11.521,16.114 8.183,0 1.631,-13.078 5.494,4.988 -5.391,8.09 8.668,0 2.612,-4.1 4.226,4.1 6.645,0 -8.626,-7.481 5.63,-8.633 -8.362,0 -2.819,4.811 -4.684,-4.811 -10.11,0 -0.312,3.519 -7.15,0 -2.414,-3.519 z"
             style="fill:#a20e32;fill-opacity:1;fill-rule:nonzero;stroke:none"
             id="path4184"
             inkscape:connector-curvature="0" />
        </g>
        <g
           id="g4186"
           transform="translate(71.9678,99.3683)">
          <path
             d="m 0,0 c -0.815,-0.406 -1.808,-0.835 -2.978,-1.29 -1.833,-0.759 -3.105,-1.366 -3.818,-1.822 -1.019,-0.608 -1.872,-1.344 -2.561,-2.206 -0.688,-0.864 -1.162,-1.956 -1.419,-3.277 -0.103,-0.408 -0.154,-0.814 -0.155,-1.22 -0.005,-2.239 1.213,-3.36 3.654,-3.365 1.627,-0.004 2.9,0.628 3.818,1.898 0.919,1.269 1.583,2.793 1.994,4.572 L 0,0 Z m -3.166,-16.928 c -2.09,-1.825 -3.974,-3.144 -5.654,-3.953 -1.68,-0.809 -3.664,-1.212 -5.953,-1.207 -2.848,0.006 -5.059,0.762 -6.631,2.265 -1.573,1.504 -2.357,3.578 -2.351,6.223 0.003,0.965 0.106,1.957 0.312,2.974 0.513,2.287 1.23,4.269 2.15,5.945 0.919,1.676 1.99,3.059 3.213,4.15 1.223,1.09 2.509,1.964 3.859,2.623 1.348,0.657 2.836,1.239 4.466,1.745 0.66,0.201 1.679,0.478 3.053,0.831 2.849,0.807 4.974,1.591 6.375,2.351 1.4,0.759 2.28,1.978 2.64,3.655 0.051,0.406 0.078,0.813 0.079,1.221 0.002,0.915 -0.252,1.678 -0.758,2.29 -0.507,0.611 -1.244,0.918 -2.21,0.92 -1.882,0.004 -3.193,-0.488 -3.932,-1.478 C -5.248,12.636 -5.925,11.074 -6.54,8.94 L -6.694,8.483 -18.822,8.51 c 0.876,5.083 3.148,8.867 6.815,11.35 3.31,2.231 7.559,3.34 12.746,3.328 4.984,-0.011 8.581,-0.694 10.79,-2.046 2.208,-1.353 3.31,-3.581 3.302,-6.682 -0.002,-1.272 -0.185,-2.721 -0.543,-4.347 L 8.66,-16.039 c -0.155,-0.661 -0.233,-1.373 -0.234,-2.135 -0.002,-0.763 0.072,-1.629 0.223,-2.594 l -11.824,0.026 0.009,3.814 z"
             style="fill:#666a6f;fill-opacity:1;fill-rule:nonzero;stroke:none"
             id="path4188"
             inkscape:connector-curvature="0" />
        </g>
        <g
           id="g4190"
           transform="translate(110.1295,108.8913)">
          <path
             d="M 0,0 C 0.001,0.203 0.026,0.483 0.078,0.839 0.233,1.855 0.311,2.567 0.312,2.975 0.313,3.381 0.262,3.738 0.162,4.043 0.061,4.653 -0.23,5.112 -0.712,5.418 -1.196,5.724 -1.893,5.878 -2.809,5.88 -4.03,5.883 -5.073,5.592 -5.939,5.01 -6.805,4.427 -7.366,3.526 -7.623,2.306 -7.623,2.204 -7.624,2.077 -7.624,1.925 -7.675,1.772 -7.701,1.645 -7.701,1.544 -7.703,0.729 -7.437,0.055 -6.905,-0.48 c 0.533,-0.535 1.23,-1.059 2.095,-1.568 0.812,-0.41 1.752,-0.87 2.819,-1.38 1.829,-0.869 3.288,-1.597 4.381,-2.184 1.092,-0.588 2.107,-1.302 3.046,-2.143 0.939,-0.841 1.686,-1.835 2.244,-2.98 0.556,-1.145 0.834,-2.481 0.83,-4.007 -0.002,-0.966 -0.132,-2.009 -0.389,-3.126 -0.977,-4.525 -3.21,-7.914 -6.697,-10.169 -3.49,-2.254 -7.624,-3.377 -12.404,-3.366 -4.221,0.009 -7.512,0.818 -9.873,2.425 -2.361,1.607 -3.537,4.09 -3.53,7.446 0.003,1.373 0.209,2.898 0.621,4.575 l 11.595,-0.026 c -0.258,-0.966 -0.386,-1.856 -0.388,-2.669 -10e-4,-0.61 0.074,-1.171 0.225,-1.679 0.403,-1.374 1.47,-2.063 3.199,-2.066 1.322,-0.004 2.442,0.337 3.359,1.022 0.917,0.684 1.529,1.686 1.837,3.008 10e-4,0.102 10e-4,0.254 0.002,0.458 0.05,0.203 0.077,0.33 0.077,0.381 0.002,1.017 -0.328,1.832 -0.987,2.444 -0.813,0.509 -2.209,1.25 -4.19,2.221 -2.49,1.176 -4.457,2.223 -5.904,3.142 -1.448,0.918 -2.628,2.065 -3.54,3.44 -1.064,1.681 -1.594,3.462 -1.589,5.344 0.002,0.864 0.105,1.754 0.311,2.669 0.925,4.371 3.119,7.659 6.582,9.863 3.463,2.205 7.458,3.302 11.984,3.291 3.967,-0.009 7.142,-0.855 9.53,-2.538 2.386,-1.684 3.575,-4.154 3.568,-7.409 -0.003,-1.22 -0.185,-2.542 -0.543,-3.965 L 0,0 Z"
             style="fill:#666a6f;fill-opacity:1;fill-rule:nonzero;stroke:none"
             id="path4192"
             inkscape:connector-curvature="0" />
        </g>
        <g
           id="g4194"
           transform="translate(140.746,121.3473)">
          <path
             d="m 0,0 -1.156,-5.337 0.152,-0.001 c 0.969,1.727 2.41,3.249 4.32,4.568 1.911,1.317 3.755,1.974 5.535,1.97 2.644,-0.006 4.829,-0.634 6.556,-1.883 1.726,-1.251 2.587,-2.994 2.582,-5.231 -0.001,-0.561 -0.054,-1.171 -0.157,-1.831 l -7.556,-34.997 -12.128,0.028 6.554,30.498 c 0,0.05 0.025,0.229 0.077,0.534 0,0.203 0.001,0.355 0.001,0.458 0.002,0.813 -0.187,1.436 -0.568,1.87 -0.38,0.432 -1.028,0.65 -1.944,0.653 -2.187,-0.047 -3.538,-1.213 -4.051,-3.5 l -6.553,-30.541 -12.129,0 L -11.29,0.026 0,0 Z"
             style="fill:#666a6f;fill-opacity:1;fill-rule:nonzero;stroke:none"
             id="path4196"
             inkscape:connector-curvature="0" />
        </g>
        <g
           id="g4198"
           transform="translate(183.9623,106.0533)">
          <path
             d="m 0,0 0.925,4.193 c 0,0.102 0.026,0.229 0.077,0.382 C 1.003,4.829 1.003,5.006 1.003,5.109 1.005,6.024 0.752,6.826 0.246,7.513 -0.261,8.201 -1.1,8.546 -2.269,8.549 -3.846,8.552 -5.068,8.021 -5.934,6.955 -6.802,5.889 -7.415,4.518 -7.774,2.84 L -8.391,0.019 0,0 Z m -10.087,-7.987 -1.62,-7.471 c -0.103,-0.509 -0.154,-0.967 -0.155,-1.373 -0.002,-0.916 0.237,-1.654 0.719,-2.214 0.482,-0.561 1.231,-0.868 2.249,-0.921 1.728,-0.004 2.95,0.514 3.665,1.556 0.714,1.04 1.327,2.577 1.841,4.611 l 0.308,1.219 12.052,-0.027 c -0.826,-5.338 -2.895,-9.351 -6.206,-12.039 -3.312,-2.688 -7.689,-4.05 -13.129,-4.089 -4.171,0.01 -7.525,0.832 -10.064,2.464 -2.54,1.633 -3.805,4.153 -3.797,7.561 0.003,1.017 0.131,2.109 0.389,3.279 l 3.777,17.384 c 1.08,5.185 3.313,8.904 6.701,11.16 3.386,2.255 7.622,3.402 12.708,3.442 4.221,-0.01 7.614,-0.78 10.178,-2.312 2.564,-1.531 3.844,-3.926 3.836,-7.179 C 13.363,6.148 13.259,5.182 13.053,4.166 l -2.621,-12.199 -20.519,0.046 z"
             style="fill:#666a6f;fill-opacity:1;fill-rule:nonzero;stroke:none"
             id="path4200"
             inkscape:connector-curvature="0" />
        </g>
        <g
           id="g4202"
           transform="translate(206.4037,112.4863)">
          <path
             d="m 0,0 -4.882,0.011 1.927,8.768 4.806,-0.011 0.847,3.736 c 0.925,3.964 2.533,6.757 4.825,8.38 2.292,1.622 5.447,2.429 9.464,2.419 l 5.341,-0.012 -1.852,-8.768 -2.593,0.006 C 17.121,14.531 16.472,14.418 15.937,14.19 15.402,13.962 15.083,13.594 14.981,13.086 L 14.055,8.74 19.242,8.729 17.316,-0.039 12.129,-0.028 4.881,-33.88 -7.248,-33.853 0,0 Z"
             style="fill:#666a6f;fill-opacity:1;fill-rule:nonzero;stroke:none"
             id="path4204"
             inkscape:connector-curvature="0" />
        </g>
        <g
           id="g4206"
           transform="translate(494.5381,98.174)">
          <path
             d="M 0,0 11.639,0 C 12.538,2.895 11.974,5.005 9.97,6.324 7.946,7.648 4.223,7.987 -1.211,7.987 c -5.257,0 -9.404,-0.403 -12.434,-1.832 -3.035,-1.436 -4.977,-3.519 -5.837,-6.266 -0.496,-1.585 -0.419,-2.868 0.233,-3.855 0.658,-0.969 1.612,-1.766 2.87,-2.37 1.26,-0.6 2.679,-1.091 4.251,-1.474 1.577,-0.372 3.033,-0.746 4.365,-1.112 1.334,-0.365 2.405,-0.809 3.201,-1.324 0.794,-0.515 1.05,-1.21 0.785,-2.091 -0.238,-0.733 -0.773,-1.345 -1.62,-1.846 -0.847,-0.505 -1.92,-0.76 -3.205,-0.76 -1.207,0 -2.117,0.234 -2.721,0.698 -0.62,0.47 -0.741,1.288 -0.382,2.435 l 0.202,0.643 -12.031,0 -0.292,-0.946 c -0.44,-1.399 -0.452,-2.59 -0.042,-3.542 0.413,-0.964 1.208,-1.731 2.386,-2.317 1.171,-0.606 2.72,-1.012 4.62,-1.253 1.909,-0.24 4.151,-0.358 6.742,-0.358 5.475,0 9.864,0.648 13.172,1.942 3.299,1.299 5.392,3.381 6.292,6.247 0.511,1.634 0.429,2.966 -0.261,3.987 -0.688,1.013 -1.688,1.835 -3.003,2.472 -1.319,0.624 -2.78,1.132 -4.399,1.522 -1.616,0.394 -3.123,0.772 -4.526,1.152 -1.398,0.374 -2.513,0.824 -3.355,1.331 -0.84,0.52 -1.121,1.219 -0.841,2.105 0.182,0.601 0.658,1.148 1.442,1.636 0.771,0.495 1.831,0.738 3.173,0.738 1.193,0 2.003,-0.29 2.405,-0.845 C 0.38,2.133 0.454,1.45 0.201,0.641 L 0,0 Z"
             style="fill:#a20e32;fill-opacity:1;fill-rule:nonzero;stroke:none"
             id="path4208"
             inkscape:connector-curvature="0" />
        </g>
        <g
           id="g4210"
           transform="translate(289.2905,106.1609)">
          <path
             d="M 0,0 -8.589,-14.691 -10.997,0 l -15.087,0 -5.831,-27.544 7.998,0 4.588,22.866 3.352,-22.866 7.226,0 12.781,22.613 -5.253,-22.613 11.52,0.021 L 16.162,0 0,0 Z"
             style="fill:#a20e32;fill-opacity:1;fill-rule:nonzero;stroke:none"
             id="path4212"
             inkscape:connector-curvature="0" />
        </g>
        <g
           id="g4214"
           transform="translate(319.7148,94.6913)">
          <path
             d="m 0,0 -2.703,0 1.132,5.674 2.416,0 C 4.32,5.674 6.09,4.773 6.154,2.972 6.223,0.992 4.173,0 0,0 m 15.966,7.265 c -0.93,1.171 -2.145,2.107 -3.657,2.811 -1.512,0.697 -2.964,1.14 -4.362,1.317 C 6.55,11.582 4.319,11.47 1.251,11.47 l -13.042,0 -5.617,-27.552 11.43,0 2.06,10.147 7.679,0 c 4.489,0 7.915,0.912 10.269,2.749 2.355,1.84 3.485,4.049 3.395,6.643 -0.048,1.365 -0.536,2.641 -1.459,3.808"
             style="fill:#a20e32;fill-opacity:1;fill-rule:nonzero;stroke:none"
             id="path4216"
             inkscape:connector-curvature="0" />
        </g>
        <g
           id="g4218"
           transform="translate(448.0237,90.3959)">
          <path
             d="M 0,0 6.495,9.196 7.401,0 0,0 Z m 3.555,15.765 -19.856,-27.551 8.178,0 4.155,5.713 12.323,0 0.534,-5.713 12.366,0 -3.594,27.551 -14.106,0 z"
             style="fill:#a20e32;fill-opacity:1;fill-rule:nonzero;stroke:none"
             id="path4220"
             inkscape:connector-curvature="0" />
        </g>
        <g
           id="g4222"
           transform="translate(255.8895,90.5686)">
          <path
             d="m 0,0 1.219,5.506 -11.915,0 1.025,4.662 13.659,0 1.16,5.424 -24.787,0 -6.32,-27.458 25.512,0 1.236,5.852 -14.037,0 L -11.936,0 0,0 Z"
             style="fill:#a20e32;fill-opacity:1;fill-rule:nonzero;stroke:none"
             id="path4224"
             inkscape:connector-curvature="0" />
        </g>
        <g
           id="g4226"
           transform="translate(398.2156,90.2825)">
          <path
             d="m 0,0 1.225,5.541 -11.974,0 1.028,4.683 13.732,0 1.169,5.654 -24.917,0 -4.11,-17.992 8.278,-9.559 15.122,0 1.239,5.638 -14.11,0 L -11.999,0 0,0 Z"
             style="fill:#a20e32;fill-opacity:1;fill-rule:nonzero;stroke:none"
             id="path4228"
             inkscape:connector-curvature="0" />
        </g>
        <g
           id="g4230"
           transform="translate(434.2227,90.7813)">
          <path
             d="m 0,0 c -0.691,1.012 -1.691,1.843 -3.006,2.473 -1.317,0.622 -2.785,1.138 -4.404,1.526 -1.612,0.385 -3.123,0.775 -4.524,1.146 -1.395,0.38 -2.514,0.825 -3.354,1.339 -0.839,0.516 -1.125,1.217 -0.846,2.098 0.186,0.607 0.665,1.148 1.446,1.64 0.772,0.488 1.832,0.734 3.167,0.734 1.202,0 2.012,-0.283 2.411,-0.844 0.402,-0.571 0.475,-1.256 0.218,-2.059 l -0.194,-0.639 11.634,0 c 0.904,2.892 0.342,5 -1.67,6.321 -2.024,1.32 -5.758,1.644 -11.188,1.644 -5.261,0 -9.396,-0.381 -12.427,-1.817 -3.027,-1.438 -4.973,-3.523 -5.83,-6.261 -0.5,-1.586 -0.419,-2.866 0.234,-3.853 0.65,-0.975 1.607,-1.772 2.864,-2.372 1.26,-0.603 2.676,-1.098 4.257,-1.473 1.573,-0.38 3.03,-0.746 4.359,-1.113 1.332,-0.367 2.405,-0.809 3.198,-1.321 0.799,-0.516 1.059,-1.211 0.786,-2.093 -0.23,-0.732 -0.769,-1.345 -1.614,-1.852 -0.847,-0.506 -1.919,-0.752 -3.207,-0.752 -1.209,0 -2.119,0.232 -2.722,0.696 -0.619,0.465 -0.739,1.282 -0.378,2.43 l 0.198,0.649 -12.031,0 -0.296,-0.945 c -0.436,-1.407 -0.453,-2.595 -0.035,-3.548 0.415,-0.96 1.204,-1.729 2.385,-2.318 1.167,-0.599 2.714,-1.007 4.621,-1.248 1.905,-0.238 4.148,-0.36 6.744,-0.36 5.471,0 9.858,0.651 13.165,1.941 3.298,1.303 5.393,3.38 6.296,6.25 C 0.764,-2.346 0.686,-1.021 0,0"
             style="fill:#a20e32;fill-opacity:1;fill-rule:nonzero;stroke:none"
             id="path4232"
             inkscape:connector-curvature="0" />
        </g>
        <g
           id="g4234"
           transform="translate(354.6987,94.7107)">
          <path
             d="m 0,0 -4.398,0 1.348,5.614 4.08,0 C 4.599,5.614 6.382,4.775 6.382,3.079 6.382,1.03 4.255,0 0,0 m 6.929,-1.802 8.738,0.01 c 1.49,1.389 2.254,3.115 2.254,5.194 0,2.486 -1.117,4.443 -3.353,5.886 -2.227,1.438 -5.668,2.161 -10.322,2.161 l -17.946,0 -6.538,-27.55 11.996,0 2.496,10.269 5.807,0.032 9.036,-10.301 10.281,0 -12.449,14.299 z"
             style="fill:#a20e32;fill-opacity:1;fill-rule:nonzero;stroke:none"
             id="path4236"
             inkscape:connector-curvature="0" />
        </g>
      </g>
    </g>
    <text
       style="font-variant:normal;font-weight:500;font-stretch:normal;font-size:38.75px;font-family:'HelveticaNeueLT Std Med';-inkscape-font-specification:HelveticaNeueLTStd-Md;writing-mode:lr-tb;fill:#b9b7b8;fill-opacity:1;fill-rule:nonzero;stroke:none"
       id="text4238"
       x="36.376137"
       y="883.28644">
      <tspan
         x="36.376137 64.353645 73.69239 83.031143 104.57614 126.81864 139.72238 161.26738 172.03989 193.58488 217.26112 239.50363 261.04865 274.68863 284.02737 307.70364 330.6824"
         y="883.28644"
         sodipodi:role="line"
         id="tspan4240">Cliente adherido</tspan>
    </text>
    <g
       id="g4242"
       transform="matrix(1.25,0,0,-1.25,-24.628486,1069.5035)">
      <g
         id="g4244"
         clip-path="url(#clipPath4246)">
        <path
           d="m 532.299,16.943 -508.621,0 0,169.54 508.621,0 0,-169.54 z"
           style="fill:none;stroke:#b9b7b8;stroke-width:7;stroke-linecap:butt;stroke-linejoin:miter;stroke-miterlimit:10;stroke-dasharray:none;stroke-opacity:1"
           id="path4250"
           inkscape:connector-curvature="0" />
      </g>
    </g>
  </g>
</svg>
