<?xml version="1.0" encoding="UTF-8" standalone="no"?>
<svg
   xmlns:dc="http://purl.org/dc/elements/1.1/"
   xmlns:cc="http://creativecommons.org/ns#"
   xmlns:rdf="http://www.w3.org/1999/02/22-rdf-syntax-ns#"
   xmlns:svg="http://www.w3.org/2000/svg"
   xmlns="http://www.w3.org/2000/svg"
   xmlns:sodipodi="http://sodipodi.sourceforge.net/DTD/sodipodi-0.dtd"
   xmlns:inkscape="http://www.inkscape.org/namespaces/inkscape"
   version="1.1"
   width="595.27557"
   height="841.88977"
   id="svg40"
   viewBox="0 0 595.27557 841.88977"
   sodipodi:docname="Fotolia_27539728_V1.svg"
   inkscape:version="0.92.4 (5da689c313, 2019-01-14)">
  <metadata
     id="metadata46">
    <rdf:RDF>
      <cc:Work
         rdf:about="">
        <dc:format>image/svg+xml</dc:format>
        <dc:type
           rdf:resource="http://purl.org/dc/dcmitype/StillImage" />
        <dc:title />
      </cc:Work>
    </rdf:RDF>
  </metadata>
  <defs
     id="defs44" />
  <sodipodi:namedview
     pagecolor="#ffffff"
     bordercolor="#666666"
     borderopacity="1"
     objecttolerance="10"
     gridtolerance="10"
     guidetolerance="10"
     inkscape:pageopacity="0"
     inkscape:pageshadow="2"
     inkscape:window-width="1600"
     inkscape:window-height="837"
     id="namedview42"
     showgrid="false"
     inkscape:zoom="0.1982174"
     inkscape:cx="362.26475"
     inkscape:cy="404.6595"
     inkscape:window-x="-8"
     inkscape:window-y="-8"
     inkscape:window-maximized="1"
     inkscape:current-layer="svg40" />
  <g
     id="Layer1000">
    <g
       id="Layer1001">
      <g
         id="Layer1002">
        <g
           id="Layer1003" />
      </g>
    </g>
  </g>
  <path
     d="m 441.03907,190.61715 -68.66356,-57.13378 c -25.66537,24.41452 -51.32924,48.83095 -76.99332,73.24682 1.61496,-15.65557 3.21802,-31.20019 4.79942,-46.54445 -20.09922,0 -39.93595,0.003 -59.39331,0.004 -1.67617,29.77317 -3.2822,58.36696 -4.77463,85.03647 -28.74278,29.6978 -54.25933,56.04898 -74.60167,77.03992 21.2853,2.18107 38.52344,3.93633 50.57268,5.1532 0.005,4.61902 0.0104,8.42446 0.0163,11.34295 0.003,23.03808 0.21754,49.9726 0.6017,79.78731 0.19209,14.90735 0.42618,30.53581 0.69637,46.75363 0.2702,16.21775 0.57655,33.02532 0.91315,50.27862 -32.68927,-0.19038 -66.47979,0.0104 -100.17165,0.71428 -33.691841,0.7038 -67.286495,1.91187 -99.439871,3.59678 31.881197,1.90726 66.110315,3.24079 101.416761,4.03444 35.30631,0.79372 71.68832,1.04924 107.77239,0.89991 0.6427,-34.79814 1.1813,-69.80515 1.59729,-103.38558 0.41603,-33.5803 0.70962,-65.72705 0.86243,-94.75408 0.007,-3.33568 0.0136,-7.7168 0.0199,-13.05711 -13.11973,1.20806 -33.17358,1.81076 -56.51907,3.9939 l 81.93205,-70.02632 c -1.4914,-25.55742 1.6671,-49.51301 -0.009,-78.05091 9.98622,0.003 23.73492,4.60197 34.04207,4.60335 1.58135,14.18625 3.18436,28.55713 4.79943,43.02997 27.11664,-20.8008 54.66663,-41.93312 81.86109,-62.79606 h 9e-5 l 133.54655,100.04793 z"
     style="fill:#666666;fill-rule:evenodd;stroke-width:0.32572365"
     id="path8"
     inkscape:connector-curvature="0" />
  <path
     d="m 514.68648,215.52742 -73.18224,-65.03827 c -25.66537,24.41453 -51.32925,48.83094 -76.99332,73.24685 1.61496,-15.6556 3.21797,-31.20022 4.79942,-46.54447 -20.09913,0 -39.93597,0.003 -59.39333,0.004 -1.67615,29.77321 -3.28219,58.36696 -4.77462,85.03651 -28.74278,29.69776 -54.25923,56.04898 -74.60157,77.03989 21.2853,2.18106 38.52339,3.93633 50.57257,5.15328 0.005,4.61894 0.0106,8.42447 0.0163,11.34296 0.003,23.03808 0.21754,49.9726 0.60171,79.7874 0.19208,14.90735 0.42618,30.53582 0.69637,46.75354 0.27016,16.21775 0.57653,33.02525 0.91315,50.27861 -32.68932,-0.19032 -66.47972,0.0104 -100.17164,0.71433 -33.69186,0.70374 -67.28654,1.91181 -99.439884,3.59672 31.881184,1.90733 66.110324,3.24078 101.416724,4.03451 35.30634,0.79365 71.68833,1.04917 107.77242,0.89991 0.6427,-34.79818 1.18126,-69.8052 1.59729,-103.38553 0.41604,-33.58031 0.70964,-65.72705 0.86243,-94.75409 0.007,-3.3357 0.0136,-7.71679 0.0199,-13.05713 -13.11975,1.20806 -33.17359,1.81079 -56.51908,3.99393 l 81.93205,-70.02632 c -1.4914,-25.55743 1.66711,-49.51304 -0.009,-78.05092 9.98624,0.003 23.73494,4.60207 34.04209,4.60335 1.58133,14.18625 3.18436,28.55711 4.79941,43.02997 27.11666,-20.80079 54.66655,-41.93315 81.8611,-62.79605 h 1.1e-4 l 133.54658,100.04805 z"
     style="fill:#ff0000;fill-rule:evenodd;stroke-width:0.32572365"
     id="path10"
     inkscape:connector-curvature="0" />
  <g
     id="Layer1004">
    <g
       id="Layer1005">
      <path
         d="m 5162.1846,3312.9907 c -10.0358,0 -19.2606,-1.527 -27.6744,-4.5816 -8.4149,-3.1417 -15.6705,-7.854 -21.7661,-14.1373 -6.0959,-6.2832 -10.8581,-14.1808 -14.2869,-23.6933 -3.4299,-9.5993 -5.2211,-20.8571 -5.3742,-33.7726 -0.1519,-12.8282 1.4184,-23.9111 4.7115,-33.249 3.38,-9.3376 7.9123,-17.1915 13.5963,-23.5621 5.6843,-6.3703 12.7823,-11.2575 21.2942,-14.6611 8.598,-3.4906 17.8279,-5.2358 27.6891,-5.2361 8.0285,3e-4 15.7651,1.1347 23.2098,3.4035 7.5316,2.2692 14.2387,4.8872 20.1209,7.854 l 0.3271,27.6202 h -1.44 c -1.7632,-1.4834 -4.0522,-3.1853 -6.8672,-5.1052 -2.7281,-1.9199 -6.0676,-3.8832 -10.0182,-5.8907 -3.4243,-1.7453 -7.4566,-3.2723 -12.0972,-4.5816 -4.6409,-1.309 -9.0992,-1.9636 -13.3753,-1.9636 -12.7411,0 -22.9376,4.8436 -30.5897,14.5301 -7.566,9.5996 -11.2445,23.2132 -11.0356,40.8413 0.2047,17.2792 4.0731,30.7619 11.6056,40.4487 7.6187,9.5996 18.0604,14.3992 31.3251,14.3992 8.0286,0 15.645,-1.658 22.8489,-4.9743 7.204,-3.3162 13.5675,-7.5923 19.0905,-12.8284 h 1.44 l 0.3272,27.6202 c -2.4302,1.1344 -5.4681,2.5308 -9.1134,4.1887 -3.6468,1.571 -6.9489,2.7491 -9.9068,3.5343 -4.1743,1.2217 -7.9161,2.1379 -11.2249,2.749 -3.3081,0.6982 -7.5802,1.0471 -12.816,1.0471 z m 0,0 v 0 z"
         style="fill:#333333;fill-rule:evenodd"
         id="path12"
         inkscape:connector-curvature="0" />
      <path
         d="m 5347.5537,3236.675 c 0.2914,24.6095 -5.4176,43.6339 -17.1267,57.073 -11.7105,13.352 -27.4269,20.0279 -47.1492,20.0279 -20.3335,0 -36.4289,-6.8941 -48.2859,-20.6824 -11.7709,-13.8756 -17.7971,-32.6818 -18.078,-56.4185 -0.2894,-24.435 5.4638,-43.4155 17.259,-56.9421 11.8829,-13.5264 27.6418,-20.2896 47.2771,-20.2898 19.7223,2e-4 35.5981,6.7634 47.6266,20.2898 12.0274,13.4393 18.1862,32.4201 18.4768,56.9421 z m -25.3948,0 c -0.2242,-18.9369 -3.8378,-32.9871 -10.8402,-42.1504 -7.0039,-9.2503 -16.8761,-13.8756 -29.6173,-13.8756 -12.8284,3e-4 -22.6785,4.6253 -29.5503,13.8756 -6.7856,9.1633 -10.0664,23.2132 -9.8422,42.1504 0.2172,18.3262 3.8291,32.2455 10.8358,41.7577 7.0928,9.4249 17.0538,14.1372 29.8819,14.1372 12.6536,0 22.3731,-4.6253 29.1578,-13.8756 6.8706,-9.3376 10.1956,-23.3441 9.9745,-42.0193 z"
         style="fill:#333333;fill-rule:evenodd"
         id="path14"
         inkscape:connector-curvature="0" />
      <path
         d="M 5539.6658,3309.7181 4317.6722,445.3157 c -0.08,-6.7195 -0.415,-12.9154 -1.0055,-18.5881 -0.5918,-5.7595 -1.7362,-10.2538 -3.4321,-13.4827 -1.787,-3.4906 -4.3045,-6.0651 -7.553,-7.7233 -3.2487,-1.658 -7.6218,-2.4871 -13.1196,-2.4871 -5.0615,2e-4 -10.4972,1.5709 -16.3068,4.7126 -5.7237,3.0546 -11.6487,7.5052 -17.7755,13.352 0.1046,1.4836 0.2132,3.2726 0.3254,5.3671 0.1981,2.0072 0.3138,4.407 0.347,7.1994 l 1.1392,96.2127 h -24.6095 l -1.0015,-84.5623 c -0.08,-6.7195 -0.4147,-12.9155 -1.0055,-18.5882 -0.5918,-5.7594 -1.7359,-10.2537 -3.4322,-13.4827 -1.7866,-3.4905 -4.3044,-6.065 -7.5529,-7.7232 -3.2485,-1.658 -7.6218,-2.4872 -13.1196,-2.4872 -5.3234,3e-4 -10.889,1.6583 -16.6963,4.9743 -5.8076,3.3162 -11.4301,7.5486 -16.8667,12.6975 l 1.2929,109.1718 h -24.6096 l -1.7314,-146.2169 h 24.6096 l 0.1922,16.2317 c 6.3813,-6.4576 12.6929,-11.4318 18.9348,-14.9227 6.3281,-3.5779 13.2883,-5.3668 20.8809,-5.3671 8.6394,3e-4 16.2986,1.9635 22.9776,5.8907 6.766,3.9271 11.9478,10.385 15.5449,19.3733 7.3194,-8.2902 14.4882,-14.5734 21.5065,-18.8498 7.018,-4.2758 14.6721,-6.4139 22.9626,-6.4142 6.283,3e-4 12.011,1.0037 17.1836,3.0107 5.1715,1.9201 9.7027,5.0615 13.5944,9.4249 3.9796,4.4506 7.056,9.9921 9.229,16.6246 2.2601,6.6325 3.4495,14.9664 3.5686,25.0021 l 1.1392,96.2127 h -24.6095 z m 0,0 v 0 z"
         style="fill:#333333;fill-rule:evenodd"
         id="path16"
         inkscape:connector-curvature="0" />
      <path
         d="m 5720.053,3232.7478 c 0.2883,24.3479 -5.3288,43.765 -16.8511,58.2512 -11.4361,14.3991 -26.0555,21.5988 -43.8579,21.5988 -7.2434,0 -13.6672,-0.8291 -19.2719,-2.4871 -5.605,-1.658 -11.3513,-4.2324 -17.2395,-7.7233 l 0.7254,61.2621 h -24.6095 l -2.3704,-200.1484 h 24.6096 l 0.1814,15.3156 c 6.0435,-5.4978 12.7525,-10.0791 20.1271,-13.7446 7.4605,-3.7522 15.5977,-5.6285 24.412,-5.6288 16.7553,3e-4 29.8803,6.6325 39.3752,19.897 9.582,13.2647 14.5052,31.0674 14.7699,53.4078 m -25.3627,2.7488 c -0.1976,-16.668 -3.0121,-29.5838 -8.4438,-38.7468 -5.4329,-9.2503 -14.1273,-13.8756 -26.0827,-13.8756 -6.9815,3e-4 -13.7262,1.571 -20.234,4.7126 -6.4216,3.0546 -12.5272,7.0251 -18.3161,11.912 l 0.9814,82.8607 c 6.495,3.1416 12.018,5.2798 16.5696,6.4142 4.6386,1.1345 9.925,1.7017 15.8593,1.7017 12.7409,0 22.5907,-4.6687 29.5486,-14.0066 6.9579,-9.3376 10.3306,-22.9949 10.118,-40.9722 z m 0,0 v 0 z"
         style="fill:#333333;fill-rule:evenodd"
         id="path18"
         inkscape:connector-curvature="0" />
      <path
         d="M 5827.7466,3273.7201 4318.1929,489.2987 c -5.8408,0.5238 -13.2497,1.2654 -22.227,2.2252 -8.8912,0.8728 -16.0756,2.1381 -21.5538,3.7961 -6.5214,2.0072 -11.8953,5.1052 -16.1218,9.294 -4.2276,4.1017 -6.2974,9.8611 -6.2095,17.2789 0.099,8.3777 2.5302,14.7047 7.2935,18.9807 4.7631,4.2761 11.6824,6.4143 20.7584,6.4143 7.7666,0 14.7722,-1.658 21.0163,-4.9743 6.2428,-3.4035 12.0844,-7.5486 17.5244,-12.4356 m 0.2418,20.4208 c -1.9897,1.4837 -4.6701,3.5779 -8.0416,6.2833 -3.2851,2.6181 -6.4894,4.7126 -9.6123,6.2833 -4.3364,2.2688 -8.5484,4.0144 -12.6354,5.2361 -4,1.2218 -9.665,1.8326 -16.9954,1.8326 -6.0217,0 -11.7511,-1.1344 -17.1885,-3.4035 -5.4374,-2.2689 -10.2314,-5.4542 -14.3816,-9.5559 -3.9747,-4.0144 -7.1744,-8.945 -9.6001,-14.7917 -2.4264,-5.9341 -3.6785,-12.1737 -3.7559,-18.7189 -0.1199,-10.1231 1.9163,-18.7189 6.1087,-25.7876 4.1913,-7.1558 10.8873,-12.8282 20.0883,-17.0173 8.1587,-3.7525 17.8149,-6.3269 28.9686,-7.7232 11.1527,-1.4834 23.1826,-2.5745 36.0902,-3.2726 l -0.056,-4.7126 c -0.068,-5.7595 -0.9958,-10.3848 -2.7822,-13.8756 -1.7878,-3.5779 -4.2638,-6.3267 -7.4281,-8.2469 -3.1655,-2.0072 -7.0209,-3.3159 -11.566,-3.9271 -4.5462,-0.6979 -9.2191,-1.0471 -14.0187,-1.0471 -5.6724,3e-4 -12.3381,0.8728 -19.997,2.6181 -7.6598,1.6583 -15.3105,4.1017 -22.9519,7.3304 h -1.44 l -0.2962,-25.0022 c 4.5224,-1.309 11.0067,-2.7487 19.4533,-4.3197 8.4464,-1.5707 16.8149,-2.3561 25.1054,-2.3561 10.0357,3e-4 18.5099,0.7854 25.4228,2.3561 6.9125,1.571 13.1422,4.407 18.6888,8.5085 5.3708,4.0144 9.4028,9.2069 12.0966,15.5772 2.6932,6.3706 4.0943,14.1375 4.2029,23.3005 l 1.1843,100.0089 h -24.4786 l -0.1845,-15.5772 z m 0,0 v 0 z"
         style="fill:#333333;fill-rule:evenodd"
         id="path20"
         inkscape:connector-curvature="0" />
      <path
         d="M 6001.7482,3309.7181 4294.0641,529.8783 l 23.6234,-83.2535 c -0.08,-6.7195 -0.5026,-12.9592 -1.2688,-18.7189 -0.6803,-5.8467 -1.9573,-10.5157 -3.831,-14.0065 -2.0506,-3.6652 -4.8753,-6.3703 -8.4739,-8.1159 -3.5997,-1.8326 -8.4977,-2.7488 -14.6937,-2.749 -6.1089,2e-4 -12.416,1.6582 -18.9218,4.9742 -6.4196,3.2289 -12.6964,7.4616 -18.8303,12.6975 l 1.2929,109.1718 h -24.6095 L 4226.62,383.6611 h 24.6095 l 0.1922,16.2317 c 7.253,-6.5449 14.4369,-11.5628 21.5515,-15.0537 7.1147,-3.4905 14.6424,-5.2358 22.5839,-5.2361 14.3992,3e-4 25.7128,4.7562 33.9415,14.2682 8.2273,9.4249 12.4475,23.1259 12.6607,41.1032 l 1.1239,94.9036 z m 0,0 v 0 z"
         style="fill:#333333;fill-rule:evenodd"
         id="path22"
         inkscape:connector-curvature="0" />
      <path
         d="m 6147.6738,3163.5011 -1905.302,-2433.4744 49.9904,-200.1484 51.7691,-61.0001 -80.2516,-78.1484 81.3668,139.1485 14.6338,108.2554 -2.6946,-216.5111 -12.8557,108.2557 z m 0,0 v 0 z"
         style="fill:#333333;fill-rule:evenodd"
         id="path24"
         inkscape:connector-curvature="0" />
      <path
         d="m 6366.7018,3309.7181 -2072.638,-2779.8398 23.6237,-83.2535 c -0.08,-6.7195 -0.5026,-12.9592 -1.2688,-18.7189 -0.6803,-5.8467 -1.9573,-10.5157 -3.831,-14.0065 -2.0506,-3.6652 -4.8753,-6.3703 -8.4739,-8.1159 -3.5997,-1.8326 -8.4977,-2.7488 -14.6937,-2.749 -6.1089,2e-4 -12.416,1.6582 -18.9218,4.9742 -6.4196,3.2289 -12.6964,7.4616 -18.8303,12.6975 l 1.2929,109.1718 h -24.6095 L 4226.62,383.6611 h 24.6095 l 0.1922,16.2317 c 7.253,-6.5449 14.4369,-11.5628 21.5515,-15.0537 7.1147,-3.4905 14.6427,-5.2358 22.5839,-5.2361 14.3992,3e-4 25.7128,4.7562 33.9415,14.2682 8.2273,9.4249 12.4475,23.1259 12.6607,41.1032 l 1.1239,94.9036 z m 0,0 v 0 z"
         style="fill:#333333;fill-rule:evenodd"
         id="path26"
         inkscape:connector-curvature="0" />
      <path
         d="M 6482.7777,3273.7201 4318.1929,489.2987 c -5.8408,0.5238 -13.2497,1.2654 -22.227,2.2252 -8.8912,0.8728 -16.0756,2.1381 -21.5538,3.7961 -6.5214,2.0072 -11.8953,5.1052 -16.1218,9.294 -4.2276,4.1017 -6.2974,9.8611 -6.2095,17.2789 0.099,8.3777 2.5302,14.7047 7.2935,18.9807 4.7631,4.2761 11.6824,6.4143 20.7584,6.4143 7.7666,0 14.7722,-1.658 21.0163,-4.9743 6.2428,-3.4035 12.0844,-7.5486 17.5244,-12.4356 m 0.2418,20.4208 c -1.9897,1.4837 -4.6701,3.5779 -8.0416,6.2833 -3.2851,2.6181 -6.4894,4.7126 -9.6123,6.2833 -4.3364,2.2688 -8.5484,4.0144 -12.6354,5.2361 -4,1.2218 -9.665,1.8326 -16.9954,1.8326 -6.0217,0 -11.7511,-1.1344 -17.1885,-3.4035 -5.4374,-2.2689 -10.2314,-5.4542 -14.3816,-9.5559 -3.9747,-4.0144 -7.1744,-8.945 -9.6001,-14.7917 -2.4264,-5.9341 -3.6785,-12.1737 -3.7559,-18.7189 -0.1199,-10.1231 1.9163,-18.7189 6.1087,-25.7876 4.1913,-7.1558 10.8873,-12.8282 20.0883,-17.0173 8.1587,-3.7525 17.8149,-6.3269 28.9686,-7.7232 11.1527,-1.4834 23.1826,-2.5745 36.0902,-3.2726 l -0.056,-4.7126 c -0.068,-5.7595 -0.9958,-10.3848 -2.7822,-13.8756 -1.7878,-3.5779 -4.2638,-6.3267 -7.4281,-8.2469 -3.1655,-2.0072 -7.0209,-3.3159 -11.566,-3.9271 -4.5462,-0.6979 -9.2191,-1.0471 -14.0187,-1.0471 -5.6724,3e-4 -12.3381,0.8728 -19.997,2.6181 -7.6598,1.6583 -15.3105,4.1017 -22.9519,7.3304 h -1.44 l -0.2962,-25.0022 c 4.5224,-1.309 11.0067,-2.7487 19.4533,-4.3197 8.4464,-1.5707 16.8149,-2.3561 25.1054,-2.3561 10.0357,3e-4 18.5099,0.7854 25.4228,2.3561 6.9125,1.571 13.1422,4.407 18.6888,8.5085 5.3708,4.0144 9.4028,9.2069 12.0966,15.5772 2.6932,6.3706 4.0943,14.1375 4.2029,23.3005 l 1.1843,100.0089 h -24.4786 l -0.1845,-15.5772 z m 0,0 v 0 z"
         style="fill:#333333;fill-rule:evenodd"
         id="path28"
         inkscape:connector-curvature="0" />
      <path
         d="M 6707.8312,3309.7181 4317.6722,445.3157 c -0.08,-6.7195 -0.415,-12.9154 -1.0055,-18.5881 -0.5918,-5.7595 -1.7359,-10.2538 -3.4321,-13.4827 -1.7867,-3.4906 -4.3045,-6.0651 -7.553,-7.7233 -3.2487,-1.658 -7.6218,-2.4871 -13.1196,-2.4871 -5.0615,2e-4 -10.4972,1.5709 -16.3068,4.7126 -5.7237,3.0546 -11.6487,7.5052 -17.7755,13.352 0.1046,1.4836 0.2132,3.2726 0.3254,5.3671 0.1981,2.0072 0.3138,4.407 0.347,7.1994 l 1.1392,96.2127 h -24.6095 l -1.0015,-84.5623 c -0.08,-6.7195 -0.4147,-12.9155 -1.0055,-18.5882 -0.5918,-5.7594 -1.7359,-10.2537 -3.4322,-13.4827 -1.7866,-3.4905 -4.3044,-6.065 -7.5529,-7.7232 -3.2485,-1.658 -7.6218,-2.4872 -13.1196,-2.4872 -5.3234,3e-4 -10.889,1.6583 -16.6966,4.9743 -5.8076,3.3162 -11.4298,7.5486 -16.8667,12.6975 l 1.2929,109.1718 h -24.6096 l -1.7314,-146.2169 h 24.6096 l 0.1922,16.2317 c 6.3813,-6.4576 12.6929,-11.4318 18.9348,-14.9227 6.3281,-3.5779 13.2883,-5.3668 20.8809,-5.3671 8.6394,3e-4 16.2986,1.9635 22.9776,5.8907 6.766,3.9271 11.9478,10.385 15.5449,19.3733 7.3194,-8.2902 14.4882,-14.5734 21.5065,-18.8498 7.018,-4.2758 14.6721,-6.4139 22.9626,-6.4142 6.283,3e-4 12.011,1.0037 17.1836,3.0107 5.1713,1.9201 9.7027,5.0615 13.5944,9.4249 3.9796,4.4506 7.056,9.9921 9.2291,16.6246 2.26,6.6325 3.4494,14.9664 3.5685,25.0021 l 1.1392,96.2127 h -24.6095 z m 0,0 v 0 z"
         style="fill:#333333;fill-rule:evenodd"
         id="path30"
         inkscape:connector-curvature="0" />
      <path
         d="m 6830.0028,3313.1214 c -23.3005,0 -41.4862,-6.5449 -54.5568,-19.6353 -12.9843,-13.1774 -19.6197,-31.8527 -19.906,-56.0259 -0.282,-23.8241 5.7334,-42.761 18.0462,-56.8114 12.3118,-14.1373 28.5472,-21.206 48.7061,-21.206 9.0756,3e-4 17.1198,1.3093 24.1324,3.9271 7.0124,2.6181 13.1698,6.7198 18.472,12.3046 5.3022,5.5854 9.3974,12.4359 12.2865,20.5515 2.8874,8.0286 4.4005,17.89 4.5391,29.5838 l 0.1582,13.352 h -101.3179 c 0.2015,17.0172 4.6315,30.02 13.2902,39.0087 8.6587,8.9886 20.5365,13.483 35.6341,13.4827 5.4105,0 10.6829,-0.6109 15.8173,-1.8326 5.2214,-1.2217 9.9153,-2.7924 14.0817,-4.7123 4.4268,-2.0072 8.1564,-3.9271 11.1892,-5.7597 3.0313,-1.9199 5.5411,-3.7089 7.5288,-5.3669 h 1.44 l 0.3177,26.8348 c -2.8666,1.1344 -6.4275,2.5744 -10.6826,4.3197 -4.2565,1.658 -8.081,2.967 -11.473,3.9271 -4.7843,1.309 -9.1357,2.3125 -13.0543,3.0107 -3.8316,0.6982 -8.7146,1.0471 -14.6486,1.0471 m 27.6987,-92.8088 c -0.2531,-6.6323 -1.1064,-12.3483 -2.5594,-17.1482 -1.4533,-4.7997 -3.5084,-8.8575 -6.1656,-12.174 -2.9234,-3.6652 -6.6654,-6.4576 -11.2258,-8.3775 -4.4736,-1.9199 -10.0264,-2.8797 -16.6587,-2.8797 -6.5452,3e-4 -12.1183,1.0037 -16.7198,3.0107 -4.5153,1.9199 -8.6267,4.7562 -12.335,8.5084 -3.6198,3.8398 -6.3618,8.1159 -8.2258,12.8285 -1.8652,4.6253 -3.0229,10.0358 -3.4731,16.2318 h 77.3629 z m 0,0 v 0 z"
         style="fill:#333333;fill-rule:evenodd"
         id="path32"
         inkscape:connector-curvature="0" />
    </g>
  </g>
</svg>
