<?xml version="1.0" encoding="UTF-8" standalone="no"?>
<svg
   xmlns:dc="http://purl.org/dc/elements/1.1/"
   xmlns:cc="http://creativecommons.org/ns#"
   xmlns:rdf="http://www.w3.org/1999/02/22-rdf-syntax-ns#"
   xmlns:svg="http://www.w3.org/2000/svg"
   xmlns="http://www.w3.org/2000/svg"
   xmlns:sodipodi="http://sodipodi.sourceforge.net/DTD/sodipodi-0.dtd"
   xmlns:inkscape="http://www.inkscape.org/namespaces/inkscape"
   version="1.1"
   width="200"
   height="40"
   id="svg12"
   viewBox="0 0 200 40"
   sodipodi:docname="logo web tureforma rojo_gris.svg"
   inkscape:version="0.92.4 (5da689c313, 2019-01-14)">
  <metadata
     id="metadata18">
    <rdf:RDF>
      <cc:Work
         rdf:about="">
        <dc:format>image/svg+xml</dc:format>
        <dc:type
           rdf:resource="http://purl.org/dc/dcmitype/StillImage" />
        <dc:title></dc:title>
      </cc:Work>
    </rdf:RDF>
  </metadata>
  <defs
     id="defs16">
    <clipPath
       clipPathUnits="userSpaceOnUse"
       id="clipPath6117">
      <rect
         style="fill:#cccccc"
         id="rect6119"
         width="12.802783"
         height="10.083608"
         x="18.127834"
         y="-25.462988" />
    </clipPath>
    <clipPath
       clipPathUnits="userSpaceOnUse"
       id="clipPath6123">
      <rect
         style="fill:#cccccc"
         id="rect6125"
         width="11.095854"
         height="8.2117329"
         x="19.006939"
         y="-24.273302" />
    </clipPath>
  </defs>
  <sodipodi:namedview
     pagecolor="#ffffff"
     bordercolor="#666666"
     borderopacity="1"
     objecttolerance="10"
     gridtolerance="10"
     guidetolerance="10"
     inkscape:pageopacity="0"
     inkscape:pageshadow="2"
     inkscape:window-width="1600"
     inkscape:window-height="837"
     id="namedview14"
     showgrid="false"
     inkscape:zoom="3.120535"
     inkscape:cx="148.11317"
     inkscape:cy="4.5289089"
     inkscape:window-x="-8"
     inkscape:window-y="-8"
     inkscape:window-maximized="1"
     inkscape:current-layer="svg12"
     showguides="true"
     inkscape:guide-bbox="true">
    <sodipodi:guide
       position="151.14082,1.8127835"
       orientation="0,1"
       id="guide838"
       inkscape:locked="false" />
  </sodipodi:namedview>
  <text
     id="text6950"
     y="30.537756"
     x="30.599426"
     transform="scale(0.98591089,1.0142905)"
     style="font-size:54.31833267px;stroke-width:4.52652788">
    <tspan
       style="font-size:27.15916634px;font-family:'Maiandra GD';fill:#ff0000;stroke-width:4.52652788"
       id="tspan6946"
       font-size="6.0000"><tspan
   id="tspan6944"
   style="fill:#666666;stroke-width:4.52652788">tu</tspan>


reforma<tspan
   style="fill:#666666;stroke-width:4.52652788"
   id="tspan6960">total</tspan>
</tspan>
  </text>
  <text
     id="text6954"
     y="15.074226"
     x="43.846703"
     style="font-style:normal;font-variant:normal;font-weight:normal;font-stretch:normal;font-size:2.66666675px;line-height:1.25;font-family:'Maiandra GD';-inkscape-font-specification:'Maiandra GD';letter-spacing:0px;word-spacing:0px;fill:#000000;fill-opacity:1;stroke:none"
     xml:space="preserve"><tspan
       style="font-size:2.66666675px;fill:#483737"
       y="17.433601"
       x="43.846703"
       id="tspan6952"
       sodipodi:role="line" /></text>
  <text
     id="text6958"
     y="15.159203"
     x="43.308533"
     style="font-style:normal;font-variant:normal;font-weight:normal;font-stretch:normal;font-size:2.66666675px;line-height:1.25;font-family:'Maiandra GD';-inkscape-font-specification:'Maiandra GD';letter-spacing:0px;word-spacing:0px;fill:#000000;fill-opacity:1;stroke:none"
     xml:space="preserve"><tspan
       style="font-size:5.33333349px;fill:#483737"
       y="17.518578"
       x="43.308533"
       id="tspan6956"
       sodipodi:role="line" /></text>
  <text
     xml:space="preserve"
     style="font-style:normal;font-variant:normal;font-weight:normal;font-stretch:normal;font-size:6.25885582px;line-height:1.25;font-family:'Maiandra GD';-inkscape-font-specification:'Maiandra GD';letter-spacing:0px;word-spacing:0px;fill:#666666;fill-opacity:1;stroke:none;stroke-width:2.34707069"
     x="105.06846"
     y="43.129105"
     id="text837"
     transform="scale(1.128935,0.8857906)"><tspan
       sodipodi:role="line"
       id="tspan835"
       x="105.06846"
       y="43.129105"
       style="fill:#666666;fill-opacity:1;stroke-width:2.34707069">materiales para la reforma</tspan></text>
  <g
     id="Layer1000"
     transform="translate(-372.1947,-639.28403)">
    <g
       id="Layer1001">
      <g
         id="Layer1002">
        <g
           id="Layer1003" />
      </g>
    </g>
  </g>
  <path
     d="M 306.9099,-285.56223 H 684.7766 V 17.27997 H 306.9099 Z"
     style="fill:none"
     id="path4620"
     inkscape:connector-curvature="0" />
  <g
     id="Layer1000-4"
     transform="translate(-2285.8798,-2884.0891)">
    <g
       id="Layer1001-7">
      <g
         id="Layer1002-1">
        <g
           id="Layer1003-3" />
      </g>
    </g>
  </g>
  <path
     d="M 36.035342,6.1236276 29.954462,0.22586295 C 27.821883,2.4398128 25.689396,4.65392 23.556909,6.8679914 c 0.13418,-1.4196723 0.267388,-2.8292753 0.398788,-4.2207152 -1.670084,0 -3.318376,2.895e-4 -4.93514,3.744e-4 -0.139283,2.6998747 -0.272722,5.2928038 -0.396704,7.7112324 -2.388332,2.693038 -4.508532,5.082604 -6.198833,6.986092 1.768612,0.197782 3.200982,0.356953 4.202197,0.46731 4.16e-4,0.418855 0,0.763938 0,1.028598 2.77e-4,2.089124 0.01808,4.531586 0.04999,7.235239 0.01577,1.351823 0.03524,2.769029 0.05786,4.239674 0.02226,1.470652 0.0479,2.994776 0.07589,4.559343 -2.716229,-0.01726 -5.523981,7.04e-4 -8.3235288,0.06477 -2.799547,0.06386 -5.5909814,0.173367 -8.26269884,0.326159 2.64909154,0.172957 5.49328944,0.293886 8.42697214,0.365854 2.9336805,0.07198 5.9567575,0.09515 8.9550735,0.08159 0.0534,-3.155548 0.09816,-6.330034 0.132698,-9.375145 0.03478,-3.045114 0.05897,-5.960227 0.07168,-8.592441 0,-0.302486 0,-0.699773 0,-1.184039 -1.090145,0.109541 -2.756473,0.164204 -4.696313,0.362175 l 6.807936,-6.350083 c -0.123934,-2.3175853 0.138494,-4.4899206 0,-7.0777745 0.829803,2.897e-4 1.9722,0.4173251 2.828664,0.4174371 0.131355,1.286433 0.264561,2.5896022 0.39879,3.9020201 2.253177,-1.8862417 4.54238,-3.8025592 6.802001,-5.6944363 h 4.6e-5 l 11.096697,9.0725036 z"
     style="fill:#666666;fill-opacity:1;fill-rule:evenodd;stroke-width:0.02827413"
     id="path4686"
     inkscape:connector-curvature="0" />
  <path
     d="m 44.705865,8.7811113 -6.357681,-6.081544 c -2.13258,2.2139446 -4.265067,4.4280601 -6.397555,6.6421334 0.134181,-1.4196676 0.26739,-2.8292836 0.398789,-4.2207164 -1.670085,0 -3.318377,2.819e-4 -4.93514,3.733e-4 -0.139282,2.6998753 -0.272723,5.2927984 -0.396705,7.7112324 -2.388331,2.69304 -4.508531,5.082606 -6.198831,6.986094 1.768657,0.197781 3.200979,0.356952 4.202196,0.467302 4.17e-4,0.418862 0,0.763946 0,1.028597 2.77e-4,2.089132 0.01809,4.531587 0.04999,7.235238 0.01623,1.351824 0.03524,2.769031 0.05786,4.23969 0.02226,1.470645 0.0479,2.994783 0.0759,4.559327 -2.716229,-0.01726 -5.523983,7.07e-4 -8.323532,0.06478 -2.799546,0.06379 -5.59098,0.173358 -8.2626979,0.326158 2.6490939,0.172949 5.4932889,0.29388 8.4269709,0.365853 2.933683,0.07197 5.956759,0.09515 8.955075,0.08159 0.0534,-3.155547 0.09816,-6.330033 0.132698,-9.375152 0.03477,-3.045113 0.05898,-5.960227 0.07168,-8.592443 0,-0.302485 0,-0.699771 0,-1.184038 -1.090144,0.109542 -2.756472,0.164206 -4.696311,0.362175 L 28.3165,13.047665 c -0.123934,-2.317585 0.138495,-4.4899114 0,-7.0777739 0.829804,2.883e-4 1.972203,0.4173239 2.828666,0.4174435 0.131354,1.2864334 0.264561,2.5895971 0.39879,3.9020154 2.253177,-1.8862505 4.542379,-3.8025674 6.802001,-5.6944421 h 4.5e-5 l 11.096697,9.0725091 z"
     style="fill:#ff0000;fill-opacity:1;fill-rule:evenodd;stroke-width:0.02827413"
     id="path4682"
     inkscape:connector-curvature="0" />
</svg>
